<?xml version="1.0" encoding="utf-8"?>
<COLLADA xmlns="http://www.collada.org/2005/11/COLLADASchema" version="1.4.1" xmlns:xsi="http://www.w3.org/2001/XMLSchema-instance">
  <asset>
    <contributor>
      <author>Blender User</author>
      <authoring_tool>Blender 2.79.0 commit date:2018-03-22, commit time:14:10, hash:f4dc9f9d68b</authoring_tool>
    </contributor>
    <created>2021-01-22T23:01:52</created>
    <modified>2021-01-22T23:01:52</modified>
    <unit name="meter" meter="1"/>
    <up_axis>Z_UP</up_axis>
  </asset>
  <library_images/>
  <library_animations>
    <animation id="Armature_Root_pose_matrix">
      <source id="Armature_Root_pose_matrix-input">
        <float_array id="Armature_Root_pose_matrix-input-array" count="7">0 0.1833333 0.2166666 0.3833333 0.5666667 0.6 0.7666667</float_array>
        <technique_common>
          <accessor source="#Armature_Root_pose_matrix-input-array" count="7" stride="1">
            <param name="TIME" type="float"/>
          </accessor>
        </technique_common>
      </source>
      <source id="Armature_Root_pose_matrix-output">
        <float_array id="Armature_Root_pose_matrix-output-array" count="112">1 0 0 -4.60446e-6 0 0 -1 9.46417e-4 0 1 0 0.735366 0 0 0 1 1 0 0 -4.60446e-6 0 0 -1 9.46417e-4 0 1 0 0.5840682 0 0 0 1 1 0 0 -4.60446e-6 0 0 -1 9.46417e-4 0 1 0 0.5840682 0 0 0 1 1 0 0 -4.60446e-6 0 0 -1 9.46417e-4 0 1 0 0.735366 0 0 0 1 1 0 0 -4.60446e-6 0 0 -1 9.46417e-4 0 1 0 0.5840682 0 0 0 1 1 0 0 -4.60446e-6 0 0 -1 9.46417e-4 0 1 0 0.5840682 0 0 0 1 1 0 0 -4.60446e-6 0 0 -1 9.46417e-4 0 1 0 0.735366 0 0 0 1</float_array>
        <technique_common>
          <accessor source="#Armature_Root_pose_matrix-output-array" count="7" stride="16">
            <param name="TRANSFORM" type="float4x4"/>
          </accessor>
        </technique_common>
      </source>
      <source id="Armature_Root_pose_matrix-interpolation">
        <Name_array id="Armature_Root_pose_matrix-interpolation-array" count="7">LINEAR LINEAR LINEAR LINEAR LINEAR LINEAR LINEAR</Name_array>
        <technique_common>
          <accessor source="#Armature_Root_pose_matrix-interpolation-array" count="7" stride="1">
            <param name="INTERPOLATION" type="name"/>
          </accessor>
        </technique_common>
      </source>
      <sampler id="Armature_Root_pose_matrix-sampler">
        <input semantic="INPUT" source="#Armature_Root_pose_matrix-input"/>
        <input semantic="OUTPUT" source="#Armature_Root_pose_matrix-output"/>
        <input semantic="INTERPOLATION" source="#Armature_Root_pose_matrix-interpolation"/>
      </sampler>
      <channel source="#Armature_Root_pose_matrix-sampler" target="Armature_Root/transform"/>
    </animation>
    <animation id="Armature_Thigh_R_pose_matrix">
      <source id="Armature_Thigh_R_pose_matrix-input">
        <float_array id="Armature_Thigh_R_pose_matrix-input-array" count="7">0 0.1833333 0.2166666 0.3833333 0.5666667 0.6 0.7666667</float_array>
        <technique_common>
          <accessor source="#Armature_Thigh_R_pose_matrix-input-array" count="7" stride="1">
            <param name="TIME" type="float"/>
          </accessor>
        </technique_common>
      </source>
      <source id="Armature_Thigh_R_pose_matrix-output">
        <float_array id="Armature_Thigh_R_pose_matrix-output-array" count="112">0.9999996 -2.42683e-7 -6.91044e-8 0.1249939 2.05041e-7 -0.7569372 0.6534859 -0.002830744 -2.10898e-7 -0.653484 -0.7569394 -1.18464e-5 0 0 0 1 0.9999996 -1.74557e-7 -5.77428e-8 0.1249939 3.02384e-7 -0.5187945 0.8548984 -0.002830744 -1.79185e-7 -0.8548963 -0.5187961 -1.18464e-5 0 0 0 1 0.9999996 -1.74557e-7 -5.77428e-8 0.1249939 3.02384e-7 -0.5187945 0.8548984 -0.002830744 -1.79185e-7 -0.8548963 -0.5187961 -1.18464e-5 0 0 0 1 0.9999996 -2.62635e-7 -1.11193e-7 0.1249939 1.53891e-7 -0.9036031 0.4283665 -0.002830744 -2.12979e-7 -0.4283651 -0.9036056 -1.18464e-5 0 0 0 1 0.9999996 -3.83727e-7 -2.33282e-7 0.1249939 -1.01499e-7 -0.9160236 -0.4011199 -0.002830744 -5.97712e-8 0.4011194 -0.9160256 -1.18464e-5 0 0 0 1 0.9999996 -3.83727e-7 -2.33282e-7 0.1249939 -1.01499e-7 -0.9160236 -0.4011199 -0.002830744 -5.97712e-8 0.4011194 -0.9160256 -1.18464e-5 0 0 0 1 0.9999996 -2.42683e-7 -6.91044e-8 0.1249939 2.05041e-7 -0.7569372 0.6534859 -0.002830744 -2.10898e-7 -0.653484 -0.7569394 -1.18464e-5 0 0 0 1</float_array>
        <technique_common>
          <accessor source="#Armature_Thigh_R_pose_matrix-output-array" count="7" stride="16">
            <param name="TRANSFORM" type="float4x4"/>
          </accessor>
        </technique_common>
      </source>
      <source id="Armature_Thigh_R_pose_matrix-interpolation">
        <Name_array id="Armature_Thigh_R_pose_matrix-interpolation-array" count="7">LINEAR LINEAR LINEAR LINEAR LINEAR LINEAR LINEAR</Name_array>
        <technique_common>
          <accessor source="#Armature_Thigh_R_pose_matrix-interpolation-array" count="7" stride="1">
            <param name="INTERPOLATION" type="name"/>
          </accessor>
        </technique_common>
      </source>
      <sampler id="Armature_Thigh_R_pose_matrix-sampler">
        <input semantic="INPUT" source="#Armature_Thigh_R_pose_matrix-input"/>
        <input semantic="OUTPUT" source="#Armature_Thigh_R_pose_matrix-output"/>
        <input semantic="INTERPOLATION" source="#Armature_Thigh_R_pose_matrix-interpolation"/>
      </sampler>
      <channel source="#Armature_Thigh_R_pose_matrix-sampler" target="Armature_Thigh_R/transform"/>
    </animation>
    <animation id="Armature_Leg_R_pose_matrix">
      <source id="Armature_Leg_R_pose_matrix-input">
        <float_array id="Armature_Leg_R_pose_matrix-input-array" count="7">0 0.1833333 0.2166666 0.3833333 0.5666667 0.6 0.7666667</float_array>
        <technique_common>
          <accessor source="#Armature_Leg_R_pose_matrix-input-array" count="7" stride="1">
            <param name="TIME" type="float"/>
          </accessor>
        </technique_common>
      </source>
      <source id="Armature_Leg_R_pose_matrix-output">
        <float_array id="Armature_Leg_R_pose_matrix-output-array" count="112">1 -1.79611e-7 6.60267e-7 7.45058e-9 -6.57782e-7 0.01350823 0.999907 0.3747202 -1.88513e-7 -0.999911 0.01350817 -2.98023e-8 0 0 0 1 1 4.28099e-8 7.7283e-7 7.45058e-9 -6.82371e-7 0.5200408 0.8541403 0.3747202 -3.65337e-7 -0.8541437 0.5200387 -2.98023e-8 0 0 0 1 1 4.28099e-8 7.7283e-7 7.45058e-9 -6.82371e-7 0.5200408 0.8541403 0.3747202 -3.65337e-7 -0.8541437 0.5200387 -2.98023e-8 0 0 0 1 1 1.35001e-7 7.89377e-7 7.45058e-9 -4.5698e-7 0.9056519 0.4240249 0.3747202 -6.57657e-7 -0.4240266 0.9056484 -2.98023e-8 0 0 0 1 1 8.80352e-8 5.83745e-7 7.45058e-9 -3.58218e-7 0.8764622 0.481473 0.3747202 -4.69244e-7 -0.4814749 0.8764586 -2.98023e-8 0 0 0 1 1 8.80352e-8 5.83745e-7 7.45058e-9 -3.58218e-7 0.8764622 0.481473 0.3747202 -4.69244e-7 -0.4814749 0.8764586 -2.98023e-8 0 0 0 1 1 -1.79611e-7 6.60267e-7 7.45058e-9 -6.57782e-7 0.01350823 0.999907 0.3747202 -1.88513e-7 -0.999911 0.01350817 -2.98023e-8 0 0 0 1</float_array>
        <technique_common>
          <accessor source="#Armature_Leg_R_pose_matrix-output-array" count="7" stride="16">
            <param name="TRANSFORM" type="float4x4"/>
          </accessor>
        </technique_common>
      </source>
      <source id="Armature_Leg_R_pose_matrix-interpolation">
        <Name_array id="Armature_Leg_R_pose_matrix-interpolation-array" count="7">LINEAR LINEAR LINEAR LINEAR LINEAR LINEAR LINEAR</Name_array>
        <technique_common>
          <accessor source="#Armature_Leg_R_pose_matrix-interpolation-array" count="7" stride="1">
            <param name="INTERPOLATION" type="name"/>
          </accessor>
        </technique_common>
      </source>
      <sampler id="Armature_Leg_R_pose_matrix-sampler">
        <input semantic="INPUT" source="#Armature_Leg_R_pose_matrix-input"/>
        <input semantic="OUTPUT" source="#Armature_Leg_R_pose_matrix-output"/>
        <input semantic="INTERPOLATION" source="#Armature_Leg_R_pose_matrix-interpolation"/>
      </sampler>
      <channel source="#Armature_Leg_R_pose_matrix-sampler" target="Armature_Leg_R/transform"/>
    </animation>
    <animation id="Armature_Knee_R_pose_matrix">
      <source id="Armature_Knee_R_pose_matrix-input">
        <float_array id="Armature_Knee_R_pose_matrix-input-array" count="7">0 0.1833333 0.2166666 0.3833333 0.5666667 0.6 0.7666667</float_array>
        <technique_common>
          <accessor source="#Armature_Knee_R_pose_matrix-input-array" count="7" stride="1">
            <param name="TIME" type="float"/>
          </accessor>
        </technique_common>
      </source>
      <source id="Armature_Knee_R_pose_matrix-output">
        <float_array id="Armature_Knee_R_pose_matrix-output-array" count="112">1 5.96048e-8 -2.38597e-7 2.23517e-8 -2.38597e-7 6.25849e-7 -1 0.4713919 -5.96046e-8 1 6.25849e-7 -0.004956394 0 0 0 1 1 5.96048e-8 -2.38597e-7 7.45058e-9 -2.38597e-7 6.25849e-7 -1 0.4270117 -5.96046e-8 1 6.25849e-7 -0.001877218 0 0 0 1 1 5.96048e-8 -2.38597e-7 7.45058e-9 -2.38597e-7 6.25849e-7 -1 0.4270117 -5.96046e-8 1 6.25849e-7 -0.001877218 0 0 0 1 1 5.96048e-8 -2.38597e-7 7.45058e-9 -2.38597e-7 6.25849e-7 -1 0.3747202 -5.96046e-8 1 6.25849e-7 -2.98023e-8 0 0 0 1 1 5.96048e-8 -2.38597e-7 7.45058e-9 -2.38597e-7 6.25849e-7 -1 0.3747202 -5.96046e-8 1 6.25849e-7 -2.98023e-8 0 0 0 1 1 5.96048e-8 -2.38597e-7 7.45058e-9 -2.38597e-7 6.25849e-7 -1 0.3747202 -5.96046e-8 1 6.25849e-7 -2.98023e-8 0 0 0 1 1 5.96048e-8 -2.38597e-7 2.23517e-8 -2.38597e-7 6.25849e-7 -1 0.4713919 -5.96046e-8 1 6.25849e-7 -0.004956394 0 0 0 1</float_array>
        <technique_common>
          <accessor source="#Armature_Knee_R_pose_matrix-output-array" count="7" stride="16">
            <param name="TRANSFORM" type="float4x4"/>
          </accessor>
        </technique_common>
      </source>
      <source id="Armature_Knee_R_pose_matrix-interpolation">
        <Name_array id="Armature_Knee_R_pose_matrix-interpolation-array" count="7">LINEAR LINEAR LINEAR LINEAR LINEAR LINEAR LINEAR</Name_array>
        <technique_common>
          <accessor source="#Armature_Knee_R_pose_matrix-interpolation-array" count="7" stride="1">
            <param name="INTERPOLATION" type="name"/>
          </accessor>
        </technique_common>
      </source>
      <sampler id="Armature_Knee_R_pose_matrix-sampler">
        <input semantic="INPUT" source="#Armature_Knee_R_pose_matrix-input"/>
        <input semantic="OUTPUT" source="#Armature_Knee_R_pose_matrix-output"/>
        <input semantic="INTERPOLATION" source="#Armature_Knee_R_pose_matrix-interpolation"/>
      </sampler>
      <channel source="#Armature_Knee_R_pose_matrix-sampler" target="Armature_Knee_R/transform"/>
    </animation>
    <animation id="Armature_Thigh_L_pose_matrix">
      <source id="Armature_Thigh_L_pose_matrix-input">
        <float_array id="Armature_Thigh_L_pose_matrix-input-array" count="7">0 0.1833333 0.2166666 0.3833333 0.5666667 0.6 0.7666667</float_array>
        <technique_common>
          <accessor source="#Armature_Thigh_L_pose_matrix-input-array" count="7" stride="1">
            <param name="TIME" type="float"/>
          </accessor>
        </technique_common>
      </source>
      <source id="Armature_Thigh_L_pose_matrix-output">
        <float_array id="Armature_Thigh_L_pose_matrix-output-array" count="112">0.9999993 -3.40967e-7 1.52665e-7 -0.1250061 -2.99447e-8 -0.9051977 0.4249904 -0.002830744 -6.71518e-9 -0.4249902 -0.9051976 -1.18464e-5 0 0 0 1 0.9999993 -2.09081e-7 -1.64829e-8 -0.1250061 1.45738e-7 -0.914312 -0.4050102 -0.002830744 6.96096e-8 0.4050108 -0.9143115 -1.18464e-5 0 0 0 1 0.9999993 -2.09081e-7 -1.64829e-8 -0.1250061 1.45738e-7 -0.914312 -0.4050102 -0.002830744 6.96096e-8 0.4050108 -0.9143115 -1.18464e-5 0 0 0 1 0.9999993 -3.10228e-7 1.88331e-7 -0.1250061 -1.43672e-8 -0.7574914 0.6528448 -0.002830744 -5.98717e-8 -0.6528448 -0.7574914 -1.18464e-5 0 0 0 1 0.9999993 -3.3355e-7 2.64505e-7 -0.1250061 -5.29931e-8 -0.5040488 0.8636747 -0.002830744 -1.54755e-7 -0.863675 -0.504049 -1.18464e-5 0 0 0 1 0.9999993 -3.3355e-7 2.64505e-7 -0.1250061 -5.29931e-8 -0.5040488 0.8636747 -0.002830744 -1.54755e-7 -0.863675 -0.504049 -1.18464e-5 0 0 0 1 0.9999993 -3.40967e-7 1.52665e-7 -0.1250061 -2.99447e-8 -0.9051977 0.4249904 -0.002830744 -6.71518e-9 -0.4249902 -0.9051976 -1.18464e-5 0 0 0 1</float_array>
        <technique_common>
          <accessor source="#Armature_Thigh_L_pose_matrix-output-array" count="7" stride="16">
            <param name="TRANSFORM" type="float4x4"/>
          </accessor>
        </technique_common>
      </source>
      <source id="Armature_Thigh_L_pose_matrix-interpolation">
        <Name_array id="Armature_Thigh_L_pose_matrix-interpolation-array" count="7">LINEAR LINEAR LINEAR LINEAR LINEAR LINEAR LINEAR</Name_array>
        <technique_common>
          <accessor source="#Armature_Thigh_L_pose_matrix-interpolation-array" count="7" stride="1">
            <param name="INTERPOLATION" type="name"/>
          </accessor>
        </technique_common>
      </source>
      <sampler id="Armature_Thigh_L_pose_matrix-sampler">
        <input semantic="INPUT" source="#Armature_Thigh_L_pose_matrix-input"/>
        <input semantic="OUTPUT" source="#Armature_Thigh_L_pose_matrix-output"/>
        <input semantic="INTERPOLATION" source="#Armature_Thigh_L_pose_matrix-interpolation"/>
      </sampler>
      <channel source="#Armature_Thigh_L_pose_matrix-sampler" target="Armature_Thigh_L/transform"/>
    </animation>
    <animation id="Armature_Leg_L_pose_matrix">
      <source id="Armature_Leg_L_pose_matrix-input">
        <float_array id="Armature_Leg_L_pose_matrix-input-array" count="7">0 0.1833333 0.2166666 0.3833333 0.5666667 0.6 0.7666667</float_array>
        <technique_common>
          <accessor source="#Armature_Leg_L_pose_matrix-input-array" count="7" stride="1">
            <param name="TIME" type="float"/>
          </accessor>
        </technique_common>
      </source>
      <source id="Armature_Leg_L_pose_matrix-output">
        <float_array id="Armature_Leg_L_pose_matrix-output-array" count="112">1 -1.03488e-7 5.11996e-7 -1.49012e-8 -1.19234e-7 0.9090757 0.4166294 0.3747202 -5.08559e-7 -0.4166286 0.9090775 -2.98023e-8 0 0 0 1 1 2.36494e-7 7.48556e-7 -1.49012e-8 -5.55795e-7 0.886695 0.4623539 0.3747202 -5.54397e-7 -0.4623529 0.8866967 -2.98023e-8 0 0 0 1 1 2.36494e-7 7.48556e-7 -1.49012e-8 -5.55795e-7 0.886695 0.4623539 0.3747202 -5.54397e-7 -0.4623529 0.8866967 -2.98023e-8 0 0 0 1 1 -1.2443e-7 7.52547e-7 -1.49012e-8 -7.5075e-7 0.01385859 0.9999052 0.3747202 -1.34847e-7 -0.9999031 0.01385865 -2.98023e-8 0 0 0 1 1 1.5734e-7 9.04189e-7 -1.49012e-8 -8.66098e-7 0.4877083 0.8730073 0.3747202 -3.03622e-7 -0.8730055 0.4877093 -2.98023e-8 0 0 0 1 1 1.5734e-7 9.04189e-7 -1.49012e-8 -8.66098e-7 0.4877083 0.8730073 0.3747202 -3.03622e-7 -0.8730055 0.4877093 -2.98023e-8 0 0 0 1 1 -1.03488e-7 5.11996e-7 -1.49012e-8 -1.19234e-7 0.9090757 0.4166294 0.3747202 -5.08559e-7 -0.4166286 0.9090775 -2.98023e-8 0 0 0 1</float_array>
        <technique_common>
          <accessor source="#Armature_Leg_L_pose_matrix-output-array" count="7" stride="16">
            <param name="TRANSFORM" type="float4x4"/>
          </accessor>
        </technique_common>
      </source>
      <source id="Armature_Leg_L_pose_matrix-interpolation">
        <Name_array id="Armature_Leg_L_pose_matrix-interpolation-array" count="7">LINEAR LINEAR LINEAR LINEAR LINEAR LINEAR LINEAR</Name_array>
        <technique_common>
          <accessor source="#Armature_Leg_L_pose_matrix-interpolation-array" count="7" stride="1">
            <param name="INTERPOLATION" type="name"/>
          </accessor>
        </technique_common>
      </source>
      <sampler id="Armature_Leg_L_pose_matrix-sampler">
        <input semantic="INPUT" source="#Armature_Leg_L_pose_matrix-input"/>
        <input semantic="OUTPUT" source="#Armature_Leg_L_pose_matrix-output"/>
        <input semantic="INTERPOLATION" source="#Armature_Leg_L_pose_matrix-interpolation"/>
      </sampler>
      <channel source="#Armature_Leg_L_pose_matrix-sampler" target="Armature_Leg_L/transform"/>
    </animation>
    <animation id="Armature_Knee_L_pose_matrix">
      <source id="Armature_Knee_L_pose_matrix-input">
        <float_array id="Armature_Knee_L_pose_matrix-input-array" count="7">0 0.1833333 0.2166666 0.3833333 0.5666667 0.6 0.7666667</float_array>
        <technique_common>
          <accessor source="#Armature_Knee_L_pose_matrix-input-array" count="7" stride="1">
            <param name="TIME" type="float"/>
          </accessor>
        </technique_common>
      </source>
      <source id="Armature_Knee_L_pose_matrix-output">
        <float_array id="Armature_Knee_L_pose_matrix-output-array" count="112">1 5.96048e-8 -2.38597e-7 -1.49012e-8 -2.38597e-7 6.55651e-7 -1 0.3747202 -5.96047e-8 1 5.66244e-7 -2.98023e-8 0 0 0 1 1 5.96048e-8 -2.38597e-7 -1.49012e-8 -2.38597e-7 6.55651e-7 -1 0.3853353 -5.96047e-8 1 5.66244e-7 -0.00183323 0 0 0 1 1 5.96048e-8 -2.38597e-7 -1.49012e-8 -2.38597e-7 6.55651e-7 -1 0.3853353 -5.96047e-8 1 5.66244e-7 -0.00183323 0 0 0 1 1 5.96048e-8 -2.38597e-7 1.49012e-8 -2.38597e-7 6.55651e-7 -1 0.4764735 -5.96047e-8 1 5.66244e-7 -9.23663e-4 0 0 0 1 1 5.96048e-8 -2.38597e-7 0 -2.38597e-7 6.55651e-7 -1 0.432729 -5.96047e-8 1 5.66244e-7 -0.003693789 0 0 0 1 1 5.96048e-8 -2.38597e-7 0 -2.38597e-7 6.55651e-7 -1 0.432729 -5.96047e-8 1 5.66244e-7 -0.003693789 0 0 0 1 1 5.96048e-8 -2.38597e-7 -1.49012e-8 -2.38597e-7 6.55651e-7 -1 0.3747202 -5.96047e-8 1 5.66244e-7 -2.98023e-8 0 0 0 1</float_array>
        <technique_common>
          <accessor source="#Armature_Knee_L_pose_matrix-output-array" count="7" stride="16">
            <param name="TRANSFORM" type="float4x4"/>
          </accessor>
        </technique_common>
      </source>
      <source id="Armature_Knee_L_pose_matrix-interpolation">
        <Name_array id="Armature_Knee_L_pose_matrix-interpolation-array" count="7">LINEAR LINEAR LINEAR LINEAR LINEAR LINEAR LINEAR</Name_array>
        <technique_common>
          <accessor source="#Armature_Knee_L_pose_matrix-interpolation-array" count="7" stride="1">
            <param name="INTERPOLATION" type="name"/>
          </accessor>
        </technique_common>
      </source>
      <sampler id="Armature_Knee_L_pose_matrix-sampler">
        <input semantic="INPUT" source="#Armature_Knee_L_pose_matrix-input"/>
        <input semantic="OUTPUT" source="#Armature_Knee_L_pose_matrix-output"/>
        <input semantic="INTERPOLATION" source="#Armature_Knee_L_pose_matrix-interpolation"/>
      </sampler>
      <channel source="#Armature_Knee_L_pose_matrix-sampler" target="Armature_Knee_L/transform"/>
    </animation>
    <animation id="Armature_Torso_pose_matrix">
      <source id="Armature_Torso_pose_matrix-input">
        <float_array id="Armature_Torso_pose_matrix-input-array" count="7">0 0.1833333 0.2166666 0.3833333 0.5666667 0.6 0.7666667</float_array>
        <technique_common>
          <accessor source="#Armature_Torso_pose_matrix-input-array" count="7" stride="1">
            <param name="TIME" type="float"/>
          </accessor>
        </technique_common>
      </source>
      <source id="Armature_Torso_pose_matrix-output">
        <float_array id="Armature_Torso_pose_matrix-output-array" count="112">1 0 0 0 0 0.9335091 0.3585538 0.05000019 0 -0.3585538 0.9335091 0 0 0 0 1 1 0 0 0 0 0.9335091 0.3585538 0.05000019 0 -0.3585538 0.9335091 0 0 0 0 1 1 0 0 0 0 0.9335091 0.3585538 0.05000019 0 -0.3585538 0.9335091 0 0 0 0 1 1 0 0 0 0 0.9335091 0.3585538 0.05000019 0 -0.3585538 0.9335091 0 0 0 0 1 1 0 0 0 0 0.9335091 0.3585538 0.05000019 0 -0.3585538 0.9335091 0 0 0 0 1 1 0 0 0 0 0.9335091 0.3585538 0.05000019 0 -0.3585538 0.9335091 0 0 0 0 1 1 0 0 0 0 0.9335091 0.3585538 0.05000019 0 -0.3585538 0.9335091 0 0 0 0 1</float_array>
        <technique_common>
          <accessor source="#Armature_Torso_pose_matrix-output-array" count="7" stride="16">
            <param name="TRANSFORM" type="float4x4"/>
          </accessor>
        </technique_common>
      </source>
      <source id="Armature_Torso_pose_matrix-interpolation">
        <Name_array id="Armature_Torso_pose_matrix-interpolation-array" count="7">LINEAR LINEAR LINEAR LINEAR LINEAR LINEAR LINEAR</Name_array>
        <technique_common>
          <accessor source="#Armature_Torso_pose_matrix-interpolation-array" count="7" stride="1">
            <param name="INTERPOLATION" type="name"/>
          </accessor>
        </technique_common>
      </source>
      <sampler id="Armature_Torso_pose_matrix-sampler">
        <input semantic="INPUT" source="#Armature_Torso_pose_matrix-input"/>
        <input semantic="OUTPUT" source="#Armature_Torso_pose_matrix-output"/>
        <input semantic="INTERPOLATION" source="#Armature_Torso_pose_matrix-interpolation"/>
      </sampler>
      <channel source="#Armature_Torso_pose_matrix-sampler" target="Armature_Torso/transform"/>
    </animation>
    <animation id="Armature_Chest_pose_matrix">
      <source id="Armature_Chest_pose_matrix-input">
        <float_array id="Armature_Chest_pose_matrix-input-array" count="7">0 0.1833333 0.2166666 0.3833333 0.5666667 0.6 0.7666667</float_array>
        <technique_common>
          <accessor source="#Armature_Chest_pose_matrix-input-array" count="7" stride="1">
            <param name="TIME" type="float"/>
          </accessor>
        </technique_common>
      </source>
      <source id="Armature_Chest_pose_matrix-output">
        <float_array id="Armature_Chest_pose_matrix-output-array" count="112">1 0 0 0 0 0.9189421 0.3943927 0.3 0 -0.3943926 0.918942 0 0 0 0 1 1 0 0 0 0 0.9013627 0.4330649 0.3 0 -0.4330649 0.9013627 0 0 0 0 1 1 0 0 0 0 0.9013627 0.4330649 0.3 0 -0.4330649 0.9013627 0 0 0 0 1 1 0 0 0 0 0.9189421 0.3943927 0.3 0 -0.3943926 0.918942 0 0 0 0 1 1 0 0 0 0 0.9013627 0.4330649 0.3 0 -0.4330649 0.9013627 0 0 0 0 1 1 0 0 0 0 0.9013627 0.4330649 0.3 0 -0.4330649 0.9013627 0 0 0 0 1 1 0 0 0 0 0.9189421 0.3943927 0.3 0 -0.3943926 0.918942 0 0 0 0 1</float_array>
        <technique_common>
          <accessor source="#Armature_Chest_pose_matrix-output-array" count="7" stride="16">
            <param name="TRANSFORM" type="float4x4"/>
          </accessor>
        </technique_common>
      </source>
      <source id="Armature_Chest_pose_matrix-interpolation">
        <Name_array id="Armature_Chest_pose_matrix-interpolation-array" count="7">LINEAR LINEAR LINEAR LINEAR LINEAR LINEAR LINEAR</Name_array>
        <technique_common>
          <accessor source="#Armature_Chest_pose_matrix-interpolation-array" count="7" stride="1">
            <param name="INTERPOLATION" type="name"/>
          </accessor>
        </technique_common>
      </source>
      <sampler id="Armature_Chest_pose_matrix-sampler">
        <input semantic="INPUT" source="#Armature_Chest_pose_matrix-input"/>
        <input semantic="OUTPUT" source="#Armature_Chest_pose_matrix-output"/>
        <input semantic="INTERPOLATION" source="#Armature_Chest_pose_matrix-interpolation"/>
      </sampler>
      <channel source="#Armature_Chest_pose_matrix-sampler" target="Armature_Chest/transform"/>
    </animation>
    <animation id="Armature_Head_pose_matrix">
      <source id="Armature_Head_pose_matrix-input">
        <float_array id="Armature_Head_pose_matrix-input-array" count="7">0 0.1833333 0.2166666 0.3833333 0.5666667 0.6 0.7666667</float_array>
        <technique_common>
          <accessor source="#Armature_Head_pose_matrix-input-array" count="7" stride="1">
            <param name="TIME" type="float"/>
          </accessor>
        </technique_common>
      </source>
      <source id="Armature_Head_pose_matrix-output">
        <float_array id="Armature_Head_pose_matrix-output-array" count="112">1 0 0 0 0 0.7546874 -0.6560845 0.3999998 0 0.6560845 0.7546874 -1.19209e-7 0 0 0 1 1 0 0 0 0 0.7546874 -0.6560845 0.3999998 0 0.6560845 0.7546874 -1.19209e-7 0 0 0 1 1 0 0 0 0 0.7546874 -0.6560845 0.3999998 0 0.6560845 0.7546874 -1.19209e-7 0 0 0 1 1 0 0 0 0 0.7546874 -0.6560845 0.3999998 0 0.6560845 0.7546874 -1.19209e-7 0 0 0 1 1 0 0 0 0 0.7546874 -0.6560845 0.3999998 0 0.6560845 0.7546874 -1.19209e-7 0 0 0 1 1 0 0 0 0 0.7546874 -0.6560845 0.3999998 0 0.6560845 0.7546874 -1.19209e-7 0 0 0 1 1 0 0 0 0 0.7546874 -0.6560845 0.3999998 0 0.6560845 0.7546874 -1.19209e-7 0 0 0 1</float_array>
        <technique_common>
          <accessor source="#Armature_Head_pose_matrix-output-array" count="7" stride="16">
            <param name="TRANSFORM" type="float4x4"/>
          </accessor>
        </technique_common>
      </source>
      <source id="Armature_Head_pose_matrix-interpolation">
        <Name_array id="Armature_Head_pose_matrix-interpolation-array" count="7">LINEAR LINEAR LINEAR LINEAR LINEAR LINEAR LINEAR</Name_array>
        <technique_common>
          <accessor source="#Armature_Head_pose_matrix-interpolation-array" count="7" stride="1">
            <param name="INTERPOLATION" type="name"/>
          </accessor>
        </technique_common>
      </source>
      <sampler id="Armature_Head_pose_matrix-sampler">
        <input semantic="INPUT" source="#Armature_Head_pose_matrix-input"/>
        <input semantic="OUTPUT" source="#Armature_Head_pose_matrix-output"/>
        <input semantic="INTERPOLATION" source="#Armature_Head_pose_matrix-interpolation"/>
      </sampler>
      <channel source="#Armature_Head_pose_matrix-sampler" target="Armature_Head/transform"/>
    </animation>
    <animation id="Armature_Shoulder_R_pose_matrix">
      <source id="Armature_Shoulder_R_pose_matrix-input">
        <float_array id="Armature_Shoulder_R_pose_matrix-input-array" count="7">0 0.1833333 0.2166666 0.3833333 0.5666667 0.6 0.7666667</float_array>
        <technique_common>
          <accessor source="#Armature_Shoulder_R_pose_matrix-input-array" count="7" stride="1">
            <param name="TIME" type="float"/>
          </accessor>
        </technique_common>
      </source>
      <source id="Armature_Shoulder_R_pose_matrix-output">
        <float_array id="Armature_Shoulder_R_pose_matrix-output-array" count="112">-0.03701112 0.9504357 0.3087099 0 0.004273415 -0.3087681 0.9511277 0.3999998 0.9993055 0.03652166 0.00736618 -1.19209e-7 0 0 0 1 -0.03701112 0.9504357 0.3087099 0 0.004273415 -0.3087681 0.9511277 0.3999998 0.9993055 0.03652166 0.00736618 -1.19209e-7 0 0 0 1 -0.03701112 0.9504357 0.3087099 0 0.004273415 -0.3087681 0.9511277 0.3999998 0.9993055 0.03652166 0.00736618 -1.19209e-7 0 0 0 1 -0.03701112 0.9504357 0.3087099 0 0.004273415 -0.3087681 0.9511277 0.3999998 0.9993055 0.03652166 0.00736618 -1.19209e-7 0 0 0 1 -0.03701112 0.9504357 0.3087099 0 0.004273415 -0.3087681 0.9511277 0.3999998 0.9993055 0.03652166 0.00736618 -1.19209e-7 0 0 0 1 -0.03701112 0.9504357 0.3087099 0 0.004273415 -0.3087681 0.9511277 0.3999998 0.9993055 0.03652166 0.00736618 -1.19209e-7 0 0 0 1 -0.03701112 0.9504357 0.3087099 0 0.004273415 -0.3087681 0.9511277 0.3999998 0.9993055 0.03652166 0.00736618 -1.19209e-7 0 0 0 1</float_array>
        <technique_common>
          <accessor source="#Armature_Shoulder_R_pose_matrix-output-array" count="7" stride="16">
            <param name="TRANSFORM" type="float4x4"/>
          </accessor>
        </technique_common>
      </source>
      <source id="Armature_Shoulder_R_pose_matrix-interpolation">
        <Name_array id="Armature_Shoulder_R_pose_matrix-interpolation-array" count="7">LINEAR LINEAR LINEAR LINEAR LINEAR LINEAR LINEAR</Name_array>
        <technique_common>
          <accessor source="#Armature_Shoulder_R_pose_matrix-interpolation-array" count="7" stride="1">
            <param name="INTERPOLATION" type="name"/>
          </accessor>
        </technique_common>
      </source>
      <sampler id="Armature_Shoulder_R_pose_matrix-sampler">
        <input semantic="INPUT" source="#Armature_Shoulder_R_pose_matrix-input"/>
        <input semantic="OUTPUT" source="#Armature_Shoulder_R_pose_matrix-output"/>
        <input semantic="INTERPOLATION" source="#Armature_Shoulder_R_pose_matrix-interpolation"/>
      </sampler>
      <channel source="#Armature_Shoulder_R_pose_matrix-sampler" target="Armature_Shoulder_R/transform"/>
    </animation>
    <animation id="Armature_Arm_R_pose_matrix">
      <source id="Armature_Arm_R_pose_matrix-input">
        <float_array id="Armature_Arm_R_pose_matrix-input-array" count="7">0 0.1833333 0.2166666 0.3833333 0.5666667 0.6 0.7666667</float_array>
        <technique_common>
          <accessor source="#Armature_Arm_R_pose_matrix-input-array" count="7" stride="1">
            <param name="TIME" type="float"/>
          </accessor>
        </technique_common>
      </source>
      <source id="Armature_Arm_R_pose_matrix-output">
        <float_array id="Armature_Arm_R_pose_matrix-output-array" count="112">0.110874 0.4128212 -0.9040384 -5.96046e-8 0.9204496 0.3004027 0.2500627 0.3938605 0.3748067 -0.8598474 -0.346674 -1.19209e-7 0 0 0 1 0.1176407 0.2461134 -0.9620752 -5.96046e-8 0.9309092 0.3100119 0.1931354 0.3938605 0.3457879 -0.9183253 -0.1926391 -1.19209e-7 0 0 0 1 0.1176407 0.2461134 -0.9620752 -5.96046e-8 0.9309092 0.3100119 0.1931354 0.3938605 0.3457879 -0.9183253 -0.1926391 -1.19209e-7 0 0 0 1 0.110874 0.4128212 -0.9040384 -5.96046e-8 0.9204496 0.3004027 0.2500627 0.3938605 0.3748067 -0.8598474 -0.346674 -1.19209e-7 0 0 0 1 0.1176407 0.2461134 -0.9620752 -5.96046e-8 0.9309092 0.3100119 0.1931354 0.3938605 0.3457879 -0.9183253 -0.1926391 -1.19209e-7 0 0 0 1 0.1176407 0.2461134 -0.9620752 -5.96046e-8 0.9309092 0.3100119 0.1931354 0.3938605 0.3457879 -0.9183253 -0.1926391 -1.19209e-7 0 0 0 1 0.110874 0.4128212 -0.9040384 -5.96046e-8 0.9204496 0.3004027 0.2500627 0.3938605 0.3748067 -0.8598474 -0.346674 -1.19209e-7 0 0 0 1</float_array>
        <technique_common>
          <accessor source="#Armature_Arm_R_pose_matrix-output-array" count="7" stride="16">
            <param name="TRANSFORM" type="float4x4"/>
          </accessor>
        </technique_common>
      </source>
      <source id="Armature_Arm_R_pose_matrix-interpolation">
        <Name_array id="Armature_Arm_R_pose_matrix-interpolation-array" count="7">LINEAR LINEAR LINEAR LINEAR LINEAR LINEAR LINEAR</Name_array>
        <technique_common>
          <accessor source="#Armature_Arm_R_pose_matrix-interpolation-array" count="7" stride="1">
            <param name="INTERPOLATION" type="name"/>
          </accessor>
        </technique_common>
      </source>
      <sampler id="Armature_Arm_R_pose_matrix-sampler">
        <input semantic="INPUT" source="#Armature_Arm_R_pose_matrix-input"/>
        <input semantic="OUTPUT" source="#Armature_Arm_R_pose_matrix-output"/>
        <input semantic="INTERPOLATION" source="#Armature_Arm_R_pose_matrix-interpolation"/>
      </sampler>
      <channel source="#Armature_Arm_R_pose_matrix-sampler" target="Armature_Arm_R/transform"/>
    </animation>
    <animation id="Armature_Hand_R_pose_matrix">
      <source id="Armature_Hand_R_pose_matrix-input">
        <float_array id="Armature_Hand_R_pose_matrix-input-array" count="7">0 0.1833333 0.2166666 0.3833333 0.5666667 0.6 0.7666667</float_array>
        <technique_common>
          <accessor source="#Armature_Hand_R_pose_matrix-input-array" count="7" stride="1">
            <param name="TIME" type="float"/>
          </accessor>
        </technique_common>
      </source>
      <source id="Armature_Hand_R_pose_matrix-output">
        <float_array id="Armature_Hand_R_pose_matrix-output-array" count="112">0.9994395 -0.03279418 0.006736681 5.96046e-8 0.02541916 0.6123564 -0.7901733 0.3000002 0.02178796 0.7899015 0.6128467 0 0 0 0 1 0.9994395 -0.03279418 0.006736681 5.96046e-8 0.02541916 0.6123564 -0.7901733 0.3000002 0.02178796 0.7899015 0.6128467 0 0 0 0 1 0.9994395 -0.03279418 0.006736681 5.96046e-8 0.02541916 0.6123564 -0.7901733 0.3000002 0.02178796 0.7899015 0.6128467 0 0 0 0 1 0.9994395 -0.03279418 0.006736681 5.96046e-8 0.02541916 0.6123564 -0.7901733 0.3000002 0.02178796 0.7899015 0.6128467 0 0 0 0 1 0.9994395 -0.03279418 0.006736681 5.96046e-8 0.02541916 0.6123564 -0.7901733 0.3000002 0.02178796 0.7899015 0.6128467 0 0 0 0 1 0.9994395 -0.03279418 0.006736681 5.96046e-8 0.02541916 0.6123564 -0.7901733 0.3000002 0.02178796 0.7899015 0.6128467 0 0 0 0 1 0.9994395 -0.03279418 0.006736681 5.96046e-8 0.02541916 0.6123564 -0.7901733 0.3000002 0.02178796 0.7899015 0.6128467 0 0 0 0 1</float_array>
        <technique_common>
          <accessor source="#Armature_Hand_R_pose_matrix-output-array" count="7" stride="16">
            <param name="TRANSFORM" type="float4x4"/>
          </accessor>
        </technique_common>
      </source>
      <source id="Armature_Hand_R_pose_matrix-interpolation">
        <Name_array id="Armature_Hand_R_pose_matrix-interpolation-array" count="7">LINEAR LINEAR LINEAR LINEAR LINEAR LINEAR LINEAR</Name_array>
        <technique_common>
          <accessor source="#Armature_Hand_R_pose_matrix-interpolation-array" count="7" stride="1">
            <param name="INTERPOLATION" type="name"/>
          </accessor>
        </technique_common>
      </source>
      <sampler id="Armature_Hand_R_pose_matrix-sampler">
        <input semantic="INPUT" source="#Armature_Hand_R_pose_matrix-input"/>
        <input semantic="OUTPUT" source="#Armature_Hand_R_pose_matrix-output"/>
        <input semantic="INTERPOLATION" source="#Armature_Hand_R_pose_matrix-interpolation"/>
      </sampler>
      <channel source="#Armature_Hand_R_pose_matrix-sampler" target="Armature_Hand_R/transform"/>
    </animation>
    <animation id="Armature_Tool_R_pose_matrix">
      <source id="Armature_Tool_R_pose_matrix-input">
        <float_array id="Armature_Tool_R_pose_matrix-input-array" count="7">0 0.1833333 0.2166666 0.3833333 0.5666667 0.6 0.7666667</float_array>
        <technique_common>
          <accessor source="#Armature_Tool_R_pose_matrix-input-array" count="7" stride="1">
            <param name="TIME" type="float"/>
          </accessor>
        </technique_common>
      </source>
      <source id="Armature_Tool_R_pose_matrix-output">
        <float_array id="Armature_Tool_R_pose_matrix-output-array" count="112">1 4.47035e-8 2.38419e-7 0 2.23517e-8 -0.999836 0.0181223 0.2728581 2.45869e-7 -0.01812227 -0.9992438 2.98023e-8 0 0 0 1 1 4.47035e-8 2.38419e-7 0 2.23517e-8 -0.999836 0.0181223 0.2728581 2.45869e-7 -0.01812227 -0.9992438 2.98023e-8 0 0 0 1 1 4.47035e-8 2.38419e-7 0 2.23517e-8 -0.999836 0.0181223 0.2728581 2.45869e-7 -0.01812227 -0.9992438 2.98023e-8 0 0 0 1 1 4.47035e-8 2.38419e-7 0 2.23517e-8 -0.999836 0.0181223 0.2728581 2.45869e-7 -0.01812227 -0.9992438 2.98023e-8 0 0 0 1 1 4.47035e-8 2.38419e-7 0 2.23517e-8 -0.999836 0.0181223 0.2728581 2.45869e-7 -0.01812227 -0.9992438 2.98023e-8 0 0 0 1 1 4.47035e-8 2.38419e-7 0 2.23517e-8 -0.999836 0.0181223 0.2728581 2.45869e-7 -0.01812227 -0.9992438 2.98023e-8 0 0 0 1 1 4.47035e-8 2.38419e-7 0 2.23517e-8 -0.999836 0.0181223 0.2728581 2.45869e-7 -0.01812227 -0.9992438 2.98023e-8 0 0 0 1</float_array>
        <technique_common>
          <accessor source="#Armature_Tool_R_pose_matrix-output-array" count="7" stride="16">
            <param name="TRANSFORM" type="float4x4"/>
          </accessor>
        </technique_common>
      </source>
      <source id="Armature_Tool_R_pose_matrix-interpolation">
        <Name_array id="Armature_Tool_R_pose_matrix-interpolation-array" count="7">LINEAR LINEAR LINEAR LINEAR LINEAR LINEAR LINEAR</Name_array>
        <technique_common>
          <accessor source="#Armature_Tool_R_pose_matrix-interpolation-array" count="7" stride="1">
            <param name="INTERPOLATION" type="name"/>
          </accessor>
        </technique_common>
      </source>
      <sampler id="Armature_Tool_R_pose_matrix-sampler">
        <input semantic="INPUT" source="#Armature_Tool_R_pose_matrix-input"/>
        <input semantic="OUTPUT" source="#Armature_Tool_R_pose_matrix-output"/>
        <input semantic="INTERPOLATION" source="#Armature_Tool_R_pose_matrix-interpolation"/>
      </sampler>
      <channel source="#Armature_Tool_R_pose_matrix-sampler" target="Armature_Tool_R/transform"/>
    </animation>
    <animation id="Armature_Elbow_R_pose_matrix">
      <source id="Armature_Elbow_R_pose_matrix-input">
        <float_array id="Armature_Elbow_R_pose_matrix-input-array" count="7">0 0.1833333 0.2166666 0.3833333 0.5666667 0.6 0.7666667</float_array>
        <technique_common>
          <accessor source="#Armature_Elbow_R_pose_matrix-input-array" count="7" stride="1">
            <param name="TIME" type="float"/>
          </accessor>
        </technique_common>
      </source>
      <source id="Armature_Elbow_R_pose_matrix-output">
        <float_array id="Armature_Elbow_R_pose_matrix-output-array" count="112">-1 7.45058e-8 -4.09782e-8 -0.001666367 1.49012e-8 0 -0.9999999 0.3885374 -1.93715e-7 -1 5.96046e-8 -0.002773762 0 0 0 1 -1 7.45058e-8 -4.09782e-8 -0.001666367 1.49012e-8 0 -0.9999999 0.3885374 -1.93715e-7 -1 5.96046e-8 -0.002773762 0 0 0 1 -1 7.45058e-8 -4.09782e-8 -0.001666367 1.49012e-8 0 -0.9999999 0.3885374 -1.93715e-7 -1 5.96046e-8 -0.002773762 0 0 0 1 -1 7.45058e-8 -4.09782e-8 -0.001666367 1.49012e-8 0 -0.9999999 0.3885374 -1.93715e-7 -1 5.96046e-8 -0.002773762 0 0 0 1 -1 7.45058e-8 -4.09782e-8 -0.001666367 1.49012e-8 0 -0.9999999 0.3885374 -1.93715e-7 -1 5.96046e-8 -0.002773762 0 0 0 1 -1 7.45058e-8 -4.09782e-8 -0.001666367 1.49012e-8 0 -0.9999999 0.3885374 -1.93715e-7 -1 5.96046e-8 -0.002773762 0 0 0 1 -1 7.45058e-8 -4.09782e-8 -0.001666367 1.49012e-8 0 -0.9999999 0.3885374 -1.93715e-7 -1 5.96046e-8 -0.002773762 0 0 0 1</float_array>
        <technique_common>
          <accessor source="#Armature_Elbow_R_pose_matrix-output-array" count="7" stride="16">
            <param name="TRANSFORM" type="float4x4"/>
          </accessor>
        </technique_common>
      </source>
      <source id="Armature_Elbow_R_pose_matrix-interpolation">
        <Name_array id="Armature_Elbow_R_pose_matrix-interpolation-array" count="7">LINEAR LINEAR LINEAR LINEAR LINEAR LINEAR LINEAR</Name_array>
        <technique_common>
          <accessor source="#Armature_Elbow_R_pose_matrix-interpolation-array" count="7" stride="1">
            <param name="INTERPOLATION" type="name"/>
          </accessor>
        </technique_common>
      </source>
      <sampler id="Armature_Elbow_R_pose_matrix-sampler">
        <input semantic="INPUT" source="#Armature_Elbow_R_pose_matrix-input"/>
        <input semantic="OUTPUT" source="#Armature_Elbow_R_pose_matrix-output"/>
        <input semantic="INTERPOLATION" source="#Armature_Elbow_R_pose_matrix-interpolation"/>
      </sampler>
      <channel source="#Armature_Elbow_R_pose_matrix-sampler" target="Armature_Elbow_R/transform"/>
    </animation>
    <animation id="Armature_Shoulder_L_pose_matrix">
      <source id="Armature_Shoulder_L_pose_matrix-input">
        <float_array id="Armature_Shoulder_L_pose_matrix-input-array" count="7">0 0.1833333 0.2166666 0.3833333 0.5666667 0.6 0.7666667</float_array>
        <technique_common>
          <accessor source="#Armature_Shoulder_L_pose_matrix-input-array" count="7" stride="1">
            <param name="TIME" type="float"/>
          </accessor>
        </technique_common>
      </source>
      <source id="Armature_Shoulder_L_pose_matrix-output">
        <float_array id="Armature_Shoulder_L_pose_matrix-output-array" count="112">0.03702493 -0.952429 -0.302503 0 0.004152775 -0.3025613 0.9531208 0.3999998 -0.9993057 -0.03654544 -0.007247061 -1.19209e-7 0 0 0 1 0.03702493 -0.952429 -0.302503 0 0.004152775 -0.3025613 0.9531208 0.3999998 -0.9993057 -0.03654544 -0.007247061 -1.19209e-7 0 0 0 1 0.03702493 -0.952429 -0.302503 0 0.004152775 -0.3025613 0.9531208 0.3999998 -0.9993057 -0.03654544 -0.007247061 -1.19209e-7 0 0 0 1 0.03702493 -0.952429 -0.302503 0 0.004152775 -0.3025613 0.9531208 0.3999998 -0.9993057 -0.03654544 -0.007247061 -1.19209e-7 0 0 0 1 0.03702493 -0.952429 -0.302503 0 0.004152775 -0.3025613 0.9531208 0.3999998 -0.9993057 -0.03654544 -0.007247061 -1.19209e-7 0 0 0 1 0.03702493 -0.952429 -0.302503 0 0.004152775 -0.3025613 0.9531208 0.3999998 -0.9993057 -0.03654544 -0.007247061 -1.19209e-7 0 0 0 1 0.03702493 -0.952429 -0.302503 0 0.004152775 -0.3025613 0.9531208 0.3999998 -0.9993057 -0.03654544 -0.007247061 -1.19209e-7 0 0 0 1</float_array>
        <technique_common>
          <accessor source="#Armature_Shoulder_L_pose_matrix-output-array" count="7" stride="16">
            <param name="TRANSFORM" type="float4x4"/>
          </accessor>
        </technique_common>
      </source>
      <source id="Armature_Shoulder_L_pose_matrix-interpolation">
        <Name_array id="Armature_Shoulder_L_pose_matrix-interpolation-array" count="7">LINEAR LINEAR LINEAR LINEAR LINEAR LINEAR LINEAR</Name_array>
        <technique_common>
          <accessor source="#Armature_Shoulder_L_pose_matrix-interpolation-array" count="7" stride="1">
            <param name="INTERPOLATION" type="name"/>
          </accessor>
        </technique_common>
      </source>
      <sampler id="Armature_Shoulder_L_pose_matrix-sampler">
        <input semantic="INPUT" source="#Armature_Shoulder_L_pose_matrix-input"/>
        <input semantic="OUTPUT" source="#Armature_Shoulder_L_pose_matrix-output"/>
        <input semantic="INTERPOLATION" source="#Armature_Shoulder_L_pose_matrix-interpolation"/>
      </sampler>
      <channel source="#Armature_Shoulder_L_pose_matrix-sampler" target="Armature_Shoulder_L/transform"/>
    </animation>
    <animation id="Armature_Arm_L_pose_matrix">
      <source id="Armature_Arm_L_pose_matrix-input">
        <float_array id="Armature_Arm_L_pose_matrix-input-array" count="7">0 0.1833333 0.2166666 0.3833333 0.5666667 0.6 0.7666667</float_array>
        <technique_common>
          <accessor source="#Armature_Arm_L_pose_matrix-input-array" count="7" stride="1">
            <param name="TIME" type="float"/>
          </accessor>
        </technique_common>
      </source>
      <source id="Armature_Arm_L_pose_matrix-output">
        <float_array id="Armature_Arm_L_pose_matrix-output-array" count="112">-0.1461672 0.7945128 0.5893934 0 -0.6511338 0.3712684 -0.6619551 0.3938604 -0.744755 -0.4805298 0.4630669 -1.19209e-7 0 0 0 1 -0.1852254 0.6522102 0.7350602 0 -0.6838588 0.4516205 -0.573041 0.3938604 -0.7057114 -0.6088191 0.3623681 -1.19209e-7 0 0 0 1 -0.1852254 0.6522102 0.7350602 0 -0.6838588 0.4516205 -0.573041 0.3938604 -0.7057114 -0.6088191 0.3623681 -1.19209e-7 0 0 0 1 -0.1461672 0.7945128 0.5893934 0 -0.6511338 0.3712684 -0.6619551 0.3938604 -0.744755 -0.4805298 0.4630669 -1.19209e-7 0 0 0 1 -0.1852254 0.6522102 0.7350602 0 -0.6838588 0.4516205 -0.573041 0.3938604 -0.7057114 -0.6088191 0.3623681 -1.19209e-7 0 0 0 1 -0.1852254 0.6522102 0.7350602 0 -0.6838588 0.4516205 -0.573041 0.3938604 -0.7057114 -0.6088191 0.3623681 -1.19209e-7 0 0 0 1 -0.1461672 0.7945128 0.5893934 0 -0.6511338 0.3712684 -0.6619551 0.3938604 -0.744755 -0.4805298 0.4630669 -1.19209e-7 0 0 0 1</float_array>
        <technique_common>
          <accessor source="#Armature_Arm_L_pose_matrix-output-array" count="7" stride="16">
            <param name="TRANSFORM" type="float4x4"/>
          </accessor>
        </technique_common>
      </source>
      <source id="Armature_Arm_L_pose_matrix-interpolation">
        <Name_array id="Armature_Arm_L_pose_matrix-interpolation-array" count="7">LINEAR LINEAR LINEAR LINEAR LINEAR LINEAR LINEAR</Name_array>
        <technique_common>
          <accessor source="#Armature_Arm_L_pose_matrix-interpolation-array" count="7" stride="1">
            <param name="INTERPOLATION" type="name"/>
          </accessor>
        </technique_common>
      </source>
      <sampler id="Armature_Arm_L_pose_matrix-sampler">
        <input semantic="INPUT" source="#Armature_Arm_L_pose_matrix-input"/>
        <input semantic="OUTPUT" source="#Armature_Arm_L_pose_matrix-output"/>
        <input semantic="INTERPOLATION" source="#Armature_Arm_L_pose_matrix-interpolation"/>
      </sampler>
      <channel source="#Armature_Arm_L_pose_matrix-sampler" target="Armature_Arm_L/transform"/>
    </animation>
    <animation id="Armature_Hand_L_pose_matrix">
      <source id="Armature_Hand_L_pose_matrix-input">
        <float_array id="Armature_Hand_L_pose_matrix-input-array" count="7">0 0.1833333 0.2166666 0.3833333 0.5666667 0.6 0.7666667</float_array>
        <technique_common>
          <accessor source="#Armature_Hand_L_pose_matrix-input-array" count="7" stride="1">
            <param name="TIME" type="float"/>
          </accessor>
        </technique_common>
      </source>
      <source id="Armature_Hand_L_pose_matrix-output">
        <float_array id="Armature_Hand_L_pose_matrix-output-array" count="112">0.999802 -0.0147977 0.01330094 0 0.01989552 0.7514152 -0.6595296 0.3000002 -2.35043e-4 0.6596636 0.7515609 -2.98023e-8 0 0 0 1 0.999802 -0.0147977 0.01330094 0 0.01989552 0.7514152 -0.6595296 0.3000002 -2.35043e-4 0.6596636 0.7515609 -2.98023e-8 0 0 0 1 0.999802 -0.0147977 0.01330094 0 0.01989552 0.7514152 -0.6595296 0.3000002 -2.35043e-4 0.6596636 0.7515609 -2.98023e-8 0 0 0 1 0.999802 -0.0147977 0.01330094 0 0.01989552 0.7514152 -0.6595296 0.3000002 -2.35043e-4 0.6596636 0.7515609 -2.98023e-8 0 0 0 1 0.999802 -0.0147977 0.01330094 0 0.01989552 0.7514152 -0.6595296 0.3000002 -2.35043e-4 0.6596636 0.7515609 -2.98023e-8 0 0 0 1 0.999802 -0.0147977 0.01330094 0 0.01989552 0.7514152 -0.6595296 0.3000002 -2.35043e-4 0.6596636 0.7515609 -2.98023e-8 0 0 0 1 0.999802 -0.0147977 0.01330094 0 0.01989552 0.7514152 -0.6595296 0.3000002 -2.35043e-4 0.6596636 0.7515609 -2.98023e-8 0 0 0 1</float_array>
        <technique_common>
          <accessor source="#Armature_Hand_L_pose_matrix-output-array" count="7" stride="16">
            <param name="TRANSFORM" type="float4x4"/>
          </accessor>
        </technique_common>
      </source>
      <source id="Armature_Hand_L_pose_matrix-interpolation">
        <Name_array id="Armature_Hand_L_pose_matrix-interpolation-array" count="7">LINEAR LINEAR LINEAR LINEAR LINEAR LINEAR LINEAR</Name_array>
        <technique_common>
          <accessor source="#Armature_Hand_L_pose_matrix-interpolation-array" count="7" stride="1">
            <param name="INTERPOLATION" type="name"/>
          </accessor>
        </technique_common>
      </source>
      <sampler id="Armature_Hand_L_pose_matrix-sampler">
        <input semantic="INPUT" source="#Armature_Hand_L_pose_matrix-input"/>
        <input semantic="OUTPUT" source="#Armature_Hand_L_pose_matrix-output"/>
        <input semantic="INTERPOLATION" source="#Armature_Hand_L_pose_matrix-interpolation"/>
      </sampler>
      <channel source="#Armature_Hand_L_pose_matrix-sampler" target="Armature_Hand_L/transform"/>
    </animation>
    <animation id="Armature_Tool_L_pose_matrix">
      <source id="Armature_Tool_L_pose_matrix-input">
        <float_array id="Armature_Tool_L_pose_matrix-input-array" count="7">0 0.1833333 0.2166666 0.3833333 0.5666667 0.6 0.7666667</float_array>
        <technique_common>
          <accessor source="#Armature_Tool_L_pose_matrix-input-array" count="7" stride="1">
            <param name="TIME" type="float"/>
          </accessor>
        </technique_common>
      </source>
      <source id="Armature_Tool_L_pose_matrix-output">
        <float_array id="Armature_Tool_L_pose_matrix-output-array" count="112">1 2.98023e-8 2.98023e-7 0 7.45058e-8 -0.9998356 0.01812235 0.2728579 2.38419e-7 -0.01812226 -0.9992476 0 0 0 0 1 1 2.98023e-8 2.98023e-7 0 7.45058e-8 -0.9998356 0.01812235 0.2728579 2.38419e-7 -0.01812226 -0.9992476 0 0 0 0 1 1 2.98023e-8 2.98023e-7 0 7.45058e-8 -0.9998356 0.01812235 0.2728579 2.38419e-7 -0.01812226 -0.9992476 0 0 0 0 1 1 2.98023e-8 2.98023e-7 0 7.45058e-8 -0.9998356 0.01812235 0.2728579 2.38419e-7 -0.01812226 -0.9992476 0 0 0 0 1 1 2.98023e-8 2.98023e-7 0 7.45058e-8 -0.9998356 0.01812235 0.2728579 2.38419e-7 -0.01812226 -0.9992476 0 0 0 0 1 1 2.98023e-8 2.98023e-7 0 7.45058e-8 -0.9998356 0.01812235 0.2728579 2.38419e-7 -0.01812226 -0.9992476 0 0 0 0 1 1 2.98023e-8 2.98023e-7 0 7.45058e-8 -0.9998356 0.01812235 0.2728579 2.38419e-7 -0.01812226 -0.9992476 0 0 0 0 1</float_array>
        <technique_common>
          <accessor source="#Armature_Tool_L_pose_matrix-output-array" count="7" stride="16">
            <param name="TRANSFORM" type="float4x4"/>
          </accessor>
        </technique_common>
      </source>
      <source id="Armature_Tool_L_pose_matrix-interpolation">
        <Name_array id="Armature_Tool_L_pose_matrix-interpolation-array" count="7">LINEAR LINEAR LINEAR LINEAR LINEAR LINEAR LINEAR</Name_array>
        <technique_common>
          <accessor source="#Armature_Tool_L_pose_matrix-interpolation-array" count="7" stride="1">
            <param name="INTERPOLATION" type="name"/>
          </accessor>
        </technique_common>
      </source>
      <sampler id="Armature_Tool_L_pose_matrix-sampler">
        <input semantic="INPUT" source="#Armature_Tool_L_pose_matrix-input"/>
        <input semantic="OUTPUT" source="#Armature_Tool_L_pose_matrix-output"/>
        <input semantic="INTERPOLATION" source="#Armature_Tool_L_pose_matrix-interpolation"/>
      </sampler>
      <channel source="#Armature_Tool_L_pose_matrix-sampler" target="Armature_Tool_L/transform"/>
    </animation>
    <animation id="Armature_Elbow_L_pose_matrix">
      <source id="Armature_Elbow_L_pose_matrix-input">
        <float_array id="Armature_Elbow_L_pose_matrix-input-array" count="7">0 0.1833333 0.2166666 0.3833333 0.5666667 0.6 0.7666667</float_array>
        <technique_common>
          <accessor source="#Armature_Elbow_L_pose_matrix-input-array" count="7" stride="1">
            <param name="TIME" type="float"/>
          </accessor>
        </technique_common>
      </source>
      <source id="Armature_Elbow_L_pose_matrix-output">
        <float_array id="Armature_Elbow_L_pose_matrix-output-array" count="112">-1 2.90573e-7 -4.47035e-8 -0.001233935 4.47035e-8 -6.70552e-8 -0.9999999 0.3685106 -2.10479e-7 -1 -3.72529e-8 -0.001545861 0 0 0 1 -1 2.90573e-7 -4.47035e-8 -0.001233935 4.47035e-8 -6.70552e-8 -0.9999999 0.3685106 -2.10479e-7 -1 -3.72529e-8 -0.001545861 0 0 0 1 -1 2.90573e-7 -4.47035e-8 -0.001233935 4.47035e-8 -6.70552e-8 -0.9999999 0.3685106 -2.10479e-7 -1 -3.72529e-8 -0.001545861 0 0 0 1 -1 2.90573e-7 -4.47035e-8 -0.001233935 4.47035e-8 -6.70552e-8 -0.9999999 0.3685106 -2.10479e-7 -1 -3.72529e-8 -0.001545861 0 0 0 1 -1 2.90573e-7 -4.47035e-8 -0.001233935 4.47035e-8 -6.70552e-8 -0.9999999 0.3685106 -2.10479e-7 -1 -3.72529e-8 -0.001545861 0 0 0 1 -1 2.90573e-7 -4.47035e-8 -0.001233935 4.47035e-8 -6.70552e-8 -0.9999999 0.3685106 -2.10479e-7 -1 -3.72529e-8 -0.001545861 0 0 0 1 -1 2.90573e-7 -4.47035e-8 -0.001233935 4.47035e-8 -6.70552e-8 -0.9999999 0.3685106 -2.10479e-7 -1 -3.72529e-8 -0.001545861 0 0 0 1</float_array>
        <technique_common>
          <accessor source="#Armature_Elbow_L_pose_matrix-output-array" count="7" stride="16">
            <param name="TRANSFORM" type="float4x4"/>
          </accessor>
        </technique_common>
      </source>
      <source id="Armature_Elbow_L_pose_matrix-interpolation">
        <Name_array id="Armature_Elbow_L_pose_matrix-interpolation-array" count="7">LINEAR LINEAR LINEAR LINEAR LINEAR LINEAR LINEAR</Name_array>
        <technique_common>
          <accessor source="#Armature_Elbow_L_pose_matrix-interpolation-array" count="7" stride="1">
            <param name="INTERPOLATION" type="name"/>
          </accessor>
        </technique_common>
      </source>
      <sampler id="Armature_Elbow_L_pose_matrix-sampler">
        <input semantic="INPUT" source="#Armature_Elbow_L_pose_matrix-input"/>
        <input semantic="OUTPUT" source="#Armature_Elbow_L_pose_matrix-output"/>
        <input semantic="INTERPOLATION" source="#Armature_Elbow_L_pose_matrix-interpolation"/>
      </sampler>
      <channel source="#Armature_Elbow_L_pose_matrix-sampler" target="Armature_Elbow_L/transform"/>
    </animation>
  </library_animations>
  <library_controllers/>
  <library_visual_scenes>
    <visual_scene id="Scene" name="Scene">
      <node id="Armature" name="Armature" type="NODE">
        <matrix sid="transform">1 0 0 2.17394e-5 0 1 0 -4.11466e-5 0 0 1 0.01021957 0 0 0 1</matrix>
        <node id="Armature_Root" name="Root" sid="Root" type="JOINT">
          <matrix sid="transform">1 0 0 -4.6045e-6 0 0 -1 9.46418e-4 0 1 0 0.7639716 0 0 0 1</matrix>
          <node id="Armature_Thigh_R" name="Thigh_R" sid="Thigh_R" type="JOINT">
            <matrix sid="transform">1 -4.77193e-7 -1.50996e-7 0.124994 -4.77193e-7 -1 3.97661e-7 -0.002830565 -1.50996e-7 -3.97661e-7 -1 -1.1839e-5 0 0 0 1</matrix>
            <node id="Armature_Leg_R" name="Leg_R" sid="Leg_R" type="JOINT">
              <matrix sid="transform">1 4.77193e-7 8.02679e-7 0 -4.77194e-7 1 3.97661e-7 0.3747202 -8.02679e-7 -3.97661e-7 1 0 0 0 0 1</matrix>
              <extra>
                <technique profile="blender">
                  <connect sid="connect" type="bool">1</connect>
                  <layer sid="layer" type="string">0</layer>
                  <roll sid="roll" type="float">6.51683e-7</roll>
                  <tip_x sid="tip_x" type="float">0</tip_x>
                  <tip_y sid="tip_y" type="float">0</tip_y>
                  <tip_z sid="tip_z" type="float">-0.375</tip_z>
                </technique>
              </extra>
            </node>
            <node id="Armature_Knee_R" name="Knee_R" sid="Knee_R" type="JOINT">
              <matrix sid="transform">1 1.50996e-7 -6.48983e-7 0 -6.48983e-7 3.97661e-7 -1 0.3747202 -1.50996e-7 1 3.57628e-7 -5.82077e-11 0 0 0 1</matrix>
              <extra>
                <technique profile="blender">
                  <layer sid="layer" type="string">0</layer>
                  <roll sid="roll" type="float">-1.71789e-7</roll>
                  <tip_x sid="tip_x" type="float">0</tip_x>
                  <tip_y sid="tip_y" type="float">0.09999996</tip_y>
                  <tip_z sid="tip_z" type="float">0</tip_z>
                </technique>
              </extra>
            </node>
            <extra>
              <technique profile="blender">
                <layer sid="layer" type="string">0</layer>
                <roll sid="roll" type="float">1.48862e-7</roll>
              </technique>
            </extra>
          </node>
          <node id="Armature_Thigh_L" name="Thigh_L" sid="Thigh_L" type="JOINT">
            <matrix sid="transform">1 -4.77193e-7 -1.50996e-7 -0.125006 -4.77193e-7 -1 3.17197e-7 -0.002830565 -1.50996e-7 -3.17197e-7 -1 -1.1854e-5 0 0 0 1</matrix>
            <node id="Armature_Leg_L" name="Leg_L" sid="Leg_L" type="JOINT">
              <matrix sid="transform">1 4.77193e-7 8.02679e-7 0 -4.77193e-7 1 3.17196e-7 0.3747203 -8.02679e-7 -3.17197e-7 1 0 0 0 0 1</matrix>
              <extra>
                <technique profile="blender">
                  <connect sid="connect" type="bool">1</connect>
                  <layer sid="layer" type="string">0</layer>
                  <roll sid="roll" type="float">6.51683e-7</roll>
                  <tip_x sid="tip_x" type="float">0</tip_x>
                  <tip_y sid="tip_y" type="float">0</tip_y>
                  <tip_z sid="tip_z" type="float">-0.375</tip_z>
                </technique>
              </extra>
            </node>
            <node id="Armature_Knee_L" name="Knee_L" sid="Knee_L" type="JOINT">
              <matrix sid="transform">1 1.50996e-7 -6.48983e-7 0 -6.48983e-7 3.17197e-7 -1 0.3747203 -1.50996e-7 1 3.57628e-7 0 0 0 0 1</matrix>
              <extra>
                <technique profile="blender">
                  <layer sid="layer" type="string">0</layer>
                  <roll sid="roll" type="float">-1.71789e-7</roll>
                  <tip_x sid="tip_x" type="float">0</tip_x>
                  <tip_y sid="tip_y" type="float">0.09999996</tip_y>
                  <tip_z sid="tip_z" type="float">0</tip_z>
                </technique>
              </extra>
            </node>
            <extra>
              <technique profile="blender">
                <layer sid="layer" type="string">0</layer>
                <roll sid="roll" type="float">1.71787e-7</roll>
              </technique>
            </extra>
          </node>
          <node id="Armature_Torso" name="Torso" sid="Torso" type="JOINT">
            <matrix sid="transform">1 0 0 0 0 1 0 0.05000013 0 0 1 0 0 0 0 1</matrix>
            <node id="Armature_Chest" name="Chest" sid="Chest" type="JOINT">
              <matrix sid="transform">1 1.52595e-7 -1.52595e-7 0 -1.52595e-7 1 2.72558e-7 0.2999997 1.52595e-7 -2.72558e-7 1 0 0 0 0 1</matrix>
              <node id="Armature_Head" name="Head" sid="Head" type="JOINT">
                <matrix sid="transform">1 -1.52595e-7 1.52595e-7 -6.1038e-8 1.52595e-7 1 -2.72558e-7 0.4 -1.52595e-7 2.72558e-7 1 1.09023e-7 0 0 0 1</matrix>
                <extra>
                  <technique profile="blender">
                    <connect sid="connect" type="bool">1</connect>
                    <layer sid="layer" type="string">0</layer>
                    <tip_x sid="tip_x" type="float">0</tip_x>
                    <tip_y sid="tip_y" type="float">0</tip_y>
                    <tip_z sid="tip_z" type="float">0.4449962</tip_z>
                  </technique>
                </extra>
              </node>
              <node id="Armature_Shoulder_R" name="Shoulder_R" sid="Shoulder_R" type="JOINT">
                <matrix sid="transform">2.05163e-7 0.9521141 0.3057426 -8.94106e-8 -7.76062e-7 -0.3057426 0.9521142 0.4 0.9999999 -3.57628e-7 6.72301e-7 1.72062e-7 0 0 0 1</matrix>
                <node id="Armature_Arm_R" name="Arm_R" sid="Arm_R" type="JOINT">
                  <matrix sid="transform">7.38973e-8 2.98023e-7 -1 0 0.9521143 0.3057428 1.93715e-7 0.3938605 0.3057427 -0.9521143 -3.8743e-7 1.2666e-7 0 0 0 1</matrix>
                  <node id="Armature_Hand_R" name="Hand_R" sid="Hand_R" type="JOINT">
                    <matrix sid="transform">1 6.07185e-8 2.31636e-7 -2.98023e-8 -8.58182e-8 0.9939375 0.1099474 0.3 -2.23556e-7 -0.1099474 0.9939374 -5.82077e-11 0 0 0 1</matrix>
                    <node id="Armature_Tool_R" name="Tool_R" sid="Tool_R" type="JOINT">
                      <matrix sid="transform">1 4.32067e-9 2.38236e-7 5.96046e-8 2.60236e-12 -0.9998358 0.01812222 0.2728585 2.38131e-7 -0.01812222 -0.9992322 1.49012e-8 0 0 0 1</matrix>
                      <extra>
                        <technique profile="blender">
                          <layer sid="layer" type="string">0</layer>
                          <tip_x sid="tip_x" type="float">0</tip_x>
                          <tip_y sid="tip_y" type="float">0.02999997</tip_y>
                          <tip_z sid="tip_z" type="float">0.3250002</tip_z>
                        </technique>
                      </extra>
                    </node>
                    <extra>
                      <technique profile="blender">
                        <connect sid="connect" type="bool">1</connect>
                        <layer sid="layer" type="string">0</layer>
                        <roll sid="roll" type="float">2.38419e-7</roll>
                        <tip_x sid="tip_x" type="float">0</tip_x>
                        <tip_y sid="tip_y" type="float">-0.02999997</tip_y>
                        <tip_z sid="tip_z" type="float">-0.2712038</tip_z>
                      </technique>
                    </extra>
                  </node>
                  <node id="Armature_Elbow_R" name="Elbow_R" sid="Elbow_R" type="JOINT">
                    <matrix sid="transform">-1 1.34175e-8 -1.64413e-7 1.19209e-7 1.64413e-7 -7.54001e-8 -1 0.3000001 -1.34175e-8 -1 3.1591e-8 -6.63567e-8 0 0 0 1</matrix>
                    <extra>
                      <technique profile="blender">
                        <layer sid="layer" type="string">0</layer>
                        <tip_x sid="tip_x" type="float">0</tip_x>
                        <tip_y sid="tip_y" type="float">-0.09999996</tip_y>
                        <tip_z sid="tip_z" type="float">0</tip_z>
                      </technique>
                    </extra>
                  </node>
                  <extra>
                    <technique profile="blender">
                      <connect sid="connect" type="bool">1</connect>
                      <layer sid="layer" type="string">0</layer>
                      <roll sid="roll" type="float">2.38419e-7</roll>
                    </technique>
                  </extra>
                </node>
                <extra>
                  <technique profile="blender">
                    <connect sid="connect" type="bool">1</connect>
                    <layer sid="layer" type="string">0</layer>
                    <roll sid="roll" type="float">0.310719</roll>
                  </technique>
                </extra>
              </node>
              <node id="Armature_Shoulder_L" name="Shoulder_L" sid="Shoulder_L" type="JOINT">
                <matrix sid="transform">-6.74758e-7 -0.9521142 -0.3057421 4.54747e-13 1.8917e-6 -0.3057421 0.9521143 0.3999996 -0.9999998 1.78814e-7 2.00187e-6 0 0 0 0 1</matrix>
                <node id="Armature_Arm_L" name="Arm_L" sid="Arm_L" type="JOINT">
                  <matrix sid="transform">-9.19767e-7 -1.54972e-6 1 0 -0.9521145 0.305742 -3.94881e-7 0.3938603 -0.3057419 -0.9521144 -1.78814e-6 -3.72529e-8 0 0 0 1</matrix>
                  <node id="Armature_Hand_L" name="Hand_L" sid="Hand_L" type="JOINT">
                    <matrix sid="transform">1 -4.48291e-8 -1.69501e-7 0 6.31935e-8 0.9939375 0.1099472 0.3000001 1.63544e-7 -0.1099472 0.9939374 -5.82077e-11 0 0 0 1</matrix>
                    <node id="Armature_Tool_L" name="Tool_L" sid="Tool_L" type="JOINT">
                      <matrix sid="transform">0.9999999 4.32068e-9 2.38581e-7 -2.98023e-8 -3.63798e-12 -0.9998359 0.0181222 0.2728584 2.38821e-7 -0.01812219 -1.00068 -8.9407e-8 0 0 0 1</matrix>
                      <extra>
                        <technique profile="blender">
                          <layer sid="layer" type="string">0</layer>
                          <tip_x sid="tip_x" type="float">0</tip_x>
                          <tip_y sid="tip_y" type="float">0.02999997</tip_y>
                          <tip_z sid="tip_z" type="float">0.3250001</tip_z>
                        </technique>
                      </extra>
                    </node>
                    <extra>
                      <technique profile="blender">
                        <connect sid="connect" type="bool">1</connect>
                        <layer sid="layer" type="string">0</layer>
                        <roll sid="roll" type="float">2.38419e-7</roll>
                        <tip_x sid="tip_x" type="float">0</tip_x>
                        <tip_y sid="tip_y" type="float">-0.02999997</tip_y>
                        <tip_z sid="tip_z" type="float">-0.2712038</tip_z>
                      </technique>
                    </extra>
                  </node>
                  <node id="Armature_Elbow_L" name="Elbow_L" sid="Elbow_L" type="JOINT">
                    <matrix sid="transform">-1 4.00518e-7 -1.11035e-8 -2.98023e-8 1.11035e-8 -3.73568e-8 -1 0.3000002 -4.00518e-7 -1 -4.44959e-8 2.61352e-8 0 0 0 1</matrix>
                    <extra>
                      <technique profile="blender">
                        <layer sid="layer" type="string">0</layer>
                        <tip_x sid="tip_x" type="float">0</tip_x>
                        <tip_y sid="tip_y" type="float">-0.09999996</tip_y>
                        <tip_z sid="tip_z" type="float">0</tip_z>
                      </technique>
                    </extra>
                  </node>
                  <extra>
                    <technique profile="blender">
                      <connect sid="connect" type="bool">1</connect>
                      <layer sid="layer" type="string">0</layer>
                      <roll sid="roll" type="float">2.38419e-7</roll>
                    </technique>
                  </extra>
                </node>
                <extra>
                  <technique profile="blender">
                    <connect sid="connect" type="bool">1</connect>
                    <layer sid="layer" type="string">0</layer>
                    <roll sid="roll" type="float">-0.3107193</roll>
                  </technique>
                </extra>
              </node>
              <extra>
                <technique profile="blender">
                  <connect sid="connect" type="bool">1</connect>
                  <layer sid="layer" type="string">0</layer>
                  <roll sid="roll" type="float">0</roll>
                </technique>
              </extra>
            </node>
            <extra>
              <technique profile="blender">
                <connect sid="connect" type="bool">1</connect>
                <layer sid="layer" type="string">0</layer>
              </technique>
            </extra>
          </node>
          <extra>
            <technique profile="blender">
              <layer sid="layer" type="string">0</layer>
            </technique>
          </extra>
        </node>
      </node>
    </visual_scene>
  </library_visual_scenes>
  <scene>
    <instance_visual_scene url="#Scene"/>
  </scene>
</COLLADA>