<?xml version="1.0" encoding="utf-8"?>
<COLLADA xmlns="http://www.collada.org/2005/11/COLLADASchema" version="1.4.1" xmlns:xsi="http://www.w3.org/2001/XMLSchema-instance">
  <asset>
    <contributor>
      <author>Blender User</author>
      <authoring_tool>Blender 2.79.0 commit date:2018-03-22, commit time:14:10, hash:f4dc9f9d68b</authoring_tool>
    </contributor>
    <created>2021-01-22T23:14:14</created>
    <modified>2021-01-22T23:14:14</modified>
    <unit name="meter" meter="1"/>
    <up_axis>Z_UP</up_axis>
  </asset>
  <library_images/>
  <library_animations>
    <animation id="Armature_Root_pose_matrix">
      <source id="Armature_Root_pose_matrix-input">
        <float_array id="Armature_Root_pose_matrix-input-array" count="7">0 0.25 0.5 0.55 0.8 1.05 1.1</float_array>
        <technique_common>
          <accessor source="#Armature_Root_pose_matrix-input-array" count="7" stride="1">
            <param name="TIME" type="float"/>
          </accessor>
        </technique_common>
      </source>
      <source id="Armature_Root_pose_matrix-output">
        <float_array id="Armature_Root_pose_matrix-output-array" count="112">1 0 0 -4.60446e-6 0 1 1.34359e-7 -0.3650168 0 -1.34359e-7 1 0.3678802 0 0 0 1 1 0 0 -4.60446e-6 0 1 1.34359e-7 -0.3650168 0 -1.34359e-7 1 0.3678802 0 0 0 1 1 0 0 -4.60446e-6 0 1 1.34359e-7 -0.3650168 0 -1.34359e-7 1 0.3678802 0 0 0 1 1 0 0 -4.60446e-6 0 1 1.34359e-7 -0.3650168 0 -1.34359e-7 1 0.3678802 0 0 0 1 1 0 0 -4.60446e-6 0 1 1.34359e-7 -0.3650168 0 -1.34359e-7 1 0.3678802 0 0 0 1 1 0 0 -4.60446e-6 0 1 1.34359e-7 -0.3650168 0 -1.34359e-7 1 0.3678802 0 0 0 1 1 0 0 -4.60446e-6 0 1 1.34359e-7 -0.3650168 0 -1.34359e-7 1 0.3678802 0 0 0 1</float_array>
        <technique_common>
          <accessor source="#Armature_Root_pose_matrix-output-array" count="7" stride="16">
            <param name="TRANSFORM" type="float4x4"/>
          </accessor>
        </technique_common>
      </source>
      <source id="Armature_Root_pose_matrix-interpolation">
        <Name_array id="Armature_Root_pose_matrix-interpolation-array" count="7">LINEAR LINEAR LINEAR LINEAR LINEAR LINEAR LINEAR</Name_array>
        <technique_common>
          <accessor source="#Armature_Root_pose_matrix-interpolation-array" count="7" stride="1">
            <param name="INTERPOLATION" type="name"/>
          </accessor>
        </technique_common>
      </source>
      <sampler id="Armature_Root_pose_matrix-sampler">
        <input semantic="INPUT" source="#Armature_Root_pose_matrix-input"/>
        <input semantic="OUTPUT" source="#Armature_Root_pose_matrix-output"/>
        <input semantic="INTERPOLATION" source="#Armature_Root_pose_matrix-interpolation"/>
      </sampler>
      <channel source="#Armature_Root_pose_matrix-sampler" target="Armature_Root/transform"/>
    </animation>
    <animation id="Armature_Thigh_R_pose_matrix">
      <source id="Armature_Thigh_R_pose_matrix-input">
        <float_array id="Armature_Thigh_R_pose_matrix-input-array" count="7">0 0.25 0.5 0.55 0.8 1.05 1.1</float_array>
        <technique_common>
          <accessor source="#Armature_Thigh_R_pose_matrix-input-array" count="7" stride="1">
            <param name="TIME" type="float"/>
          </accessor>
        </technique_common>
      </source>
      <source id="Armature_Thigh_R_pose_matrix-output">
        <float_array id="Armature_Thigh_R_pose_matrix-output-array" count="112">0.9998456 0.01754628 2.65278e-8 0.1249939 0.0150688 -0.858649 0.5123395 -0.002830744 0.008989683 -0.5122591 -0.8587835 -1.18315e-5 0 0 0 1 0.9996063 0.0273483 0.006203519 0.1249939 0.0272064 -0.8920981 -0.4510183 -0.002830744 -0.00680046 0.4510091 -0.8924931 -1.18315e-5 0 0 0 1 0.9998327 0.01826508 6.57647e-5 0.1249939 0.01618867 -0.8878043 0.4599328 -0.002830744 0.008459102 -0.4598536 -0.8879542 -1.18315e-5 0 0 0 1 0.9998456 0.01754628 2.65278e-8 0.1249939 0.0150688 -0.858649 0.5123395 -0.002830744 0.008989683 -0.5122591 -0.8587835 -1.18315e-5 0 0 0 1 0.9996063 0.0273483 0.006203519 0.1249939 0.0272064 -0.8920981 -0.4510183 -0.002830744 -0.00680046 0.4510091 -0.8924931 -1.18315e-5 0 0 0 1 0.9998327 0.01826508 6.57647e-5 0.1249939 0.01618867 -0.8878043 0.4599328 -0.002830744 0.008459102 -0.4598536 -0.8879542 -1.18315e-5 0 0 0 1 0.9998456 0.01754628 2.65278e-8 0.1249939 0.0150688 -0.858649 0.5123395 -0.002830744 0.008989683 -0.5122591 -0.8587835 -1.18315e-5 0 0 0 1</float_array>
        <technique_common>
          <accessor source="#Armature_Thigh_R_pose_matrix-output-array" count="7" stride="16">
            <param name="TRANSFORM" type="float4x4"/>
          </accessor>
        </technique_common>
      </source>
      <source id="Armature_Thigh_R_pose_matrix-interpolation">
        <Name_array id="Armature_Thigh_R_pose_matrix-interpolation-array" count="7">LINEAR LINEAR LINEAR LINEAR LINEAR LINEAR LINEAR</Name_array>
        <technique_common>
          <accessor source="#Armature_Thigh_R_pose_matrix-interpolation-array" count="7" stride="1">
            <param name="INTERPOLATION" type="name"/>
          </accessor>
        </technique_common>
      </source>
      <sampler id="Armature_Thigh_R_pose_matrix-sampler">
        <input semantic="INPUT" source="#Armature_Thigh_R_pose_matrix-input"/>
        <input semantic="OUTPUT" source="#Armature_Thigh_R_pose_matrix-output"/>
        <input semantic="INTERPOLATION" source="#Armature_Thigh_R_pose_matrix-interpolation"/>
      </sampler>
      <channel source="#Armature_Thigh_R_pose_matrix-sampler" target="Armature_Thigh_R/transform"/>
    </animation>
    <animation id="Armature_Leg_R_pose_matrix">
      <source id="Armature_Leg_R_pose_matrix-input">
        <float_array id="Armature_Leg_R_pose_matrix-input-array" count="7">0 0.25 0.5 0.55 0.8 1.05 1.1</float_array>
        <technique_common>
          <accessor source="#Armature_Leg_R_pose_matrix-input-array" count="7" stride="1">
            <param name="TIME" type="float"/>
          </accessor>
        </technique_common>
      </source>
      <source id="Armature_Leg_R_pose_matrix-output">
        <float_array id="Armature_Leg_R_pose_matrix-output-array" count="112">1 2.39816e-7 7.12462e-7 -1.49012e-8 -2.38884e-7 1.000002 1.78814e-7 0.3747202 -7.11065e-7 -2.08616e-7 0.999998 5.96046e-8 0 0 0 1 1 1.55414e-7 7.32951e-7 -1.49012e-8 -6.10948e-7 0.7366214 0.6763057 0.3747202 -4.32599e-7 -0.6763083 0.7366185 5.96046e-8 0 0 0 1 1 2.36556e-7 5.99772e-7 -1.49012e-8 -2.6403e-7 0.998989 0.04499978 0.3747202 -5.85802e-7 -0.04499999 0.9989851 5.96046e-8 0 0 0 1 1 2.39816e-7 7.12462e-7 -1.49012e-8 -2.38884e-7 1.000002 1.78814e-7 0.3747202 -7.11065e-7 -2.08616e-7 0.999998 5.96046e-8 0 0 0 1 1 1.55414e-7 7.32951e-7 -1.49012e-8 -6.10948e-7 0.7366214 0.6763057 0.3747202 -4.32599e-7 -0.6763083 0.7366185 5.96046e-8 0 0 0 1 1 2.36556e-7 5.99772e-7 -1.49012e-8 -2.6403e-7 0.998989 0.04499978 0.3747202 -5.85802e-7 -0.04499999 0.9989851 5.96046e-8 0 0 0 1 1 2.39816e-7 7.12462e-7 -1.49012e-8 -2.38884e-7 1.000002 1.78814e-7 0.3747202 -7.11065e-7 -2.08616e-7 0.999998 5.96046e-8 0 0 0 1</float_array>
        <technique_common>
          <accessor source="#Armature_Leg_R_pose_matrix-output-array" count="7" stride="16">
            <param name="TRANSFORM" type="float4x4"/>
          </accessor>
        </technique_common>
      </source>
      <source id="Armature_Leg_R_pose_matrix-interpolation">
        <Name_array id="Armature_Leg_R_pose_matrix-interpolation-array" count="7">LINEAR LINEAR LINEAR LINEAR LINEAR LINEAR LINEAR</Name_array>
        <technique_common>
          <accessor source="#Armature_Leg_R_pose_matrix-interpolation-array" count="7" stride="1">
            <param name="INTERPOLATION" type="name"/>
          </accessor>
        </technique_common>
      </source>
      <sampler id="Armature_Leg_R_pose_matrix-sampler">
        <input semantic="INPUT" source="#Armature_Leg_R_pose_matrix-input"/>
        <input semantic="OUTPUT" source="#Armature_Leg_R_pose_matrix-output"/>
        <input semantic="INTERPOLATION" source="#Armature_Leg_R_pose_matrix-interpolation"/>
      </sampler>
      <channel source="#Armature_Leg_R_pose_matrix-sampler" target="Armature_Leg_R/transform"/>
    </animation>
    <animation id="Armature_Knee_R_pose_matrix">
      <source id="Armature_Knee_R_pose_matrix-input">
        <float_array id="Armature_Knee_R_pose_matrix-input-array" count="7">0 0.25 0.5 0.55 0.8 1.05 1.1</float_array>
        <technique_common>
          <accessor source="#Armature_Knee_R_pose_matrix-input-array" count="7" stride="1">
            <param name="TIME" type="float"/>
          </accessor>
        </technique_common>
      </source>
      <source id="Armature_Knee_R_pose_matrix-output">
        <float_array id="Armature_Knee_R_pose_matrix-output-array" count="112">1 6.10016e-8 -2.39816e-7 -1.49012e-8 -2.37953e-7 6.25849e-7 -0.9999999 0.3747202 -5.96046e-8 1 5.96046e-7 5.96046e-8 0 0 0 1 1 6.10016e-8 -2.39816e-7 -1.31913e-4 -2.37953e-7 6.25849e-7 -0.9999999 0.4081689 -5.96046e-8 1 5.96046e-7 -9.12547e-4 0 0 0 1 1 6.10016e-8 -2.39816e-7 -1.49012e-8 -2.37953e-7 6.25849e-7 -0.9999999 0.3747202 -5.96046e-8 1 5.96046e-7 5.96046e-8 0 0 0 1 1 6.10016e-8 -2.39816e-7 -1.49012e-8 -2.37953e-7 6.25849e-7 -0.9999999 0.3747202 -5.96046e-8 1 5.96046e-7 5.96046e-8 0 0 0 1 1 6.10016e-8 -2.39816e-7 1.57282e-5 -2.37953e-7 6.25849e-7 -0.9999999 0.4016684 -5.96046e-8 1 5.96046e-7 4.50969e-4 0 0 0 1 1 6.10016e-8 -2.39816e-7 -1.49012e-8 -2.37953e-7 6.25849e-7 -0.9999999 0.3747202 -5.96046e-8 1 5.96046e-7 5.96046e-8 0 0 0 1 1 6.10016e-8 -2.39816e-7 -1.49012e-8 -2.37953e-7 6.25849e-7 -0.9999999 0.3747202 -5.96046e-8 1 5.96046e-7 5.96046e-8 0 0 0 1</float_array>
        <technique_common>
          <accessor source="#Armature_Knee_R_pose_matrix-output-array" count="7" stride="16">
            <param name="TRANSFORM" type="float4x4"/>
          </accessor>
        </technique_common>
      </source>
      <source id="Armature_Knee_R_pose_matrix-interpolation">
        <Name_array id="Armature_Knee_R_pose_matrix-interpolation-array" count="7">LINEAR LINEAR LINEAR LINEAR LINEAR LINEAR LINEAR</Name_array>
        <technique_common>
          <accessor source="#Armature_Knee_R_pose_matrix-interpolation-array" count="7" stride="1">
            <param name="INTERPOLATION" type="name"/>
          </accessor>
        </technique_common>
      </source>
      <sampler id="Armature_Knee_R_pose_matrix-sampler">
        <input semantic="INPUT" source="#Armature_Knee_R_pose_matrix-input"/>
        <input semantic="OUTPUT" source="#Armature_Knee_R_pose_matrix-output"/>
        <input semantic="INTERPOLATION" source="#Armature_Knee_R_pose_matrix-interpolation"/>
      </sampler>
      <channel source="#Armature_Knee_R_pose_matrix-sampler" target="Armature_Knee_R/transform"/>
    </animation>
    <animation id="Armature_Thigh_L_pose_matrix">
      <source id="Armature_Thigh_L_pose_matrix-input">
        <float_array id="Armature_Thigh_L_pose_matrix-input-array" count="7">0 0.25 0.5 0.55 0.8 1.05 1.1</float_array>
        <technique_common>
          <accessor source="#Armature_Thigh_L_pose_matrix-input-array" count="7" stride="1">
            <param name="TIME" type="float"/>
          </accessor>
        </technique_common>
      </source>
      <source id="Armature_Thigh_L_pose_matrix-output">
        <float_array id="Armature_Thigh_L_pose_matrix-output-array" count="112">0.9993364 -0.03545413 -0.008271768 -0.1250061 -0.03439122 -0.8448097 -0.5339602 -0.002830744 0.01194304 0.5338914 -0.8454683 -1.18315e-5 0 0 0 1 0.9995971 -0.02836154 4.21913e-8 -0.1250061 -0.0242624 -0.8551364 0.5178347 -0.002830744 -0.01468654 -0.5176263 -0.8554805 -1.18315e-5 0 0 0 1 0.9993462 -0.0353274 -0.007604585 -0.1250061 -0.03466989 -0.877986 -0.4774289 -0.002830744 0.01018962 0.4773814 -0.8786367 -1.18315e-5 0 0 0 1 0.9993364 -0.03545413 -0.008271768 -0.1250061 -0.03439122 -0.8448097 -0.5339602 -0.002830744 0.01194304 0.5338914 -0.8454683 -1.18315e-5 0 0 0 1 0.9995971 -0.02836154 4.21913e-8 -0.1250061 -0.0242624 -0.8551364 0.5178347 -0.002830744 -0.01468654 -0.5176263 -0.8554805 -1.18315e-5 0 0 0 1 0.9993462 -0.0353274 -0.007604585 -0.1250061 -0.03466989 -0.877986 -0.4774289 -0.002830744 0.01018962 0.4773814 -0.8786367 -1.18315e-5 0 0 0 1 0.9993364 -0.03545413 -0.008271768 -0.1250061 -0.03439122 -0.8448097 -0.5339602 -0.002830744 0.01194304 0.5338914 -0.8454683 -1.18315e-5 0 0 0 1</float_array>
        <technique_common>
          <accessor source="#Armature_Thigh_L_pose_matrix-output-array" count="7" stride="16">
            <param name="TRANSFORM" type="float4x4"/>
          </accessor>
        </technique_common>
      </source>
      <source id="Armature_Thigh_L_pose_matrix-interpolation">
        <Name_array id="Armature_Thigh_L_pose_matrix-interpolation-array" count="7">LINEAR LINEAR LINEAR LINEAR LINEAR LINEAR LINEAR</Name_array>
        <technique_common>
          <accessor source="#Armature_Thigh_L_pose_matrix-interpolation-array" count="7" stride="1">
            <param name="INTERPOLATION" type="name"/>
          </accessor>
        </technique_common>
      </source>
      <sampler id="Armature_Thigh_L_pose_matrix-sampler">
        <input semantic="INPUT" source="#Armature_Thigh_L_pose_matrix-input"/>
        <input semantic="OUTPUT" source="#Armature_Thigh_L_pose_matrix-output"/>
        <input semantic="INTERPOLATION" source="#Armature_Thigh_L_pose_matrix-interpolation"/>
      </sampler>
      <channel source="#Armature_Thigh_L_pose_matrix-sampler" target="Armature_Thigh_L/transform"/>
    </animation>
    <animation id="Armature_Leg_L_pose_matrix">
      <source id="Armature_Leg_L_pose_matrix-input">
        <float_array id="Armature_Leg_L_pose_matrix-input-array" count="7">0 0.25 0.5 0.55 0.8 1.05 1.1</float_array>
        <technique_common>
          <accessor source="#Armature_Leg_L_pose_matrix-input-array" count="7" stride="1">
            <param name="TIME" type="float"/>
          </accessor>
        </technique_common>
      </source>
      <source id="Armature_Leg_L_pose_matrix-output">
        <float_array id="Armature_Leg_L_pose_matrix-output-array" count="112">1 1.63913e-7 7.3039e-7 -7.45058e-9 -6.17467e-7 0.74463 0.6674775 0.3747202 -4.33996e-7 -0.6674762 0.7446315 2.98023e-8 0 0 0 1 1 2.34228e-7 7.09668e-7 -7.45058e-9 -2.42144e-7 0.999999 2.38419e-7 0.3747202 -7.09668e-7 -1.78814e-7 1.000001 2.98023e-8 0 0 0 1 1 1.30385e-7 8.39587e-7 -7.45058e-9 -6.44475e-7 0.7734712 0.6338311 0.3747202 -5.69038e-7 -0.63383 0.7734728 2.98023e-8 0 0 0 1 1 1.63913e-7 7.3039e-7 -7.45058e-9 -6.17467e-7 0.74463 0.6674775 0.3747202 -4.33996e-7 -0.6674762 0.7446315 2.98023e-8 0 0 0 1 1 2.34228e-7 7.09668e-7 -7.45058e-9 -2.42144e-7 0.999999 2.38419e-7 0.3747202 -7.09668e-7 -1.78814e-7 1.000001 2.98023e-8 0 0 0 1 1 1.30385e-7 8.39587e-7 -7.45058e-9 -6.44475e-7 0.7734712 0.6338311 0.3747202 -5.69038e-7 -0.63383 0.7734728 2.98023e-8 0 0 0 1 1 1.63913e-7 7.3039e-7 -7.45058e-9 -6.17467e-7 0.74463 0.6674775 0.3747202 -4.33996e-7 -0.6674762 0.7446315 2.98023e-8 0 0 0 1</float_array>
        <technique_common>
          <accessor source="#Armature_Leg_L_pose_matrix-output-array" count="7" stride="16">
            <param name="TRANSFORM" type="float4x4"/>
          </accessor>
        </technique_common>
      </source>
      <source id="Armature_Leg_L_pose_matrix-interpolation">
        <Name_array id="Armature_Leg_L_pose_matrix-interpolation-array" count="7">LINEAR LINEAR LINEAR LINEAR LINEAR LINEAR LINEAR</Name_array>
        <technique_common>
          <accessor source="#Armature_Leg_L_pose_matrix-interpolation-array" count="7" stride="1">
            <param name="INTERPOLATION" type="name"/>
          </accessor>
        </technique_common>
      </source>
      <sampler id="Armature_Leg_L_pose_matrix-sampler">
        <input semantic="INPUT" source="#Armature_Leg_L_pose_matrix-input"/>
        <input semantic="OUTPUT" source="#Armature_Leg_L_pose_matrix-output"/>
        <input semantic="INTERPOLATION" source="#Armature_Leg_L_pose_matrix-interpolation"/>
      </sampler>
      <channel source="#Armature_Leg_L_pose_matrix-sampler" target="Armature_Leg_L/transform"/>
    </animation>
    <animation id="Armature_Knee_L_pose_matrix">
      <source id="Armature_Knee_L_pose_matrix-input">
        <float_array id="Armature_Knee_L_pose_matrix-input-array" count="7">0 0.25 0.5 0.55 0.8 1.05 1.1</float_array>
        <technique_common>
          <accessor source="#Armature_Knee_L_pose_matrix-input-array" count="7" stride="1">
            <param name="TIME" type="float"/>
          </accessor>
        </technique_common>
      </source>
      <source id="Armature_Knee_L_pose_matrix-output">
        <float_array id="Armature_Knee_L_pose_matrix-output-array" count="112">0.9999999 5.86733e-8 -2.34228e-7 3.06591e-4 -2.44007e-7 6.25849e-7 -1 0.4121472 -5.7742e-8 1 5.06639e-7 -0.006892592 0 0 0 1 0.9999999 5.86733e-8 -2.34228e-7 -7.45058e-9 -2.44007e-7 6.25849e-7 -1 0.3806998 -5.7742e-8 1 5.06639e-7 -1.53124e-4 0 0 0 1 0.9999999 5.86733e-8 -2.34228e-7 -1.1681e-4 -2.44007e-7 6.25849e-7 -1 0.3973914 -5.7742e-8 1 5.06639e-7 4.16905e-4 0 0 0 1 0.9999999 5.86733e-8 -2.34228e-7 -1.1681e-4 -2.44007e-7 6.25849e-7 -1 0.3973914 -5.7742e-8 1 5.06639e-7 4.16905e-4 0 0 0 1 0.9999999 5.86733e-8 -2.34228e-7 -7.45058e-9 -2.44007e-7 6.25849e-7 -1 0.3747202 -5.7742e-8 1 5.06639e-7 2.98023e-8 0 0 0 1 0.9999999 5.86733e-8 -2.34228e-7 -8.12955e-4 -2.44007e-7 6.25849e-7 -1 0.4032824 -5.7742e-8 1 5.06639e-7 -0.00420028 0 0 0 1 0.9999999 5.86733e-8 -2.34228e-7 -8.12955e-4 -2.44007e-7 6.25849e-7 -1 0.4032824 -5.7742e-8 1 5.06639e-7 -0.00420028 0 0 0 1</float_array>
        <technique_common>
          <accessor source="#Armature_Knee_L_pose_matrix-output-array" count="7" stride="16">
            <param name="TRANSFORM" type="float4x4"/>
          </accessor>
        </technique_common>
      </source>
      <source id="Armature_Knee_L_pose_matrix-interpolation">
        <Name_array id="Armature_Knee_L_pose_matrix-interpolation-array" count="7">LINEAR LINEAR LINEAR LINEAR LINEAR LINEAR LINEAR</Name_array>
        <technique_common>
          <accessor source="#Armature_Knee_L_pose_matrix-interpolation-array" count="7" stride="1">
            <param name="INTERPOLATION" type="name"/>
          </accessor>
        </technique_common>
      </source>
      <sampler id="Armature_Knee_L_pose_matrix-sampler">
        <input semantic="INPUT" source="#Armature_Knee_L_pose_matrix-input"/>
        <input semantic="OUTPUT" source="#Armature_Knee_L_pose_matrix-output"/>
        <input semantic="INTERPOLATION" source="#Armature_Knee_L_pose_matrix-interpolation"/>
      </sampler>
      <channel source="#Armature_Knee_L_pose_matrix-sampler" target="Armature_Knee_L/transform"/>
    </animation>
    <animation id="Armature_Torso_pose_matrix">
      <source id="Armature_Torso_pose_matrix-input">
        <float_array id="Armature_Torso_pose_matrix-input-array" count="7">0 0.25 0.5 0.55 0.8 1.05 1.1</float_array>
        <technique_common>
          <accessor source="#Armature_Torso_pose_matrix-input-array" count="7" stride="1">
            <param name="TIME" type="float"/>
          </accessor>
        </technique_common>
      </source>
      <source id="Armature_Torso_pose_matrix-output">
        <float_array id="Armature_Torso_pose_matrix-output-array" count="112">1 0 0 0 0 1 0 0.05000019 0 0 1 2.98023e-8 0 0 0 1 1 0 0 0 0 1 0 0.05000019 0 0 1 2.98023e-8 0 0 0 1 1 0 0 0 0 1 0 0.05000019 0 0 1 2.98023e-8 0 0 0 1 1 0 0 0 0 1 0 0.05000019 0 0 1 2.98023e-8 0 0 0 1 1 0 0 0 0 1 0 0.05000019 0 0 1 2.98023e-8 0 0 0 1 1 0 0 0 0 1 0 0.05000019 0 0 1 2.98023e-8 0 0 0 1 1 0 0 0 0 1 0 0.05000019 0 0 1 2.98023e-8 0 0 0 1</float_array>
        <technique_common>
          <accessor source="#Armature_Torso_pose_matrix-output-array" count="7" stride="16">
            <param name="TRANSFORM" type="float4x4"/>
          </accessor>
        </technique_common>
      </source>
      <source id="Armature_Torso_pose_matrix-interpolation">
        <Name_array id="Armature_Torso_pose_matrix-interpolation-array" count="7">LINEAR LINEAR LINEAR LINEAR LINEAR LINEAR LINEAR</Name_array>
        <technique_common>
          <accessor source="#Armature_Torso_pose_matrix-interpolation-array" count="7" stride="1">
            <param name="INTERPOLATION" type="name"/>
          </accessor>
        </technique_common>
      </source>
      <sampler id="Armature_Torso_pose_matrix-sampler">
        <input semantic="INPUT" source="#Armature_Torso_pose_matrix-input"/>
        <input semantic="OUTPUT" source="#Armature_Torso_pose_matrix-output"/>
        <input semantic="INTERPOLATION" source="#Armature_Torso_pose_matrix-interpolation"/>
      </sampler>
      <channel source="#Armature_Torso_pose_matrix-sampler" target="Armature_Torso/transform"/>
    </animation>
    <animation id="Armature_Chest_pose_matrix">
      <source id="Armature_Chest_pose_matrix-input">
        <float_array id="Armature_Chest_pose_matrix-input-array" count="7">0 0.25 0.5 0.55 0.8 1.05 1.1</float_array>
        <technique_common>
          <accessor source="#Armature_Chest_pose_matrix-input-array" count="7" stride="1">
            <param name="TIME" type="float"/>
          </accessor>
        </technique_common>
      </source>
      <source id="Armature_Chest_pose_matrix-output">
        <float_array id="Armature_Chest_pose_matrix-output-array" count="112">0.8702385 6.61893e-8 -0.4926307 0 -6.61893e-8 1 1.74346e-8 0.3 0.4926307 1.74346e-8 0.8702385 0 0 0 0 1 0.9978696 7.0178e-8 -0.06524001 0 -7.0178e-8 1 2.29164e-9 0.3 0.06524001 2.29166e-9 0.9978696 0 0 0 0 1 0.9269721 -5.04021e-8 0.3751303 0 5.04021e-8 1 9.81194e-9 0.3 -0.3751303 9.81194e-9 0.9269721 0 0 0 0 1 0.9269721 -5.04021e-8 0.3751303 0 5.04021e-8 1 9.81194e-9 0.3 -0.3751303 9.81194e-9 0.9269721 0 0 0 0 1 0.9978696 -5.26469e-8 -0.06524014 0 5.26469e-8 1 -1.71917e-9 0.3 0.06524014 -1.71917e-9 0.9978696 0 0 0 0 1 0.8702385 6.61893e-8 -0.4926307 0 -6.61893e-8 1 1.74346e-8 0.3 0.4926307 1.74346e-8 0.8702385 0 0 0 0 1 0.8702385 6.61893e-8 -0.4926307 0 -6.61893e-8 1 1.74346e-8 0.3 0.4926307 1.74346e-8 0.8702385 0 0 0 0 1</float_array>
        <technique_common>
          <accessor source="#Armature_Chest_pose_matrix-output-array" count="7" stride="16">
            <param name="TRANSFORM" type="float4x4"/>
          </accessor>
        </technique_common>
      </source>
      <source id="Armature_Chest_pose_matrix-interpolation">
        <Name_array id="Armature_Chest_pose_matrix-interpolation-array" count="7">LINEAR LINEAR LINEAR LINEAR LINEAR LINEAR LINEAR</Name_array>
        <technique_common>
          <accessor source="#Armature_Chest_pose_matrix-interpolation-array" count="7" stride="1">
            <param name="INTERPOLATION" type="name"/>
          </accessor>
        </technique_common>
      </source>
      <sampler id="Armature_Chest_pose_matrix-sampler">
        <input semantic="INPUT" source="#Armature_Chest_pose_matrix-input"/>
        <input semantic="OUTPUT" source="#Armature_Chest_pose_matrix-output"/>
        <input semantic="INTERPOLATION" source="#Armature_Chest_pose_matrix-interpolation"/>
      </sampler>
      <channel source="#Armature_Chest_pose_matrix-sampler" target="Armature_Chest/transform"/>
    </animation>
    <animation id="Armature_Head_pose_matrix">
      <source id="Armature_Head_pose_matrix-input">
        <float_array id="Armature_Head_pose_matrix-input-array" count="7">0 0.25 0.5 0.55 0.8 1.05 1.1</float_array>
        <technique_common>
          <accessor source="#Armature_Head_pose_matrix-input-array" count="7" stride="1">
            <param name="TIME" type="float"/>
          </accessor>
        </technique_common>
      </source>
      <source id="Armature_Head_pose_matrix-output">
        <float_array id="Armature_Head_pose_matrix-output-array" count="112">0.9404606 0.3188298 0.1178196 0 0.01858301 0.2978801 -0.9544225 0.3999999 -0.3393945 0.8997861 0.2742197 -2.98023e-8 0 0 0 1 0.9980994 0.05561844 0.02653898 0 0.005417763 0.3497873 -0.9368135 0.3999999 -0.06138712 0.9351767 0.3488211 -2.98023e-8 0 0 0 1 0.9750379 -0.2063935 -0.08187021 0 0.008202265 0.4019504 -0.9156247 0.3999999 0.2218866 0.8920974 0.3936098 -2.98023e-8 0 0 0 1 0.9750379 -0.2063935 -0.08187021 0 0.008202265 0.4019504 -0.9156247 0.3999999 0.2218866 0.8920974 0.3936098 -2.98023e-8 0 0 0 1 0.9980994 0.05561841 0.02653901 0 0.005417787 0.3497871 -0.9368136 0.3999999 -0.06138712 0.9351767 0.3488209 -2.98023e-8 0 0 0 1 0.9404606 0.3188298 0.1178196 0 0.01858301 0.2978801 -0.9544225 0.3999999 -0.3393945 0.8997861 0.2742197 -2.98023e-8 0 0 0 1 0.9404606 0.3188298 0.1178196 0 0.01858301 0.2978801 -0.9544225 0.3999999 -0.3393945 0.8997861 0.2742197 -2.98023e-8 0 0 0 1</float_array>
        <technique_common>
          <accessor source="#Armature_Head_pose_matrix-output-array" count="7" stride="16">
            <param name="TRANSFORM" type="float4x4"/>
          </accessor>
        </technique_common>
      </source>
      <source id="Armature_Head_pose_matrix-interpolation">
        <Name_array id="Armature_Head_pose_matrix-interpolation-array" count="7">LINEAR LINEAR LINEAR LINEAR LINEAR LINEAR LINEAR</Name_array>
        <technique_common>
          <accessor source="#Armature_Head_pose_matrix-interpolation-array" count="7" stride="1">
            <param name="INTERPOLATION" type="name"/>
          </accessor>
        </technique_common>
      </source>
      <sampler id="Armature_Head_pose_matrix-sampler">
        <input semantic="INPUT" source="#Armature_Head_pose_matrix-input"/>
        <input semantic="OUTPUT" source="#Armature_Head_pose_matrix-output"/>
        <input semantic="INTERPOLATION" source="#Armature_Head_pose_matrix-interpolation"/>
      </sampler>
      <channel source="#Armature_Head_pose_matrix-sampler" target="Armature_Head/transform"/>
    </animation>
    <animation id="Armature_Shoulder_R_pose_matrix">
      <source id="Armature_Shoulder_R_pose_matrix-input">
        <float_array id="Armature_Shoulder_R_pose_matrix-input-array" count="7">0 0.25 0.5 0.55 0.8 1.05 1.1</float_array>
        <technique_common>
          <accessor source="#Armature_Shoulder_R_pose_matrix-input-array" count="7" stride="1">
            <param name="TIME" type="float"/>
          </accessor>
        </technique_common>
      </source>
      <source id="Armature_Shoulder_R_pose_matrix-output">
        <float_array id="Armature_Shoulder_R_pose_matrix-output-array" count="112">8.9407e-8 0.9521138 0.3057433 0 1.49012e-8 -0.3057432 0.9521139 0.3999999 0.9999998 2.98023e-8 -2.98023e-8 -2.98023e-8 0 0 0 1 8.9407e-8 0.9521138 0.3057433 0 1.49012e-8 -0.3057432 0.9521139 0.3999999 0.9999998 2.98023e-8 -2.98023e-8 -2.98023e-8 0 0 0 1 8.9407e-8 0.9521138 0.3057433 0 1.49012e-8 -0.3057432 0.9521139 0.3999999 0.9999998 2.98023e-8 -2.98023e-8 -2.98023e-8 0 0 0 1 8.9407e-8 0.9521138 0.3057433 0 1.49012e-8 -0.3057432 0.9521139 0.3999999 0.9999998 2.98023e-8 -2.98023e-8 -2.98023e-8 0 0 0 1 8.9407e-8 0.9521138 0.3057433 0 1.49012e-8 -0.3057432 0.9521139 0.3999999 0.9999998 2.98023e-8 -2.98023e-8 -2.98023e-8 0 0 0 1 8.9407e-8 0.9521138 0.3057433 0 1.49012e-8 -0.3057432 0.9521139 0.3999999 0.9999998 2.98023e-8 -2.98023e-8 -2.98023e-8 0 0 0 1 8.9407e-8 0.9521138 0.3057433 0 1.49012e-8 -0.3057432 0.9521139 0.3999999 0.9999998 2.98023e-8 -2.98023e-8 -2.98023e-8 0 0 0 1</float_array>
        <technique_common>
          <accessor source="#Armature_Shoulder_R_pose_matrix-output-array" count="7" stride="16">
            <param name="TRANSFORM" type="float4x4"/>
          </accessor>
        </technique_common>
      </source>
      <source id="Armature_Shoulder_R_pose_matrix-interpolation">
        <Name_array id="Armature_Shoulder_R_pose_matrix-interpolation-array" count="7">LINEAR LINEAR LINEAR LINEAR LINEAR LINEAR LINEAR</Name_array>
        <technique_common>
          <accessor source="#Armature_Shoulder_R_pose_matrix-interpolation-array" count="7" stride="1">
            <param name="INTERPOLATION" type="name"/>
          </accessor>
        </technique_common>
      </source>
      <sampler id="Armature_Shoulder_R_pose_matrix-sampler">
        <input semantic="INPUT" source="#Armature_Shoulder_R_pose_matrix-input"/>
        <input semantic="OUTPUT" source="#Armature_Shoulder_R_pose_matrix-output"/>
        <input semantic="INTERPOLATION" source="#Armature_Shoulder_R_pose_matrix-interpolation"/>
      </sampler>
      <channel source="#Armature_Shoulder_R_pose_matrix-sampler" target="Armature_Shoulder_R/transform"/>
    </animation>
    <animation id="Armature_Arm_R_pose_matrix">
      <source id="Armature_Arm_R_pose_matrix-input">
        <float_array id="Armature_Arm_R_pose_matrix-input-array" count="7">0 0.25 0.5 0.55 0.8 1.05 1.1</float_array>
        <technique_common>
          <accessor source="#Armature_Arm_R_pose_matrix-input-array" count="7" stride="1">
            <param name="TIME" type="float"/>
          </accessor>
        </technique_common>
      </source>
      <source id="Armature_Arm_R_pose_matrix-output">
        <float_array id="Armature_Arm_R_pose_matrix-output-array" count="112">1.78814e-7 0.5302214 -0.8478593 -2.98023e-8 0.9521142 0.2592274 0.1621118 0.3938605 0.3057436 -0.807259 -0.504831 2.98023e-8 0 0 0 1 0.9887859 0.1209384 0.08761938 -2.98023e-8 -0.1449083 0.9188579 0.3670185 0.3938605 -0.03612307 -0.3755994 0.926078 2.98023e-8 0 0 0 1 0.9999251 -7.62728e-4 -0.01224422 -2.98023e-8 -0.01189676 -0.304004 -0.9525965 0.3938605 -0.002995804 0.9526708 -0.3039901 2.98023e-8 0 0 0 1 0.9999251 -7.62728e-4 -0.01224422 -2.98023e-8 -0.01189676 -0.304004 -0.9525965 0.3938605 -0.002995804 0.9526708 -0.3039901 2.98023e-8 0 0 0 1 3.57628e-7 -0.9612126 -0.2758091 -2.98023e-8 0.9521143 0.08432704 -0.2938838 0.3938605 0.3057431 -0.2626017 0.9151837 2.98023e-8 0 0 0 1 1.78814e-7 0.5302214 -0.8478593 -2.98023e-8 0.9521142 0.2592274 0.1621118 0.3938605 0.3057436 -0.807259 -0.504831 2.98023e-8 0 0 0 1 1.78814e-7 0.5302214 -0.8478593 -2.98023e-8 0.9521142 0.2592274 0.1621118 0.3938605 0.3057436 -0.807259 -0.504831 2.98023e-8 0 0 0 1</float_array>
        <technique_common>
          <accessor source="#Armature_Arm_R_pose_matrix-output-array" count="7" stride="16">
            <param name="TRANSFORM" type="float4x4"/>
          </accessor>
        </technique_common>
      </source>
      <source id="Armature_Arm_R_pose_matrix-interpolation">
        <Name_array id="Armature_Arm_R_pose_matrix-interpolation-array" count="7">LINEAR LINEAR LINEAR LINEAR LINEAR LINEAR LINEAR</Name_array>
        <technique_common>
          <accessor source="#Armature_Arm_R_pose_matrix-interpolation-array" count="7" stride="1">
            <param name="INTERPOLATION" type="name"/>
          </accessor>
        </technique_common>
      </source>
      <sampler id="Armature_Arm_R_pose_matrix-sampler">
        <input semantic="INPUT" source="#Armature_Arm_R_pose_matrix-input"/>
        <input semantic="OUTPUT" source="#Armature_Arm_R_pose_matrix-output"/>
        <input semantic="INTERPOLATION" source="#Armature_Arm_R_pose_matrix-interpolation"/>
      </sampler>
      <channel source="#Armature_Arm_R_pose_matrix-sampler" target="Armature_Arm_R/transform"/>
    </animation>
    <animation id="Armature_Hand_R_pose_matrix">
      <source id="Armature_Hand_R_pose_matrix-input">
        <float_array id="Armature_Hand_R_pose_matrix-input-array" count="7">0 0.25 0.5 0.55 0.8 1.05 1.1</float_array>
        <technique_common>
          <accessor source="#Armature_Hand_R_pose_matrix-input-array" count="7" stride="1">
            <param name="TIME" type="float"/>
          </accessor>
        </technique_common>
      </source>
      <source id="Armature_Hand_R_pose_matrix-output">
        <float_array id="Armature_Hand_R_pose_matrix-output-array" count="112">1 5.96046e-8 0 0 4.47035e-8 0.5022814 -0.8647044 0.3000002 -5.96046e-8 0.8647044 0.5022813 -2.98023e-8 0 0 0 1 0.9998275 0.01709577 0.007253677 0 0.009393573 -0.1286165 -0.99165 0.3000002 -0.01602015 0.9915473 -0.1287549 -2.98023e-8 0 0 0 1 1 5.96046e-8 2.98023e-8 0 -1.49012e-8 0.9939376 0.1099473 0.3000002 -5.96046e-8 -0.1099473 0.9939375 -2.98023e-8 0 0 0 1 1 5.96046e-8 2.98023e-8 0 -1.49012e-8 0.9939376 0.1099473 0.3000002 -5.96046e-8 -0.1099473 0.9939375 -2.98023e-8 0 0 0 1 1 5.21541e-8 0 0 -1.49012e-8 0.892835 -0.4503843 0.3000002 -5.96046e-8 0.4503843 0.8928348 -2.98023e-8 0 0 0 1 1 5.96046e-8 0 0 4.47035e-8 0.5022814 -0.8647044 0.3000002 -5.96046e-8 0.8647044 0.5022813 -2.98023e-8 0 0 0 1 1 5.96046e-8 0 0 4.47035e-8 0.5022814 -0.8647044 0.3000002 -5.96046e-8 0.8647044 0.5022813 -2.98023e-8 0 0 0 1</float_array>
        <technique_common>
          <accessor source="#Armature_Hand_R_pose_matrix-output-array" count="7" stride="16">
            <param name="TRANSFORM" type="float4x4"/>
          </accessor>
        </technique_common>
      </source>
      <source id="Armature_Hand_R_pose_matrix-interpolation">
        <Name_array id="Armature_Hand_R_pose_matrix-interpolation-array" count="7">LINEAR LINEAR LINEAR LINEAR LINEAR LINEAR LINEAR</Name_array>
        <technique_common>
          <accessor source="#Armature_Hand_R_pose_matrix-interpolation-array" count="7" stride="1">
            <param name="INTERPOLATION" type="name"/>
          </accessor>
        </technique_common>
      </source>
      <sampler id="Armature_Hand_R_pose_matrix-sampler">
        <input semantic="INPUT" source="#Armature_Hand_R_pose_matrix-input"/>
        <input semantic="OUTPUT" source="#Armature_Hand_R_pose_matrix-output"/>
        <input semantic="INTERPOLATION" source="#Armature_Hand_R_pose_matrix-interpolation"/>
      </sampler>
      <channel source="#Armature_Hand_R_pose_matrix-sampler" target="Armature_Hand_R/transform"/>
    </animation>
    <animation id="Armature_Tool_R_pose_matrix">
      <source id="Armature_Tool_R_pose_matrix-input">
        <float_array id="Armature_Tool_R_pose_matrix-input-array" count="7">0 0.25 0.5 0.55 0.8 1.05 1.1</float_array>
        <technique_common>
          <accessor source="#Armature_Tool_R_pose_matrix-input-array" count="7" stride="1">
            <param name="TIME" type="float"/>
          </accessor>
        </technique_common>
      </source>
      <source id="Armature_Tool_R_pose_matrix-output">
        <float_array id="Armature_Tool_R_pose_matrix-output-array" count="112">1 7.45058e-8 2.68221e-7 0 0 -0.999836 0.01812226 0.272858 1.78814e-7 -0.01812232 -0.9992439 2.98023e-8 0 0 0 1 1 7.45058e-8 2.68221e-7 0 0 -0.999836 0.01812226 0.272858 1.78814e-7 -0.01812232 -0.9992439 2.98023e-8 0 0 0 1 1 7.45058e-8 2.68221e-7 0 0 -0.999836 0.01812226 0.272858 1.78814e-7 -0.01812232 -0.9992439 2.98023e-8 0 0 0 1 1 7.45058e-8 2.68221e-7 0 0 -0.999836 0.01812226 0.272858 1.78814e-7 -0.01812232 -0.9992439 2.98023e-8 0 0 0 1 1 7.45058e-8 2.68221e-7 0 0 -0.999836 0.01812226 0.272858 1.78814e-7 -0.01812232 -0.9992439 2.98023e-8 0 0 0 1 1 7.45058e-8 2.68221e-7 0 0 -0.999836 0.01812226 0.272858 1.78814e-7 -0.01812232 -0.9992439 2.98023e-8 0 0 0 1 1 7.45058e-8 2.68221e-7 0 0 -0.999836 0.01812226 0.272858 1.78814e-7 -0.01812232 -0.9992439 2.98023e-8 0 0 0 1</float_array>
        <technique_common>
          <accessor source="#Armature_Tool_R_pose_matrix-output-array" count="7" stride="16">
            <param name="TRANSFORM" type="float4x4"/>
          </accessor>
        </technique_common>
      </source>
      <source id="Armature_Tool_R_pose_matrix-interpolation">
        <Name_array id="Armature_Tool_R_pose_matrix-interpolation-array" count="7">LINEAR LINEAR LINEAR LINEAR LINEAR LINEAR LINEAR</Name_array>
        <technique_common>
          <accessor source="#Armature_Tool_R_pose_matrix-interpolation-array" count="7" stride="1">
            <param name="INTERPOLATION" type="name"/>
          </accessor>
        </technique_common>
      </source>
      <sampler id="Armature_Tool_R_pose_matrix-sampler">
        <input semantic="INPUT" source="#Armature_Tool_R_pose_matrix-input"/>
        <input semantic="OUTPUT" source="#Armature_Tool_R_pose_matrix-output"/>
        <input semantic="INTERPOLATION" source="#Armature_Tool_R_pose_matrix-interpolation"/>
      </sampler>
      <channel source="#Armature_Tool_R_pose_matrix-sampler" target="Armature_Tool_R/transform"/>
    </animation>
    <animation id="Armature_Elbow_R_pose_matrix">
      <source id="Armature_Elbow_R_pose_matrix-input">
        <float_array id="Armature_Elbow_R_pose_matrix-input-array" count="7">0 0.25 0.5 0.55 0.8 1.05 1.1</float_array>
        <technique_common>
          <accessor source="#Armature_Elbow_R_pose_matrix-input-array" count="7" stride="1">
            <param name="TIME" type="float"/>
          </accessor>
        </technique_common>
      </source>
      <source id="Armature_Elbow_R_pose_matrix-output">
        <float_array id="Armature_Elbow_R_pose_matrix-output-array" count="112">-1 2.08616e-7 -2.98023e-8 -1.62363e-4 -1.49012e-8 2.98023e-8 -0.9999999 0.4067565 -1.19209e-7 -1 0 4.86225e-4 0 0 0 1 -1 2.08616e-7 -2.98023e-8 -9.11891e-4 -1.49012e-8 2.98023e-8 -0.9999999 0.4460087 -1.19209e-7 -1 0 -3.45349e-4 0 0 0 1 -1 2.08616e-7 -2.98023e-8 0 -1.49012e-8 2.98023e-8 -0.9999999 0.3000002 -1.19209e-7 -1 0 -2.98023e-8 0 0 0 1 -1 2.08616e-7 -2.98023e-8 0 -1.49012e-8 2.98023e-8 -0.9999999 0.3000002 -1.19209e-7 -1 0 -2.98023e-8 0 0 0 1 -1 2.08616e-7 -2.98023e-8 0 -1.49012e-8 2.98023e-8 -0.9999999 0.3000002 -1.19209e-7 -1 0 -2.98023e-8 0 0 0 1 -1 2.08616e-7 -2.98023e-8 -0.001012266 -1.49012e-8 2.98023e-8 -0.9999999 0.4043432 -1.19209e-7 -1 0 -0.003287196 0 0 0 1 -1 2.08616e-7 -2.98023e-8 -0.001012266 -1.49012e-8 2.98023e-8 -0.9999999 0.4043432 -1.19209e-7 -1 0 -0.003287196 0 0 0 1</float_array>
        <technique_common>
          <accessor source="#Armature_Elbow_R_pose_matrix-output-array" count="7" stride="16">
            <param name="TRANSFORM" type="float4x4"/>
          </accessor>
        </technique_common>
      </source>
      <source id="Armature_Elbow_R_pose_matrix-interpolation">
        <Name_array id="Armature_Elbow_R_pose_matrix-interpolation-array" count="7">LINEAR LINEAR LINEAR LINEAR LINEAR LINEAR LINEAR</Name_array>
        <technique_common>
          <accessor source="#Armature_Elbow_R_pose_matrix-interpolation-array" count="7" stride="1">
            <param name="INTERPOLATION" type="name"/>
          </accessor>
        </technique_common>
      </source>
      <sampler id="Armature_Elbow_R_pose_matrix-sampler">
        <input semantic="INPUT" source="#Armature_Elbow_R_pose_matrix-input"/>
        <input semantic="OUTPUT" source="#Armature_Elbow_R_pose_matrix-output"/>
        <input semantic="INTERPOLATION" source="#Armature_Elbow_R_pose_matrix-interpolation"/>
      </sampler>
      <channel source="#Armature_Elbow_R_pose_matrix-sampler" target="Armature_Elbow_R/transform"/>
    </animation>
    <animation id="Armature_Shoulder_L_pose_matrix">
      <source id="Armature_Shoulder_L_pose_matrix-input">
        <float_array id="Armature_Shoulder_L_pose_matrix-input-array" count="7">0 0.25 0.5 0.55 0.8 1.05 1.1</float_array>
        <technique_common>
          <accessor source="#Armature_Shoulder_L_pose_matrix-input-array" count="7" stride="1">
            <param name="TIME" type="float"/>
          </accessor>
        </technique_common>
      </source>
      <source id="Armature_Shoulder_L_pose_matrix-output">
        <float_array id="Armature_Shoulder_L_pose_matrix-output-array" count="112">0 -0.9521139 -0.3057434 0 6.70552e-8 -0.3057434 0.9521139 0.3999999 -0.9999999 -2.98023e-8 7.45058e-8 -2.98023e-8 0 0 0 1 0 -0.9521139 -0.3057434 0 6.70552e-8 -0.3057434 0.9521139 0.3999999 -0.9999999 -2.98023e-8 7.45058e-8 -2.98023e-8 0 0 0 1 0 -0.9521139 -0.3057434 0 6.70552e-8 -0.3057434 0.9521139 0.3999999 -0.9999999 -2.98023e-8 7.45058e-8 -2.98023e-8 0 0 0 1 0 -0.9521139 -0.3057434 0 6.70552e-8 -0.3057434 0.9521139 0.3999999 -0.9999999 -2.98023e-8 7.45058e-8 -2.98023e-8 0 0 0 1 0 -0.9521139 -0.3057434 0 6.70552e-8 -0.3057434 0.9521139 0.3999999 -0.9999999 -2.98023e-8 7.45058e-8 -2.98023e-8 0 0 0 1 0 -0.9521139 -0.3057434 0 6.70552e-8 -0.3057434 0.9521139 0.3999999 -0.9999999 -2.98023e-8 7.45058e-8 -2.98023e-8 0 0 0 1 0 -0.9521139 -0.3057434 0 6.70552e-8 -0.3057434 0.9521139 0.3999999 -0.9999999 -2.98023e-8 7.45058e-8 -2.98023e-8 0 0 0 1</float_array>
        <technique_common>
          <accessor source="#Armature_Shoulder_L_pose_matrix-output-array" count="7" stride="16">
            <param name="TRANSFORM" type="float4x4"/>
          </accessor>
        </technique_common>
      </source>
      <source id="Armature_Shoulder_L_pose_matrix-interpolation">
        <Name_array id="Armature_Shoulder_L_pose_matrix-interpolation-array" count="7">LINEAR LINEAR LINEAR LINEAR LINEAR LINEAR LINEAR</Name_array>
        <technique_common>
          <accessor source="#Armature_Shoulder_L_pose_matrix-interpolation-array" count="7" stride="1">
            <param name="INTERPOLATION" type="name"/>
          </accessor>
        </technique_common>
      </source>
      <sampler id="Armature_Shoulder_L_pose_matrix-sampler">
        <input semantic="INPUT" source="#Armature_Shoulder_L_pose_matrix-input"/>
        <input semantic="OUTPUT" source="#Armature_Shoulder_L_pose_matrix-output"/>
        <input semantic="INTERPOLATION" source="#Armature_Shoulder_L_pose_matrix-interpolation"/>
      </sampler>
      <channel source="#Armature_Shoulder_L_pose_matrix-sampler" target="Armature_Shoulder_L/transform"/>
    </animation>
    <animation id="Armature_Arm_L_pose_matrix">
      <source id="Armature_Arm_L_pose_matrix-input">
        <float_array id="Armature_Arm_L_pose_matrix-input-array" count="7">0 0.25 0.5 0.55 0.8 1.05 1.1</float_array>
        <technique_common>
          <accessor source="#Armature_Arm_L_pose_matrix-input-array" count="7" stride="1">
            <param name="TIME" type="float"/>
          </accessor>
        </technique_common>
      </source>
      <source id="Armature_Arm_L_pose_matrix-output">
        <float_array id="Armature_Arm_L_pose_matrix-output-array" count="112">0.9949642 -0.09965372 -0.0107542 0 -0.02414593 -0.1341739 -0.9906638 0.3938604 0.09728049 0.9859345 -0.1359045 0 0 0 0 1 0.1189547 0.9660385 0.2293885 0 -0.969734 0.1626502 -0.1821017 0.3938604 -0.2132275 -0.2007839 0.9561484 0 0 0 0 1 -2.08616e-7 -0.5368873 0.843654 0 -0.952114 0.2579416 0.1641495 0.3938604 -0.3057434 -0.8032545 -0.5111779 0 0 0 0 1 -2.08616e-7 -0.5368873 0.843654 0 -0.952114 0.2579416 0.1641495 0.3938604 -0.3057434 -0.8032545 -0.5111779 0 0 0 0 1 0.9848487 -0.06126493 -0.1622344 0 0.1116422 0.9398576 0.3228059 0.3938604 0.1327005 -0.3360269 0.9324572 0 0 0 0 1 0.9949642 -0.09965372 -0.0107542 0 -0.02414593 -0.1341739 -0.9906638 0.3938604 0.09728048 0.9859345 -0.1359045 0 0 0 0 1 0.9949642 -0.09965372 -0.0107542 0 -0.02414593 -0.1341739 -0.9906638 0.3938604 0.09728048 0.9859345 -0.1359045 0 0 0 0 1</float_array>
        <technique_common>
          <accessor source="#Armature_Arm_L_pose_matrix-output-array" count="7" stride="16">
            <param name="TRANSFORM" type="float4x4"/>
          </accessor>
        </technique_common>
      </source>
      <source id="Armature_Arm_L_pose_matrix-interpolation">
        <Name_array id="Armature_Arm_L_pose_matrix-interpolation-array" count="7">LINEAR LINEAR LINEAR LINEAR LINEAR LINEAR LINEAR</Name_array>
        <technique_common>
          <accessor source="#Armature_Arm_L_pose_matrix-interpolation-array" count="7" stride="1">
            <param name="INTERPOLATION" type="name"/>
          </accessor>
        </technique_common>
      </source>
      <sampler id="Armature_Arm_L_pose_matrix-sampler">
        <input semantic="INPUT" source="#Armature_Arm_L_pose_matrix-input"/>
        <input semantic="OUTPUT" source="#Armature_Arm_L_pose_matrix-output"/>
        <input semantic="INTERPOLATION" source="#Armature_Arm_L_pose_matrix-interpolation"/>
      </sampler>
      <channel source="#Armature_Arm_L_pose_matrix-sampler" target="Armature_Arm_L/transform"/>
    </animation>
    <animation id="Armature_Hand_L_pose_matrix">
      <source id="Armature_Hand_L_pose_matrix-input">
        <float_array id="Armature_Hand_L_pose_matrix-input-array" count="7">0 0.25 0.5 0.55 0.8 1.05 1.1</float_array>
        <technique_common>
          <accessor source="#Armature_Hand_L_pose_matrix-input-array" count="7" stride="1">
            <param name="TIME" type="float"/>
          </accessor>
        </technique_common>
      </source>
      <source id="Armature_Hand_L_pose_matrix-output">
        <float_array id="Armature_Hand_L_pose_matrix-output-array" count="112">0.9999999 2.98023e-8 0 -2.98023e-8 -2.39816e-8 0.9939374 0.1099474 0.3000002 -2.98023e-8 -0.1099474 0.9939374 1.49012e-8 0 0 0 1 0.9999999 4.47035e-8 2.98023e-8 -2.98023e-8 -2.39816e-8 0.9500797 -0.3120075 0.3000002 -2.98023e-8 0.3120075 0.9500796 1.49012e-8 0 0 0 1 0.9999999 2.98023e-8 -4.47035e-8 -2.98023e-8 -3.88827e-8 0.4885135 -0.8725563 0.3000002 -2.98023e-8 0.8725563 0.4885135 1.49012e-8 0 0 0 1 0.9999999 2.98023e-8 -4.47035e-8 -2.98023e-8 -3.88827e-8 0.4885135 -0.8725563 0.3000002 -2.98023e-8 0.8725563 0.4885135 1.49012e-8 0 0 0 1 0.9899976 0.05214021 -0.1310947 -2.98023e-8 -0.1265055 -0.08327999 -0.9884639 0.3000002 -0.06245631 0.9951614 -0.07585099 1.49012e-8 0 0 0 1 0.9999999 2.98023e-8 0 -2.98023e-8 -2.39816e-8 0.9939374 0.1099474 0.3000002 -2.98023e-8 -0.1099474 0.9939374 1.49012e-8 0 0 0 1 0.9999999 2.98023e-8 0 -2.98023e-8 -2.39816e-8 0.9939374 0.1099474 0.3000002 -2.98023e-8 -0.1099474 0.9939374 1.49012e-8 0 0 0 1</float_array>
        <technique_common>
          <accessor source="#Armature_Hand_L_pose_matrix-output-array" count="7" stride="16">
            <param name="TRANSFORM" type="float4x4"/>
          </accessor>
        </technique_common>
      </source>
      <source id="Armature_Hand_L_pose_matrix-interpolation">
        <Name_array id="Armature_Hand_L_pose_matrix-interpolation-array" count="7">LINEAR LINEAR LINEAR LINEAR LINEAR LINEAR LINEAR</Name_array>
        <technique_common>
          <accessor source="#Armature_Hand_L_pose_matrix-interpolation-array" count="7" stride="1">
            <param name="INTERPOLATION" type="name"/>
          </accessor>
        </technique_common>
      </source>
      <sampler id="Armature_Hand_L_pose_matrix-sampler">
        <input semantic="INPUT" source="#Armature_Hand_L_pose_matrix-input"/>
        <input semantic="OUTPUT" source="#Armature_Hand_L_pose_matrix-output"/>
        <input semantic="INTERPOLATION" source="#Armature_Hand_L_pose_matrix-interpolation"/>
      </sampler>
      <channel source="#Armature_Hand_L_pose_matrix-sampler" target="Armature_Hand_L/transform"/>
    </animation>
    <animation id="Armature_Tool_L_pose_matrix">
      <source id="Armature_Tool_L_pose_matrix-input">
        <float_array id="Armature_Tool_L_pose_matrix-input-array" count="7">0 0.25 0.5 0.55 0.8 1.05 1.1</float_array>
        <technique_common>
          <accessor source="#Armature_Tool_L_pose_matrix-input-array" count="7" stride="1">
            <param name="TIME" type="float"/>
          </accessor>
        </technique_common>
      </source>
      <source id="Armature_Tool_L_pose_matrix-output">
        <float_array id="Armature_Tool_L_pose_matrix-output-array" count="112">1 4.47035e-8 2.38419e-7 -2.98023e-8 3.72529e-9 -0.9998357 0.01812231 0.272858 2.68221e-7 -0.01812233 -0.9992476 3.72529e-8 0 0 0 1 1 4.47035e-8 2.38419e-7 -2.98023e-8 3.72529e-9 -0.9998357 0.01812231 0.272858 2.68221e-7 -0.01812233 -0.9992476 3.72529e-8 0 0 0 1 1 4.47035e-8 2.38419e-7 -2.98023e-8 3.72529e-9 -0.9998357 0.01812231 0.272858 2.68221e-7 -0.01812233 -0.9992476 3.72529e-8 0 0 0 1 1 4.47035e-8 2.38419e-7 -2.98023e-8 3.72529e-9 -0.9998357 0.01812231 0.272858 2.68221e-7 -0.01812233 -0.9992476 3.72529e-8 0 0 0 1 1 4.47035e-8 2.38419e-7 -2.98023e-8 3.72529e-9 -0.9998357 0.01812231 0.272858 2.68221e-7 -0.01812233 -0.9992476 3.72529e-8 0 0 0 1 1 4.47035e-8 2.38419e-7 -2.98023e-8 3.72529e-9 -0.9998357 0.01812231 0.272858 2.68221e-7 -0.01812233 -0.9992476 3.72529e-8 0 0 0 1 1 4.47035e-8 2.38419e-7 -2.98023e-8 3.72529e-9 -0.9998357 0.01812231 0.272858 2.68221e-7 -0.01812233 -0.9992476 3.72529e-8 0 0 0 1</float_array>
        <technique_common>
          <accessor source="#Armature_Tool_L_pose_matrix-output-array" count="7" stride="16">
            <param name="TRANSFORM" type="float4x4"/>
          </accessor>
        </technique_common>
      </source>
      <source id="Armature_Tool_L_pose_matrix-interpolation">
        <Name_array id="Armature_Tool_L_pose_matrix-interpolation-array" count="7">LINEAR LINEAR LINEAR LINEAR LINEAR LINEAR LINEAR</Name_array>
        <technique_common>
          <accessor source="#Armature_Tool_L_pose_matrix-interpolation-array" count="7" stride="1">
            <param name="INTERPOLATION" type="name"/>
          </accessor>
        </technique_common>
      </source>
      <sampler id="Armature_Tool_L_pose_matrix-sampler">
        <input semantic="INPUT" source="#Armature_Tool_L_pose_matrix-input"/>
        <input semantic="OUTPUT" source="#Armature_Tool_L_pose_matrix-output"/>
        <input semantic="INTERPOLATION" source="#Armature_Tool_L_pose_matrix-interpolation"/>
      </sampler>
      <channel source="#Armature_Tool_L_pose_matrix-sampler" target="Armature_Tool_L/transform"/>
    </animation>
    <animation id="Armature_Elbow_L_pose_matrix">
      <source id="Armature_Elbow_L_pose_matrix-input">
        <float_array id="Armature_Elbow_L_pose_matrix-input-array" count="7">0 0.25 0.5 0.55 0.8 1.05 1.1</float_array>
        <technique_common>
          <accessor source="#Armature_Elbow_L_pose_matrix-input-array" count="7" stride="1">
            <param name="TIME" type="float"/>
          </accessor>
        </technique_common>
      </source>
      <source id="Armature_Elbow_L_pose_matrix-output">
        <float_array id="Armature_Elbow_L_pose_matrix-output-array" count="112">-0.9999999 2.38419e-7 -4.55184e-8 -2.98023e-8 3.88827e-8 -5.75092e-8 -0.9999999 0.3000002 -2.08616e-7 -1 -2.80561e-8 1.49012e-8 0 0 0 1 -0.9999999 2.38419e-7 -4.55184e-8 -2.98023e-8 3.88827e-8 -5.75092e-8 -0.9999999 0.3000002 -2.08616e-7 -1 -2.80561e-8 1.49012e-8 0 0 0 1 -0.9999999 2.38419e-7 -4.55184e-8 6.98924e-4 3.88827e-8 -5.75092e-8 -0.9999999 0.4030968 -2.08616e-7 -1 -2.80561e-8 -0.001319349 0 0 0 1 -0.9999999 2.38419e-7 -4.55184e-8 6.98924e-4 3.88827e-8 -5.75092e-8 -0.9999999 0.4030968 -2.08616e-7 -1 -2.80561e-8 -0.001319349 0 0 0 1 -0.9956887 0.09102705 -0.01783761 -0.00436154 0.01653768 -0.01501509 -0.9997505 0.4563197 -0.09127221 -0.9957354 0.01344489 0.006283015 0 0 0 1 -0.9999999 2.38419e-7 -4.55184e-8 -2.98023e-8 3.88827e-8 -5.75092e-8 -0.9999999 0.3000002 -2.08616e-7 -1 -2.80561e-8 1.49012e-8 0 0 0 1 -0.9999999 2.38419e-7 -4.55184e-8 -2.98023e-8 3.88827e-8 -5.75092e-8 -0.9999999 0.3000002 -2.08616e-7 -1 -2.80561e-8 1.49012e-8 0 0 0 1</float_array>
        <technique_common>
          <accessor source="#Armature_Elbow_L_pose_matrix-output-array" count="7" stride="16">
            <param name="TRANSFORM" type="float4x4"/>
          </accessor>
        </technique_common>
      </source>
      <source id="Armature_Elbow_L_pose_matrix-interpolation">
        <Name_array id="Armature_Elbow_L_pose_matrix-interpolation-array" count="7">LINEAR LINEAR LINEAR LINEAR LINEAR LINEAR LINEAR</Name_array>
        <technique_common>
          <accessor source="#Armature_Elbow_L_pose_matrix-interpolation-array" count="7" stride="1">
            <param name="INTERPOLATION" type="name"/>
          </accessor>
        </technique_common>
      </source>
      <sampler id="Armature_Elbow_L_pose_matrix-sampler">
        <input semantic="INPUT" source="#Armature_Elbow_L_pose_matrix-input"/>
        <input semantic="OUTPUT" source="#Armature_Elbow_L_pose_matrix-output"/>
        <input semantic="INTERPOLATION" source="#Armature_Elbow_L_pose_matrix-interpolation"/>
      </sampler>
      <channel source="#Armature_Elbow_L_pose_matrix-sampler" target="Armature_Elbow_L/transform"/>
    </animation>
  </library_animations>
  <library_controllers/>
  <library_visual_scenes>
    <visual_scene id="Scene" name="Scene">
      <node id="Armature" name="Armature" type="NODE">
        <matrix sid="transform">1 0 0 2.17394e-5 0 1 0 -4.11466e-5 0 0 1 0.01021957 0 0 0 1</matrix>
        <node id="Armature_Root" name="Root" sid="Root" type="JOINT">
          <matrix sid="transform">1 0 0 -4.6045e-6 0 0 -1 9.46418e-4 0 1 0 0.7639716 0 0 0 1</matrix>
          <node id="Armature_Thigh_R" name="Thigh_R" sid="Thigh_R" type="JOINT">
            <matrix sid="transform">1 -4.77193e-7 -1.50996e-7 0.124994 -4.77193e-7 -1 3.97661e-7 -0.002830565 -1.50996e-7 -3.97661e-7 -1 -1.1839e-5 0 0 0 1</matrix>
            <node id="Armature_Leg_R" name="Leg_R" sid="Leg_R" type="JOINT">
              <matrix sid="transform">1 4.77193e-7 8.02679e-7 0 -4.77194e-7 1 3.97661e-7 0.3747202 -8.02679e-7 -3.97661e-7 1 0 0 0 0 1</matrix>
              <extra>
                <technique profile="blender">
                  <connect sid="connect" type="bool">1</connect>
                  <layer sid="layer" type="string">0</layer>
                  <roll sid="roll" type="float">6.51683e-7</roll>
                  <tip_x sid="tip_x" type="float">0</tip_x>
                  <tip_y sid="tip_y" type="float">0</tip_y>
                  <tip_z sid="tip_z" type="float">-0.375</tip_z>
                </technique>
              </extra>
            </node>
            <node id="Armature_Knee_R" name="Knee_R" sid="Knee_R" type="JOINT">
              <matrix sid="transform">1 1.50996e-7 -6.48983e-7 0 -6.48983e-7 3.97661e-7 -1 0.3747202 -1.50996e-7 1 3.57628e-7 -5.82077e-11 0 0 0 1</matrix>
              <extra>
                <technique profile="blender">
                  <layer sid="layer" type="string">0</layer>
                  <roll sid="roll" type="float">-1.71789e-7</roll>
                  <tip_x sid="tip_x" type="float">0</tip_x>
                  <tip_y sid="tip_y" type="float">0.09999996</tip_y>
                  <tip_z sid="tip_z" type="float">0</tip_z>
                </technique>
              </extra>
            </node>
            <extra>
              <technique profile="blender">
                <layer sid="layer" type="string">0</layer>
                <roll sid="roll" type="float">1.48862e-7</roll>
              </technique>
            </extra>
          </node>
          <node id="Armature_Thigh_L" name="Thigh_L" sid="Thigh_L" type="JOINT">
            <matrix sid="transform">1 -4.77193e-7 -1.50996e-7 -0.125006 -4.77193e-7 -1 3.17197e-7 -0.002830565 -1.50996e-7 -3.17197e-7 -1 -1.1854e-5 0 0 0 1</matrix>
            <node id="Armature_Leg_L" name="Leg_L" sid="Leg_L" type="JOINT">
              <matrix sid="transform">1 4.77193e-7 8.02679e-7 0 -4.77193e-7 1 3.17196e-7 0.3747203 -8.02679e-7 -3.17197e-7 1 0 0 0 0 1</matrix>
              <extra>
                <technique profile="blender">
                  <connect sid="connect" type="bool">1</connect>
                  <layer sid="layer" type="string">0</layer>
                  <roll sid="roll" type="float">6.51683e-7</roll>
                  <tip_x sid="tip_x" type="float">0</tip_x>
                  <tip_y sid="tip_y" type="float">0</tip_y>
                  <tip_z sid="tip_z" type="float">-0.375</tip_z>
                </technique>
              </extra>
            </node>
            <node id="Armature_Knee_L" name="Knee_L" sid="Knee_L" type="JOINT">
              <matrix sid="transform">1 1.50996e-7 -6.48983e-7 0 -6.48983e-7 3.17197e-7 -1 0.3747203 -1.50996e-7 1 3.57628e-7 0 0 0 0 1</matrix>
              <extra>
                <technique profile="blender">
                  <layer sid="layer" type="string">0</layer>
                  <roll sid="roll" type="float">-1.71789e-7</roll>
                  <tip_x sid="tip_x" type="float">0</tip_x>
                  <tip_y sid="tip_y" type="float">0.09999996</tip_y>
                  <tip_z sid="tip_z" type="float">0</tip_z>
                </technique>
              </extra>
            </node>
            <extra>
              <technique profile="blender">
                <layer sid="layer" type="string">0</layer>
                <roll sid="roll" type="float">1.71787e-7</roll>
              </technique>
            </extra>
          </node>
          <node id="Armature_Torso" name="Torso" sid="Torso" type="JOINT">
            <matrix sid="transform">1 0 0 0 0 1 0 0.05000013 0 0 1 0 0 0 0 1</matrix>
            <node id="Armature_Chest" name="Chest" sid="Chest" type="JOINT">
              <matrix sid="transform">1 1.52595e-7 -1.52595e-7 0 -1.52595e-7 1 2.72558e-7 0.2999997 1.52595e-7 -2.72558e-7 1 0 0 0 0 1</matrix>
              <node id="Armature_Head" name="Head" sid="Head" type="JOINT">
                <matrix sid="transform">1 -1.52595e-7 1.52595e-7 -6.1038e-8 1.52595e-7 1 -2.72558e-7 0.4 -1.52595e-7 2.72558e-7 1 1.09023e-7 0 0 0 1</matrix>
                <extra>
                  <technique profile="blender">
                    <connect sid="connect" type="bool">1</connect>
                    <layer sid="layer" type="string">0</layer>
                    <tip_x sid="tip_x" type="float">0</tip_x>
                    <tip_y sid="tip_y" type="float">0</tip_y>
                    <tip_z sid="tip_z" type="float">0.4449962</tip_z>
                  </technique>
                </extra>
              </node>
              <node id="Armature_Shoulder_R" name="Shoulder_R" sid="Shoulder_R" type="JOINT">
                <matrix sid="transform">2.05163e-7 0.9521141 0.3057426 -8.94106e-8 -7.76062e-7 -0.3057426 0.9521142 0.4 0.9999999 -3.57628e-7 6.72301e-7 1.72062e-7 0 0 0 1</matrix>
                <node id="Armature_Arm_R" name="Arm_R" sid="Arm_R" type="JOINT">
                  <matrix sid="transform">7.38973e-8 2.98023e-7 -1 0 0.9521143 0.3057428 1.93715e-7 0.3938605 0.3057427 -0.9521143 -3.8743e-7 1.2666e-7 0 0 0 1</matrix>
                  <node id="Armature_Hand_R" name="Hand_R" sid="Hand_R" type="JOINT">
                    <matrix sid="transform">1 6.07185e-8 2.31636e-7 -2.98023e-8 -8.58182e-8 0.9939375 0.1099474 0.3 -2.23556e-7 -0.1099474 0.9939374 -5.82077e-11 0 0 0 1</matrix>
                    <node id="Armature_Tool_R" name="Tool_R" sid="Tool_R" type="JOINT">
                      <matrix sid="transform">1 4.32067e-9 2.38236e-7 5.96046e-8 2.60236e-12 -0.9998358 0.01812222 0.2728585 2.38131e-7 -0.01812222 -0.9992322 1.49012e-8 0 0 0 1</matrix>
                      <extra>
                        <technique profile="blender">
                          <layer sid="layer" type="string">0</layer>
                          <tip_x sid="tip_x" type="float">0</tip_x>
                          <tip_y sid="tip_y" type="float">0.02999997</tip_y>
                          <tip_z sid="tip_z" type="float">0.3250002</tip_z>
                        </technique>
                      </extra>
                    </node>
                    <extra>
                      <technique profile="blender">
                        <connect sid="connect" type="bool">1</connect>
                        <layer sid="layer" type="string">0</layer>
                        <roll sid="roll" type="float">2.38419e-7</roll>
                        <tip_x sid="tip_x" type="float">0</tip_x>
                        <tip_y sid="tip_y" type="float">-0.02999997</tip_y>
                        <tip_z sid="tip_z" type="float">-0.2712038</tip_z>
                      </technique>
                    </extra>
                  </node>
                  <node id="Armature_Elbow_R" name="Elbow_R" sid="Elbow_R" type="JOINT">
                    <matrix sid="transform">-1 1.34175e-8 -1.64413e-7 1.19209e-7 1.64413e-7 -7.54001e-8 -1 0.3000001 -1.34175e-8 -1 3.1591e-8 -6.63567e-8 0 0 0 1</matrix>
                    <extra>
                      <technique profile="blender">
                        <layer sid="layer" type="string">0</layer>
                        <tip_x sid="tip_x" type="float">0</tip_x>
                        <tip_y sid="tip_y" type="float">-0.09999996</tip_y>
                        <tip_z sid="tip_z" type="float">0</tip_z>
                      </technique>
                    </extra>
                  </node>
                  <extra>
                    <technique profile="blender">
                      <connect sid="connect" type="bool">1</connect>
                      <layer sid="layer" type="string">0</layer>
                      <roll sid="roll" type="float">2.38419e-7</roll>
                    </technique>
                  </extra>
                </node>
                <extra>
                  <technique profile="blender">
                    <connect sid="connect" type="bool">1</connect>
                    <layer sid="layer" type="string">0</layer>
                    <roll sid="roll" type="float">0.310719</roll>
                  </technique>
                </extra>
              </node>
              <node id="Armature_Shoulder_L" name="Shoulder_L" sid="Shoulder_L" type="JOINT">
                <matrix sid="transform">-6.74758e-7 -0.9521142 -0.3057421 4.54747e-13 1.8917e-6 -0.3057421 0.9521143 0.3999996 -0.9999998 1.78814e-7 2.00187e-6 0 0 0 0 1</matrix>
                <node id="Armature_Arm_L" name="Arm_L" sid="Arm_L" type="JOINT">
                  <matrix sid="transform">-9.19767e-7 -1.54972e-6 1 0 -0.9521145 0.305742 -3.94881e-7 0.3938603 -0.3057419 -0.9521144 -1.78814e-6 -3.72529e-8 0 0 0 1</matrix>
                  <node id="Armature_Hand_L" name="Hand_L" sid="Hand_L" type="JOINT">
                    <matrix sid="transform">1 -4.48291e-8 -1.69501e-7 0 6.31935e-8 0.9939375 0.1099472 0.3000001 1.63544e-7 -0.1099472 0.9939374 -5.82077e-11 0 0 0 1</matrix>
                    <node id="Armature_Tool_L" name="Tool_L" sid="Tool_L" type="JOINT">
                      <matrix sid="transform">0.9999999 4.32068e-9 2.38581e-7 -2.98023e-8 -3.63798e-12 -0.9998359 0.0181222 0.2728584 2.38821e-7 -0.01812219 -1.00068 -8.9407e-8 0 0 0 1</matrix>
                      <extra>
                        <technique profile="blender">
                          <layer sid="layer" type="string">0</layer>
                          <tip_x sid="tip_x" type="float">0</tip_x>
                          <tip_y sid="tip_y" type="float">0.02999997</tip_y>
                          <tip_z sid="tip_z" type="float">0.3250001</tip_z>
                        </technique>
                      </extra>
                    </node>
                    <extra>
                      <technique profile="blender">
                        <connect sid="connect" type="bool">1</connect>
                        <layer sid="layer" type="string">0</layer>
                        <roll sid="roll" type="float">2.38419e-7</roll>
                        <tip_x sid="tip_x" type="float">0</tip_x>
                        <tip_y sid="tip_y" type="float">-0.02999997</tip_y>
                        <tip_z sid="tip_z" type="float">-0.2712038</tip_z>
                      </technique>
                    </extra>
                  </node>
                  <node id="Armature_Elbow_L" name="Elbow_L" sid="Elbow_L" type="JOINT">
                    <matrix sid="transform">-1 4.00518e-7 -1.11035e-8 -2.98023e-8 1.11035e-8 -3.73568e-8 -1 0.3000002 -4.00518e-7 -1 -4.44959e-8 2.61352e-8 0 0 0 1</matrix>
                    <extra>
                      <technique profile="blender">
                        <layer sid="layer" type="string">0</layer>
                        <tip_x sid="tip_x" type="float">0</tip_x>
                        <tip_y sid="tip_y" type="float">-0.09999996</tip_y>
                        <tip_z sid="tip_z" type="float">0</tip_z>
                      </technique>
                    </extra>
                  </node>
                  <extra>
                    <technique profile="blender">
                      <connect sid="connect" type="bool">1</connect>
                      <layer sid="layer" type="string">0</layer>
                      <roll sid="roll" type="float">2.38419e-7</roll>
                    </technique>
                  </extra>
                </node>
                <extra>
                  <technique profile="blender">
                    <connect sid="connect" type="bool">1</connect>
                    <layer sid="layer" type="string">0</layer>
                    <roll sid="roll" type="float">-0.3107193</roll>
                  </technique>
                </extra>
              </node>
              <extra>
                <technique profile="blender">
                  <connect sid="connect" type="bool">1</connect>
                  <layer sid="layer" type="string">0</layer>
                  <roll sid="roll" type="float">0</roll>
                </technique>
              </extra>
            </node>
            <extra>
              <technique profile="blender">
                <connect sid="connect" type="bool">1</connect>
                <layer sid="layer" type="string">0</layer>
              </technique>
            </extra>
          </node>
          <extra>
            <technique profile="blender">
              <layer sid="layer" type="string">0</layer>
            </technique>
          </extra>
        </node>
      </node>
    </visual_scene>
  </library_visual_scenes>
  <scene>
    <instance_visual_scene url="#Scene"/>
  </scene>
</COLLADA>