# Blender v2.93.3 OBJ File: 'demon_great_hammer.blend'
# www.blender.org
mtllib demon_great_hammer.mtl
o Plane
v 0.063000 0.063000 0.693000
v 0.063000 0.063000 -0.504000
v -0.063000 0.063000 -0.504000
v -0.063000 0.063000 0.693000
v 0.126000 0.126000 -0.504000
v -0.126000 0.126000 -0.504000
v 0.126000 0.126000 -0.756000
v -0.126000 0.126000 -0.756000
v 0.252000 0.252000 -0.756000
v -0.252000 0.252000 -0.756000
v 0.252000 0.252000 -0.945000
v -0.252000 0.252000 -0.945000
v 0.189000 0.189000 -0.945000
v -0.189000 0.189000 -0.945000
v 0.189000 0.189000 -1.260000
v -0.189000 0.189000 -1.260000
v 0.315000 0.315000 -1.260000
v -0.315000 0.315000 -1.260000
v 0.315000 0.315000 -1.449000
v -0.315001 0.315000 -1.449000
v 0.063000 -0.063000 0.693000
v 0.063000 -0.063000 -0.504000
v -0.063000 -0.063000 -0.504000
v -0.063000 -0.063000 0.693000
v 0.126000 -0.126000 -0.504000
v -0.126000 -0.126000 -0.504000
v 0.126000 -0.126000 -0.756000
v -0.126000 -0.126000 -0.756000
v 0.252000 -0.252000 -0.756000
v -0.252000 -0.252000 -0.756000
v 0.252000 -0.252000 -0.945000
v -0.252000 -0.252000 -0.945000
v 0.189000 -0.189000 -0.945000
v -0.189000 -0.189000 -0.945000
v 0.189000 -0.189000 -1.260000
v -0.189000 -0.189000 -1.260000
v 0.315000 -0.315000 -1.260000
v -0.315000 -0.315000 -1.260000
v 0.315000 -0.315000 -1.449000
v -0.315001 -0.315000 -1.449000
v -0.063000 0.126000 0.945000
v 0.126000 0.126000 0.945000
v 0.126000 0.063000 0.945000
v 0.063000 0.063000 0.693000
v 0.063000 0.063000 0.945000
v 0.063000 0.126000 0.693000
v 0.063000 0.126000 0.945000
v 0.126000 0.063000 0.693000
v 0.126000 0.126000 0.693000
v -0.063000 0.063000 0.945000
v -0.126000 0.063000 0.693000
v -0.126000 0.063000 0.945000
v -0.126000 0.126000 0.693000
v -0.126000 0.126000 0.945000
v -0.063000 0.063000 0.693000
v -0.063000 0.126000 0.693000
v -0.063000 -0.063000 0.945000
v -0.063000 -0.126000 0.945000
v -0.126000 -0.126000 0.693000
v -0.126000 -0.126000 0.945000
v -0.126000 -0.063000 0.693000
v -0.126000 -0.063000 0.945000
v -0.063000 -0.126000 0.693000
v -0.063000 -0.063000 0.693000
v 0.126000 -0.063000 0.945000
v 0.126000 -0.126000 0.945000
v 0.063000 -0.126000 0.693000
v 0.063000 -0.126000 0.945000
v 0.063000 -0.063000 0.693000
v 0.063000 -0.063000 0.945000
v 0.126000 -0.126000 0.693000
v 0.126000 -0.063000 0.693000
vt 0.453125 0.921875
vt 0.453125 0.890625
vt 0.750000 0.890625
vt 0.750000 0.921875
vt 0.593750 0.281250
vt 0.656250 0.281250
vt 0.656250 0.343750
vt 0.593750 0.343750
vt 0.296875 0.890625
vt 0.234375 0.890625
vt 0.234375 0.828125
vt 0.296875 0.828125
vt 0.328125 0.765625
vt 0.203125 0.765625
vt 0.203125 0.718750
vt 0.328125 0.718750
vt 0.515625 0.609375
vt 0.390625 0.609375
vt 0.390625 0.484375
vt 0.515625 0.484375
vt 0.546875 0.843750
vt 0.453125 0.843750
vt 0.453125 0.765625
vt 0.546875 0.765625
vt 0.531250 0.484375
vt 0.375000 0.484375
vt 0.375000 0.328125
vt 0.531250 0.328125
vt 0.281250 0.750000
vt 0.125000 0.750000
vt 0.125000 0.703125
vt 0.281250 0.703125
vt 0.640625 0.796875
vt 0.640625 0.765625
vt 0.609375 0.765625
vt 0.609375 0.796875
vt 0.250000 0.921875
vt 0.250000 0.890625
vt 0.546875 0.890625
vt 0.546875 0.921875
vt 0.390625 0.484375
vt 0.515625 0.484375
vt 0.515625 0.609375
vt 0.390625 0.609375
vt 0.750000 0.890625
vt 0.453125 0.890625
vt 0.250000 0.921875
vt 0.546875 0.921875
vt 0.593750 0.437500
vt 0.593750 0.375000
vt 0.531250 0.375000
vt 0.531250 0.437500
vt 0.328125 0.781250
vt 0.328125 0.734375
vt 0.203125 0.734375
vt 0.203125 0.781250
vt 0.546875 0.765625
vt 0.546875 0.687500
vt 0.453125 0.687500
vt 0.453125 0.765625
vt 0.359375 0.734375
vt 0.359375 0.687500
vt 0.203125 0.687500
vt 0.203125 0.734375
vt 0.703125 0.546875
vt 0.703125 0.453125
vt 0.781250 0.453125
vt 0.781250 0.546875
vt 0.640625 0.203125
vt 0.640625 0.203125
vt 0.562500 0.203125
vt 0.562500 0.203125
vt 0.781250 0.359375
vt 0.781250 0.296875
vt 0.718750 0.296875
vt 0.718750 0.359375
vt 0.703125 0.437500
vt 0.703125 0.375000
vt 0.765625 0.375000
vt 0.765625 0.437500
vt 0.593750 0.562500
vt 0.593750 0.437500
vt 0.640625 0.437500
vt 0.640625 0.562500
vt 0.765625 0.718750
vt 0.765625 0.593750
vt 0.718750 0.593750
vt 0.718750 0.718750
vt 0.046875 0.453125
vt 0.046875 0.296875
vt 0.203125 0.296875
vt 0.203125 0.453125
vt 0.671875 0.281250
vt 0.671875 0.125000
vt 0.718750 0.125000
vt 0.718750 0.281250
vt 0.250000 0.593750
vt 0.250000 0.437500
vt 0.296875 0.437500
vt 0.296875 0.593750
vt 0.546875 0.906250
vt 0.546875 0.890625
vt 0.609375 0.890625
vt 0.609375 0.906250
vt 0.609375 0.921875
vt 0.609375 0.906250
vt 0.546875 0.906250
vt 0.546875 0.921875
vt 0.640625 0.781250
vt 0.640625 0.765625
vt 0.625000 0.765625
vt 0.625000 0.781250
vt 0.640625 0.781250
vt 0.625000 0.781250
vt 0.625000 0.765625
vt 0.640625 0.765625
vt 0.671875 0.890625
vt 0.671875 0.906250
vt 0.609375 0.906250
vt 0.546875 0.890625
vt 0.546875 0.906250
vt 0.609375 0.906250
vt 0.609375 0.890625
vt 0.703125 0.890625
vt 0.703125 0.906250
vt 0.640625 0.906250
vt 0.640625 0.890625
vt 0.703125 0.906250
vt 0.640625 0.906250
vt 0.640625 0.781250
vt 0.640625 0.765625
vt 0.625000 0.765625
vt 0.625000 0.781250
vt 0.640625 0.781250
vt 0.625000 0.781250
vt 0.625000 0.765625
vt 0.640625 0.765625
vt 0.625000 0.890625
vt 0.625000 0.906250
vt 0.687500 0.906250
vt 0.687500 0.890625
vt 0.687500 0.890625
vt 0.687500 0.906250
vt 0.625000 0.906250
vt 0.625000 0.890625
vt 0.562500 0.921875
vt 0.562500 0.906250
vt 0.625000 0.906250
vt 0.625000 0.921875
vt 0.734375 0.921875
vt 0.734375 0.906250
vt 0.671875 0.906250
vt 0.671875 0.921875
vt 0.640625 0.781250
vt 0.640625 0.765625
vt 0.625000 0.765625
vt 0.625000 0.781250
vt 0.640625 0.781250
vt 0.625000 0.781250
vt 0.625000 0.765625
vt 0.640625 0.765625
vt 0.640625 0.890625
vt 0.640625 0.906250
vt 0.578125 0.906250
vt 0.578125 0.890625
vt 0.593750 0.921875
vt 0.593750 0.906250
vt 0.656250 0.906250
vt 0.656250 0.921875
vt 0.531250 0.921875
vt 0.531250 0.906250
vt 0.593750 0.906250
vt 0.593750 0.921875
vt 0.640625 0.921875
vt 0.640625 0.906250
vt 0.578125 0.906250
vt 0.578125 0.921875
vt 0.640625 0.781250
vt 0.640625 0.765625
vt 0.625000 0.765625
vt 0.625000 0.781250
vt 0.640625 0.781250
vt 0.625000 0.781250
vt 0.625000 0.765625
vt 0.640625 0.765625
vt 0.656250 0.890625
vt 0.656250 0.906250
vt 0.593750 0.906250
vt 0.593750 0.890625
vt 0.656250 0.890625
vt 0.656250 0.906250
vt 0.718750 0.906250
vt 0.718750 0.890625
vn 0.0000 1.0000 -0.0000
vn 0.0000 0.0000 1.0000
vn -0.0000 0.0000 -1.0000
vn -1.0000 0.0000 0.0000
vn 1.0000 0.0000 -0.0000
vn 0.0000 -1.0000 -0.0000
usemtl Material.001
s off
f 2/1/1 3/2/1 4/3/1 1/4/1
f 5/5/2 6/6/2 26/7/2 25/8/2
f 6/9/1 5/10/1 7/11/1 8/12/1
f 10/13/1 9/14/1 11/15/1 12/16/1
f 12/17/3 11/18/3 31/19/3 32/20/3
f 14/21/1 13/22/1 15/23/1 16/24/1
f 18/25/2 38/26/2 37/27/2 17/28/2
f 18/29/1 17/30/1 19/31/1 20/32/1
f 4/33/2 24/34/2 21/35/2 1/36/2
f 3/37/4 23/38/4 24/39/4 4/40/4
f 9/41/2 10/42/2 30/43/2 29/44/2
f 1/4/5 21/45/5 22/46/5 2/1/5
f 22/47/6 21/48/6 24/39/6 23/38/6
f 26/49/6 28/50/6 27/51/6 25/52/6
f 30/53/6 32/54/6 31/55/6 29/56/6
f 34/57/6 36/58/6 35/59/6 33/60/6
f 38/61/6 40/62/6 39/63/6 37/64/6
f 16/65/4 36/66/4 34/67/4 14/68/4
f 13/69/5 33/70/5 35/71/5 15/72/5
f 5/73/5 25/74/5 27/75/5 7/76/5
f 8/77/4 28/78/4 26/79/4 6/80/4
f 12/81/4 32/82/4 30/83/4 10/84/4
f 9/85/5 29/86/5 31/87/5 11/88/5
f 19/89/3 39/90/3 40/91/3 20/92/3
f 17/93/5 37/94/5 39/95/5 19/96/5
f 20/97/4 40/98/4 38/99/4 18/100/4
f 44/101/6 48/102/6 43/103/6 45/104/6
f 46/105/4 44/106/4 45/107/4 47/108/4
f 47/109/2 45/110/2 43/111/2 42/112/2
f 46/113/3 49/114/3 48/115/3 44/116/3
f 48/117/5 49/118/5 42/119/5 43/103/5
f 49/120/1 46/121/1 47/122/1 42/123/1
f 51/124/6 55/125/6 50/126/6 52/127/6
f 53/128/4 51/124/4 52/127/4 54/129/4
f 54/130/2 52/131/2 50/132/2 41/133/2
f 53/134/3 56/135/3 55/136/3 51/137/3
f 55/138/5 56/139/5 41/140/5 50/141/5
f 56/142/1 53/143/1 54/144/1 41/145/1
f 59/146/6 63/147/6 58/148/6 60/149/6
f 61/150/4 59/151/4 60/152/4 62/153/4
f 62/154/2 60/155/2 58/156/2 57/157/2
f 61/158/3 64/159/3 63/160/3 59/161/3
f 63/162/5 64/163/5 57/164/5 58/165/5
f 64/166/1 61/167/1 62/168/1 57/169/1
f 67/170/6 71/171/6 66/172/6 68/173/6
f 69/174/4 67/175/4 68/176/4 70/177/4
f 70/178/2 68/179/2 66/180/2 65/181/2
f 69/182/3 72/183/3 71/184/3 67/185/3
f 71/186/5 72/187/5 65/188/5 66/189/5
f 72/190/1 69/191/1 70/192/1 65/193/1
