# Blender v2.93.3 OBJ File: ''
# www.blender.org
mtllib winged_spear.mtl
o cube
v 0.075000 -0.012500 -0.012500
v -0.012500 -0.012500 -0.012500
v -0.012500 2.512500 -0.012500
v 0.075000 2.512500 -0.012500
v 0.075000 -0.012500 0.075000
v 0.075000 2.512500 0.075000
v -0.012500 -0.012500 0.075000
v -0.012500 2.512500 0.075000
v 0.131250 2.056250 -0.006250
v -0.068750 2.056250 -0.006250
v -0.068750 2.131250 -0.006250
v 0.131250 2.131250 -0.006250
v 0.131250 2.056250 0.068750
v 0.131250 2.131250 0.068750
v -0.068750 2.056250 0.068750
v -0.068750 2.131250 0.068750
v 0.125000 2.250000 0.000000
v -0.062500 2.250000 0.000000
v -0.062500 2.500000 0.000000
v 0.125000 2.500000 0.000000
v 0.125000 2.250000 0.062500
v 0.125000 2.500000 0.062500
v -0.062500 2.250000 0.062500
v -0.062500 2.500000 0.062500
v 0.098750 2.495000 0.010625
v -0.036250 2.495000 0.010625
v -0.036250 2.567500 0.010625
v 0.098750 2.567500 0.010625
v 0.098750 2.495000 0.051875
v 0.098750 2.567500 0.051875
v -0.036250 2.495000 0.051875
v -0.036250 2.567500 0.051875
v 0.078125 2.562500 0.000000
v -0.015625 2.562500 0.000000
v -0.015625 2.625000 0.000000
v 0.078125 2.625000 0.000000
v 0.078125 2.562500 0.062500
v 0.078125 2.625000 0.062500
v -0.015625 2.562500 0.062500
v -0.015625 2.625000 0.062500
v 0.068750 2.493750 -0.006250
v -0.006250 2.493750 -0.006250
v -0.006250 2.568750 -0.006250
v 0.068750 2.568750 -0.006250
v 0.068750 2.493750 0.068750
v 0.068750 2.568750 0.068750
v -0.006250 2.493750 0.068750
v -0.006250 2.568750 0.068750
v 0.131250 2.243750 0.009375
v -0.068750 2.243750 0.009375
v -0.068750 2.506250 0.009375
v 0.131250 2.506250 0.009375
v 0.131250 2.243750 0.053125
v 0.131250 2.506250 0.053125
v -0.068750 2.243750 0.053125
v -0.068750 2.506250 0.053125
v 0.093750 2.500000 0.000000
v -0.031250 2.500000 0.000000
v -0.031250 2.562500 0.000000
v 0.093750 2.562500 0.000000
v 0.093750 2.500000 0.062500
v 0.093750 2.562500 0.062500
v -0.031250 2.500000 0.062500
v -0.031250 2.562500 0.062500
v 0.081875 2.558750 0.011875
v -0.019375 2.558750 0.011875
v -0.019375 2.628750 0.011875
v 0.081875 2.628750 0.011875
v 0.081875 2.558750 0.050625
v 0.081875 2.628750 0.050625
v -0.019375 2.558750 0.050625
v -0.019375 2.628750 0.050625
v 0.062500 2.625000 0.015625
v 0.000000 2.625000 0.015625
v 0.000000 2.656250 0.015625
v 0.062500 2.656250 0.015625
v 0.062500 2.625000 0.046875
v 0.062500 2.656250 0.046875
v 0.000000 2.625000 0.046875
v 0.000000 2.656250 0.046875
v 0.046875 2.656250 0.015625
v 0.015625 2.656250 0.015625
v 0.015625 2.687500 0.015625
v 0.046875 2.687500 0.015625
v 0.046875 2.656250 0.046875
v 0.046875 2.687500 0.046875
v 0.015625 2.656250 0.046875
v 0.015625 2.687500 0.046875
v 0.053125 2.556250 0.009375
v 0.009375 2.556250 0.009375
v 0.009375 2.662500 0.009375
v 0.053125 2.662500 0.009375
v 0.053125 2.556250 0.053125
v 0.053125 2.662500 0.053125
v 0.009375 2.556250 0.053125
v 0.009375 2.662500 0.053125
v 0.093750 2.187500 0.000000
v -0.031250 2.187500 0.000000
v -0.031250 2.250000 0.000000
v 0.093750 2.250000 0.000000
v 0.093750 2.187500 0.062500
v 0.093750 2.250000 0.062500
v -0.031250 2.187500 0.062500
v -0.031250 2.250000 0.062500
vt 0.015625 0.359375
vt 0.031250 0.359375
vt 0.031250 0.984375
vt 0.015625 0.984375
vt 0.000000 0.359375
vt 0.000000 0.984375
vt 0.046875 0.359375
vt 0.062500 0.359375
vt 0.062500 0.984375
vt 0.046875 0.984375
vt 0.031250 1.000000
vt 0.015625 1.000000
vt 0.046875 0.984375
vt 0.031250 0.984375
vt 0.031250 1.000000
vt 0.046875 1.000000
vt 0.078125 0.812500
vt 0.125000 0.812500
vt 0.125000 0.828125
vt 0.078125 0.828125
vt 0.062500 0.812500
vt 0.062500 0.828125
vt 0.140625 0.812500
vt 0.187500 0.812500
vt 0.187500 0.828125
vt 0.140625 0.828125
vt 0.125000 0.843750
vt 0.078125 0.843750
vt 0.171875 0.828125
vt 0.125000 0.828125
vt 0.125000 0.843750
vt 0.171875 0.843750
vt 0.078125 0.921875
vt 0.125000 0.921875
vt 0.125000 0.984375
vt 0.078125 0.984375
vt 0.062500 0.921875
vt 0.062500 0.984375
vt 0.140625 0.921875
vt 0.187500 0.921875
vt 0.187500 0.984375
vt 0.140625 0.984375
vt 0.125000 1.000000
vt 0.078125 1.000000
vt 0.171875 0.984375
vt 0.125000 0.984375
vt 0.125000 1.000000
vt 0.171875 1.000000
vt 0.195312 0.976562
vt 0.226562 0.976562
vt 0.226562 0.992188
vt 0.195312 0.992188
vt 0.187500 0.976562
vt 0.187500 0.992188
vt 0.234375 0.976562
vt 0.265625 0.976562
vt 0.265625 0.992188
vt 0.234375 0.992188
vt 0.226562 1.000000
vt 0.195312 1.000000
vt 0.257812 0.992188
vt 0.226562 0.992188
vt 0.226562 1.000000
vt 0.257812 1.000000
vt 0.187500 0.796875
vt 0.210938 0.796875
vt 0.210938 0.812500
vt 0.187500 0.812500
vt 0.171875 0.796875
vt 0.171875 0.812500
vt 0.226562 0.796875
vt 0.250000 0.796875
vt 0.250000 0.812500
vt 0.226562 0.812500
vt 0.210938 0.828125
vt 0.187500 0.828125
vt 0.234375 0.812500
vt 0.210938 0.812500
vt 0.210938 0.828125
vt 0.234375 0.828125
vt 0.203125 0.937500
vt 0.218750 0.937500
vt 0.218750 0.953125
vt 0.203125 0.953125
vt 0.187500 0.937500
vt 0.187500 0.953125
vt 0.234375 0.937500
vt 0.250000 0.937500
vt 0.250000 0.953125
vt 0.234375 0.953125
vt 0.218750 0.968750
vt 0.203125 0.968750
vt 0.234375 0.953125
vt 0.218750 0.953125
vt 0.218750 0.968750
vt 0.234375 0.968750
vt 0.070312 0.851562
vt 0.117188 0.851562
vt 0.117188 0.914062
vt 0.070312 0.914062
vt 0.062500 0.851562
vt 0.062500 0.914062
vt 0.125000 0.851562
vt 0.171875 0.851562
vt 0.171875 0.914062
vt 0.125000 0.914062
vt 0.117188 0.921875
vt 0.070312 0.921875
vt 0.164062 0.914062
vt 0.117188 0.914062
vt 0.117188 0.921875
vt 0.164062 0.921875
vt 0.187500 0.828125
vt 0.218750 0.828125
vt 0.218750 0.843750
vt 0.187500 0.843750
vt 0.171875 0.828125
vt 0.171875 0.843750
vt 0.234375 0.828125
vt 0.265625 0.828125
vt 0.265625 0.843750
vt 0.234375 0.843750
vt 0.218750 0.859375
vt 0.187500 0.859375
vt 0.250000 0.843750
vt 0.218750 0.843750
vt 0.218750 0.859375
vt 0.250000 0.859375
vt 0.070312 0.789062
vt 0.093750 0.789062
vt 0.093750 0.804688
vt 0.070312 0.804688
vt 0.062500 0.789062
vt 0.062500 0.804688
vt 0.101562 0.789062
vt 0.125000 0.789062
vt 0.125000 0.804688
vt 0.101562 0.804688
vt 0.093750 0.812500
vt 0.070312 0.812500
vt 0.117188 0.804688
vt 0.093750 0.804688
vt 0.093750 0.812500
vt 0.117188 0.812500
vt 0.148438 0.781250
vt 0.164062 0.781250
vt 0.164062 0.789062
vt 0.148438 0.789062
vt 0.140625 0.781250
vt 0.140625 0.789062
vt 0.171875 0.781250
vt 0.187500 0.781250
vt 0.187500 0.789062
vt 0.171875 0.789062
vt 0.164062 0.796875
vt 0.148438 0.796875
vt 0.179688 0.789062
vt 0.164062 0.789062
vt 0.164062 0.796875
vt 0.179688 0.796875
vt 0.210938 0.781250
vt 0.218750 0.781250
vt 0.218750 0.789062
vt 0.210938 0.789062
vt 0.203125 0.781250
vt 0.203125 0.789062
vt 0.226562 0.781250
vt 0.234375 0.781250
vt 0.234375 0.789062
vt 0.226562 0.789062
vt 0.218750 0.796875
vt 0.210938 0.796875
vt 0.226562 0.789062
vt 0.218750 0.789062
vt 0.218750 0.796875
vt 0.226562 0.796875
vt 0.195312 0.875000
vt 0.203125 0.875000
vt 0.203125 0.898438
vt 0.195312 0.898438
vt 0.187500 0.875000
vt 0.187500 0.898438
vt 0.210938 0.875000
vt 0.218750 0.875000
vt 0.218750 0.898438
vt 0.210938 0.898438
vt 0.203125 0.906250
vt 0.195312 0.906250
vt 0.210938 0.898438
vt 0.203125 0.898438
vt 0.203125 0.906250
vt 0.210938 0.906250
vt 0.187500 0.906250
vt 0.218750 0.906250
vt 0.218750 0.921875
vt 0.187500 0.921875
vt 0.171875 0.906250
vt 0.171875 0.921875
vt 0.234375 0.906250
vt 0.265625 0.906250
vt 0.265625 0.921875
vt 0.234375 0.921875
vt 0.218750 0.937500
vt 0.187500 0.937500
vt 0.250000 0.921875
vt 0.218750 0.921875
vt 0.218750 0.937500
vt 0.250000 0.937500
vn 0.0000 0.0000 -1.0000
vn 1.0000 0.0000 0.0000
vn 0.0000 -0.0000 1.0000
vn -1.0000 0.0000 0.0000
vn 0.0000 1.0000 0.0000
vn 0.0000 -1.0000 -0.0000
usemtl m_c5ff9a5b-2b9e-f019-3380-85c626bd4323
s 1
f 1/1/1 2/2/1 3/3/1 4/4/1
f 5/5/2 1/1/2 4/4/2 6/6/2
f 7/7/3 5/8/3 6/9/3 8/10/3
f 2/2/4 7/7/4 8/10/4 3/3/4
f 8/11/5 6/12/5 4/4/5 3/3/5
f 2/13/6 1/14/6 5/15/6 7/16/6
f 9/17/1 10/18/1 11/19/1 12/20/1
f 13/21/2 9/17/2 12/20/2 14/22/2
f 15/23/3 13/24/3 14/25/3 16/26/3
f 10/18/4 15/23/4 16/26/4 11/19/4
f 16/27/5 14/28/5 12/20/5 11/19/5
f 10/29/6 9/30/6 13/31/6 15/32/6
f 17/33/1 18/34/1 19/35/1 20/36/1
f 21/37/2 17/33/2 20/36/2 22/38/2
f 23/39/3 21/40/3 22/41/3 24/42/3
f 18/34/4 23/39/4 24/42/4 19/35/4
f 24/43/5 22/44/5 20/36/5 19/35/5
f 18/45/6 17/46/6 21/47/6 23/48/6
f 25/49/1 26/50/1 27/51/1 28/52/1
f 29/53/2 25/49/2 28/52/2 30/54/2
f 31/55/3 29/56/3 30/57/3 32/58/3
f 26/50/4 31/55/4 32/58/4 27/51/4
f 32/59/5 30/60/5 28/52/5 27/51/5
f 26/61/6 25/62/6 29/63/6 31/64/6
f 33/65/1 34/66/1 35/67/1 36/68/1
f 37/69/2 33/65/2 36/68/2 38/70/2
f 39/71/3 37/72/3 38/73/3 40/74/3
f 34/66/4 39/71/4 40/74/4 35/67/4
f 40/75/5 38/76/5 36/68/5 35/67/5
f 34/77/6 33/78/6 37/79/6 39/80/6
f 41/81/1 42/82/1 43/83/1 44/84/1
f 45/85/2 41/81/2 44/84/2 46/86/2
f 47/87/3 45/88/3 46/89/3 48/90/3
f 42/82/4 47/87/4 48/90/4 43/83/4
f 48/91/5 46/92/5 44/84/5 43/83/5
f 42/93/6 41/94/6 45/95/6 47/96/6
f 49/97/1 50/98/1 51/99/1 52/100/1
f 53/101/2 49/97/2 52/100/2 54/102/2
f 55/103/3 53/104/3 54/105/3 56/106/3
f 50/98/4 55/103/4 56/106/4 51/99/4
f 56/107/5 54/108/5 52/100/5 51/99/5
f 50/109/6 49/110/6 53/111/6 55/112/6
f 57/113/1 58/114/1 59/115/1 60/116/1
f 61/117/2 57/113/2 60/116/2 62/118/2
f 63/119/3 61/120/3 62/121/3 64/122/3
f 58/114/4 63/119/4 64/122/4 59/115/4
f 64/123/5 62/124/5 60/116/5 59/115/5
f 58/125/6 57/126/6 61/127/6 63/128/6
f 65/129/1 66/130/1 67/131/1 68/132/1
f 69/133/2 65/129/2 68/132/2 70/134/2
f 71/135/3 69/136/3 70/137/3 72/138/3
f 66/130/4 71/135/4 72/138/4 67/131/4
f 72/139/5 70/140/5 68/132/5 67/131/5
f 66/141/6 65/142/6 69/143/6 71/144/6
f 73/145/1 74/146/1 75/147/1 76/148/1
f 77/149/2 73/145/2 76/148/2 78/150/2
f 79/151/3 77/152/3 78/153/3 80/154/3
f 74/146/4 79/151/4 80/154/4 75/147/4
f 80/155/5 78/156/5 76/148/5 75/147/5
f 74/157/6 73/158/6 77/159/6 79/160/6
f 81/161/1 82/162/1 83/163/1 84/164/1
f 85/165/2 81/161/2 84/164/2 86/166/2
f 87/167/3 85/168/3 86/169/3 88/170/3
f 82/162/4 87/167/4 88/170/4 83/163/4
f 88/171/5 86/172/5 84/164/5 83/163/5
f 82/173/6 81/174/6 85/175/6 87/176/6
f 89/177/1 90/178/1 91/179/1 92/180/1
f 93/181/2 89/177/2 92/180/2 94/182/2
f 95/183/3 93/184/3 94/185/3 96/186/3
f 90/178/4 95/183/4 96/186/4 91/179/4
f 96/187/5 94/188/5 92/180/5 91/179/5
f 90/189/6 89/190/6 93/191/6 95/192/6
f 97/193/1 98/194/1 99/195/1 100/196/1
f 101/197/2 97/193/2 100/196/2 102/198/2
f 103/199/3 101/200/3 102/201/3 104/202/3
f 98/194/4 103/199/4 104/202/4 99/195/4
f 104/203/5 102/204/5 100/196/5 99/195/5
f 98/205/6 97/206/6 101/207/6 103/208/6
