<?xml version="1.0" encoding="utf-8"?>
<COLLADA xmlns="http://www.collada.org/2005/11/COLLADASchema" version="1.4.1" xmlns:xsi="http://www.w3.org/2001/XMLSchema-instance">
  <asset>
    <contributor>
      <author>Blender User</author>
      <authoring_tool>Blender 2.79.0 commit date:2018-03-22, commit time:14:10, hash:f4dc9f9d68b</authoring_tool>
    </contributor>
    <created>2021-01-30T02:25:55</created>
    <modified>2021-01-30T02:25:55</modified>
    <unit name="meter" meter="1"/>
    <up_axis>Z_UP</up_axis>
  </asset>
  <library_images/>
  <library_animations>
    <animation id="Armature_Root_pose_matrix">
      <source id="Armature_Root_pose_matrix-input">
        <float_array id="Armature_Root_pose_matrix-input-array" count="4">0 0.1 0.25 0.3333333</float_array>
        <technique_common>
          <accessor source="#Armature_Root_pose_matrix-input-array" count="4" stride="1">
            <param name="TIME" type="float"/>
          </accessor>
        </technique_common>
      </source>
      <source id="Armature_Root_pose_matrix-output">
        <float_array id="Armature_Root_pose_matrix-output-array" count="64">0.8546893 0 -0.5191399 -4.60446e-6 -0.5191399 0 -0.8546893 9.46417e-4 0 1 0 0.7557245 0 0 0 1 0.8546893 0 -0.5191399 -4.60446e-6 -0.5191399 0 -0.8546893 9.46417e-4 0 1 0 0.7557245 0 0 0 1 0.8546893 0 -0.5191399 -4.60446e-6 -0.5191399 0 -0.8546893 9.46417e-4 0 1 0 0.7557245 0 0 0 1 0.8546893 0 -0.5191399 -4.60446e-6 -0.5191399 0 -0.8546893 9.46417e-4 0 1 0 0.7557245 0 0 0 1</float_array>
        <technique_common>
          <accessor source="#Armature_Root_pose_matrix-output-array" count="4" stride="16">
            <param name="TRANSFORM" type="float4x4"/>
          </accessor>
        </technique_common>
      </source>
      <source id="Armature_Root_pose_matrix-interpolation">
        <Name_array id="Armature_Root_pose_matrix-interpolation-array" count="4">LINEAR LINEAR LINEAR LINEAR</Name_array>
        <technique_common>
          <accessor source="#Armature_Root_pose_matrix-interpolation-array" count="4" stride="1">
            <param name="INTERPOLATION" type="name"/>
          </accessor>
        </technique_common>
      </source>
      <sampler id="Armature_Root_pose_matrix-sampler">
        <input semantic="INPUT" source="#Armature_Root_pose_matrix-input"/>
        <input semantic="OUTPUT" source="#Armature_Root_pose_matrix-output"/>
        <input semantic="INTERPOLATION" source="#Armature_Root_pose_matrix-interpolation"/>
      </sampler>
      <channel source="#Armature_Root_pose_matrix-sampler" target="Armature_Root/transform"/>
    </animation>
    <animation id="Armature_Thigh_R_pose_matrix">
      <source id="Armature_Thigh_R_pose_matrix-input">
        <float_array id="Armature_Thigh_R_pose_matrix-input-array" count="4">0 0.1 0.25 0.3333333</float_array>
        <technique_common>
          <accessor source="#Armature_Thigh_R_pose_matrix-input-array" count="4" stride="1">
            <param name="TIME" type="float"/>
          </accessor>
        </technique_common>
      </source>
      <source id="Armature_Thigh_R_pose_matrix-output">
        <float_array id="Armature_Thigh_R_pose_matrix-output-array" count="64">0.9961223 0.05638598 -0.06752786 0.1249939 0.06886791 -0.9774261 0.1997285 -0.002830744 -0.05474174 -0.2036037 -0.977522 -1.18469e-5 0 0 0 1 0.9961223 0.05638598 -0.06752786 0.1249939 0.06886791 -0.9774261 0.1997285 -0.002830744 -0.05474174 -0.2036037 -0.977522 -1.18469e-5 0 0 0 1 0.9961223 0.05638598 -0.06752786 0.1249939 0.06886791 -0.9774261 0.1997285 -0.002830744 -0.05474174 -0.2036037 -0.977522 -1.18469e-5 0 0 0 1 0.9961223 0.05638598 -0.06752786 0.1249939 0.06886791 -0.9774261 0.1997285 -0.002830744 -0.05474174 -0.2036037 -0.977522 -1.18469e-5 0 0 0 1</float_array>
        <technique_common>
          <accessor source="#Armature_Thigh_R_pose_matrix-output-array" count="4" stride="16">
            <param name="TRANSFORM" type="float4x4"/>
          </accessor>
        </technique_common>
      </source>
      <source id="Armature_Thigh_R_pose_matrix-interpolation">
        <Name_array id="Armature_Thigh_R_pose_matrix-interpolation-array" count="4">LINEAR LINEAR LINEAR LINEAR</Name_array>
        <technique_common>
          <accessor source="#Armature_Thigh_R_pose_matrix-interpolation-array" count="4" stride="1">
            <param name="INTERPOLATION" type="name"/>
          </accessor>
        </technique_common>
      </source>
      <sampler id="Armature_Thigh_R_pose_matrix-sampler">
        <input semantic="INPUT" source="#Armature_Thigh_R_pose_matrix-input"/>
        <input semantic="OUTPUT" source="#Armature_Thigh_R_pose_matrix-output"/>
        <input semantic="INTERPOLATION" source="#Armature_Thigh_R_pose_matrix-interpolation"/>
      </sampler>
      <channel source="#Armature_Thigh_R_pose_matrix-sampler" target="Armature_Thigh_R/transform"/>
    </animation>
    <animation id="Armature_Leg_R_pose_matrix">
      <source id="Armature_Leg_R_pose_matrix-input">
        <float_array id="Armature_Leg_R_pose_matrix-input-array" count="4">0 0.1 0.25 0.3333333</float_array>
        <technique_common>
          <accessor source="#Armature_Leg_R_pose_matrix-input-array" count="4" stride="1">
            <param name="TIME" type="float"/>
          </accessor>
        </technique_common>
      </source>
      <source id="Armature_Leg_R_pose_matrix-output">
        <float_array id="Armature_Leg_R_pose_matrix-output-array" count="64">1 -2.83122e-7 1.75228e-6 0 -1.78814e-7 0.9660986 0.258173 0.3747201 -1.76392e-6 -0.2581729 0.9660987 0 0 0 0 1 1 -2.83122e-7 1.75228e-6 0 -1.78814e-7 0.9660986 0.258173 0.3747201 -1.76392e-6 -0.2581729 0.9660987 0 0 0 0 1 1 -2.83122e-7 1.75228e-6 0 -1.78814e-7 0.9660986 0.258173 0.3747201 -1.76392e-6 -0.2581729 0.9660987 0 0 0 0 1 1 -2.83122e-7 1.75228e-6 0 -1.78814e-7 0.9660986 0.258173 0.3747201 -1.76392e-6 -0.2581729 0.9660987 0 0 0 0 1</float_array>
        <technique_common>
          <accessor source="#Armature_Leg_R_pose_matrix-output-array" count="4" stride="16">
            <param name="TRANSFORM" type="float4x4"/>
          </accessor>
        </technique_common>
      </source>
      <source id="Armature_Leg_R_pose_matrix-interpolation">
        <Name_array id="Armature_Leg_R_pose_matrix-interpolation-array" count="4">LINEAR LINEAR LINEAR LINEAR</Name_array>
        <technique_common>
          <accessor source="#Armature_Leg_R_pose_matrix-interpolation-array" count="4" stride="1">
            <param name="INTERPOLATION" type="name"/>
          </accessor>
        </technique_common>
      </source>
      <sampler id="Armature_Leg_R_pose_matrix-sampler">
        <input semantic="INPUT" source="#Armature_Leg_R_pose_matrix-input"/>
        <input semantic="OUTPUT" source="#Armature_Leg_R_pose_matrix-output"/>
        <input semantic="INTERPOLATION" source="#Armature_Leg_R_pose_matrix-interpolation"/>
      </sampler>
      <channel source="#Armature_Leg_R_pose_matrix-sampler" target="Armature_Leg_R/transform"/>
    </animation>
    <animation id="Armature_Knee_R_pose_matrix">
      <source id="Armature_Knee_R_pose_matrix-input">
        <float_array id="Armature_Knee_R_pose_matrix-input-array" count="4">0 0.1 0.25 0.3333333</float_array>
        <technique_common>
          <accessor source="#Armature_Knee_R_pose_matrix-input-array" count="4" stride="1">
            <param name="TIME" type="float"/>
          </accessor>
        </technique_common>
      </source>
      <source id="Armature_Knee_R_pose_matrix-output">
        <float_array id="Armature_Knee_R_pose_matrix-output-array" count="64">1 5.40167e-8 -2.45869e-7 0 -2.38419e-7 6.55651e-7 -1 0.3747201 -4.47035e-8 1 6.10948e-7 0 0 0 0 1 1 5.40167e-8 -2.45869e-7 0 -2.38419e-7 6.55651e-7 -1 0.3747201 -4.47035e-8 1 6.10948e-7 0 0 0 0 1 1 5.40167e-8 -2.45869e-7 0 -2.38419e-7 6.55651e-7 -1 0.3747201 -4.47035e-8 1 6.10948e-7 0 0 0 0 1 1 5.40167e-8 -2.45869e-7 0 -2.38419e-7 6.55651e-7 -1 0.3747201 -4.47035e-8 1 6.10948e-7 0 0 0 0 1</float_array>
        <technique_common>
          <accessor source="#Armature_Knee_R_pose_matrix-output-array" count="4" stride="16">
            <param name="TRANSFORM" type="float4x4"/>
          </accessor>
        </technique_common>
      </source>
      <source id="Armature_Knee_R_pose_matrix-interpolation">
        <Name_array id="Armature_Knee_R_pose_matrix-interpolation-array" count="4">LINEAR LINEAR LINEAR LINEAR</Name_array>
        <technique_common>
          <accessor source="#Armature_Knee_R_pose_matrix-interpolation-array" count="4" stride="1">
            <param name="INTERPOLATION" type="name"/>
          </accessor>
        </technique_common>
      </source>
      <sampler id="Armature_Knee_R_pose_matrix-sampler">
        <input semantic="INPUT" source="#Armature_Knee_R_pose_matrix-input"/>
        <input semantic="OUTPUT" source="#Armature_Knee_R_pose_matrix-output"/>
        <input semantic="INTERPOLATION" source="#Armature_Knee_R_pose_matrix-interpolation"/>
      </sampler>
      <channel source="#Armature_Knee_R_pose_matrix-sampler" target="Armature_Knee_R/transform"/>
    </animation>
    <animation id="Armature_Thigh_L_pose_matrix">
      <source id="Armature_Thigh_L_pose_matrix-input">
        <float_array id="Armature_Thigh_L_pose_matrix-input-array" count="4">0 0.1 0.25 0.3333333</float_array>
        <technique_common>
          <accessor source="#Armature_Thigh_L_pose_matrix-input-array" count="4" stride="1">
            <param name="TIME" type="float"/>
          </accessor>
        </technique_common>
      </source>
      <source id="Armature_Thigh_L_pose_matrix-output">
        <float_array id="Armature_Thigh_L_pose_matrix-output-array" count="64">0.8664885 -0.1356089 -0.4804246 -0.1250061 -0.02710815 -0.9737571 0.2259686 -0.002830744 -0.4984603 -0.1827754 -0.8474257 -1.18469e-5 0 0 0 1 0.8664885 -0.1356089 -0.4804246 -0.1250061 -0.02710815 -0.9737571 0.2259686 -0.002830744 -0.4984603 -0.1827754 -0.8474257 -1.18469e-5 0 0 0 1 0.8664885 -0.1356089 -0.4804246 -0.1250061 -0.02710815 -0.9737571 0.2259686 -0.002830744 -0.4984603 -0.1827754 -0.8474257 -1.18469e-5 0 0 0 1 0.8664885 -0.1356089 -0.4804246 -0.1250061 -0.02710815 -0.9737571 0.2259686 -0.002830744 -0.4984603 -0.1827754 -0.8474257 -1.18469e-5 0 0 0 1</float_array>
        <technique_common>
          <accessor source="#Armature_Thigh_L_pose_matrix-output-array" count="4" stride="16">
            <param name="TRANSFORM" type="float4x4"/>
          </accessor>
        </technique_common>
      </source>
      <source id="Armature_Thigh_L_pose_matrix-interpolation">
        <Name_array id="Armature_Thigh_L_pose_matrix-interpolation-array" count="4">LINEAR LINEAR LINEAR LINEAR</Name_array>
        <technique_common>
          <accessor source="#Armature_Thigh_L_pose_matrix-interpolation-array" count="4" stride="1">
            <param name="INTERPOLATION" type="name"/>
          </accessor>
        </technique_common>
      </source>
      <sampler id="Armature_Thigh_L_pose_matrix-sampler">
        <input semantic="INPUT" source="#Armature_Thigh_L_pose_matrix-input"/>
        <input semantic="OUTPUT" source="#Armature_Thigh_L_pose_matrix-output"/>
        <input semantic="INTERPOLATION" source="#Armature_Thigh_L_pose_matrix-interpolation"/>
      </sampler>
      <channel source="#Armature_Thigh_L_pose_matrix-sampler" target="Armature_Thigh_L/transform"/>
    </animation>
    <animation id="Armature_Leg_L_pose_matrix">
      <source id="Armature_Leg_L_pose_matrix-input">
        <float_array id="Armature_Leg_L_pose_matrix-input-array" count="4">0 0.1 0.25 0.3333333</float_array>
        <technique_common>
          <accessor source="#Armature_Leg_L_pose_matrix-input-array" count="4" stride="1">
            <param name="TIME" type="float"/>
          </accessor>
        </technique_common>
      </source>
      <source id="Armature_Leg_L_pose_matrix-output">
        <float_array id="Armature_Leg_L_pose_matrix-output-array" count="64">1 -4.56348e-7 8.00414e-7 0 2.51457e-7 0.9709386 0.2393281 0.3747201 -8.81962e-7 -0.2393281 0.9709386 -1.49012e-8 0 0 0 1 1 -4.56348e-7 8.00414e-7 0 2.51457e-7 0.9709386 0.2393281 0.3747201 -8.81962e-7 -0.2393281 0.9709386 -1.49012e-8 0 0 0 1 1 -4.56348e-7 8.00414e-7 0 2.51457e-7 0.9709386 0.2393281 0.3747201 -8.81962e-7 -0.2393281 0.9709386 -1.49012e-8 0 0 0 1 1 -4.56348e-7 8.00414e-7 0 2.51457e-7 0.9709386 0.2393281 0.3747201 -8.81962e-7 -0.2393281 0.9709386 -1.49012e-8 0 0 0 1</float_array>
        <technique_common>
          <accessor source="#Armature_Leg_L_pose_matrix-output-array" count="4" stride="16">
            <param name="TRANSFORM" type="float4x4"/>
          </accessor>
        </technique_common>
      </source>
      <source id="Armature_Leg_L_pose_matrix-interpolation">
        <Name_array id="Armature_Leg_L_pose_matrix-interpolation-array" count="4">LINEAR LINEAR LINEAR LINEAR</Name_array>
        <technique_common>
          <accessor source="#Armature_Leg_L_pose_matrix-interpolation-array" count="4" stride="1">
            <param name="INTERPOLATION" type="name"/>
          </accessor>
        </technique_common>
      </source>
      <sampler id="Armature_Leg_L_pose_matrix-sampler">
        <input semantic="INPUT" source="#Armature_Leg_L_pose_matrix-input"/>
        <input semantic="OUTPUT" source="#Armature_Leg_L_pose_matrix-output"/>
        <input semantic="INTERPOLATION" source="#Armature_Leg_L_pose_matrix-interpolation"/>
      </sampler>
      <channel source="#Armature_Leg_L_pose_matrix-sampler" target="Armature_Leg_L/transform"/>
    </animation>
    <animation id="Armature_Knee_L_pose_matrix">
      <source id="Armature_Knee_L_pose_matrix-input">
        <float_array id="Armature_Knee_L_pose_matrix-input-array" count="4">0 0.1 0.25 0.3333333</float_array>
        <technique_common>
          <accessor source="#Armature_Knee_L_pose_matrix-input-array" count="4" stride="1">
            <param name="TIME" type="float"/>
          </accessor>
        </technique_common>
      </source>
      <source id="Armature_Knee_L_pose_matrix-output">
        <float_array id="Armature_Knee_L_pose_matrix-output-array" count="64">1 6.33299e-8 -2.38419e-7 0 -2.40281e-7 6.4075e-7 -0.9999999 0.3747201 -5.96046e-8 0.9999999 5.81145e-7 -1.49012e-8 0 0 0 1 1 6.33299e-8 -2.38419e-7 0 -2.40281e-7 6.4075e-7 -0.9999999 0.3747201 -5.96046e-8 0.9999999 5.81145e-7 -1.49012e-8 0 0 0 1 1 6.33299e-8 -2.38419e-7 0 -2.40281e-7 6.4075e-7 -0.9999999 0.3747201 -5.96046e-8 0.9999999 5.81145e-7 -1.49012e-8 0 0 0 1 1 6.33299e-8 -2.38419e-7 0 -2.40281e-7 6.4075e-7 -0.9999999 0.3747201 -5.96046e-8 0.9999999 5.81145e-7 -1.49012e-8 0 0 0 1</float_array>
        <technique_common>
          <accessor source="#Armature_Knee_L_pose_matrix-output-array" count="4" stride="16">
            <param name="TRANSFORM" type="float4x4"/>
          </accessor>
        </technique_common>
      </source>
      <source id="Armature_Knee_L_pose_matrix-interpolation">
        <Name_array id="Armature_Knee_L_pose_matrix-interpolation-array" count="4">LINEAR LINEAR LINEAR LINEAR</Name_array>
        <technique_common>
          <accessor source="#Armature_Knee_L_pose_matrix-interpolation-array" count="4" stride="1">
            <param name="INTERPOLATION" type="name"/>
          </accessor>
        </technique_common>
      </source>
      <sampler id="Armature_Knee_L_pose_matrix-sampler">
        <input semantic="INPUT" source="#Armature_Knee_L_pose_matrix-input"/>
        <input semantic="OUTPUT" source="#Armature_Knee_L_pose_matrix-output"/>
        <input semantic="INTERPOLATION" source="#Armature_Knee_L_pose_matrix-interpolation"/>
      </sampler>
      <channel source="#Armature_Knee_L_pose_matrix-sampler" target="Armature_Knee_L/transform"/>
    </animation>
    <animation id="Armature_Torso_pose_matrix">
      <source id="Armature_Torso_pose_matrix-input">
        <float_array id="Armature_Torso_pose_matrix-input-array" count="4">0 0.1 0.25 0.3333333</float_array>
        <technique_common>
          <accessor source="#Armature_Torso_pose_matrix-input-array" count="4" stride="1">
            <param name="TIME" type="float"/>
          </accessor>
        </technique_common>
      </source>
      <source id="Armature_Torso_pose_matrix-output">
        <float_array id="Armature_Torso_pose_matrix-output-array" count="64">0.9875677 0.1554929 -0.0230673 0 -0.1558779 0.9497403 -0.2714691 0.05000019 -0.02030355 0.2716898 0.9621706 0 0 0 0 1 0.9807605 0.1920799 -0.03484559 0 -0.1926551 0.9235427 -0.3315915 0.05000019 -0.03151062 0.331925 0.9427793 0 0 0 0 1 0.989345 0.144215 -0.01996496 0 -0.1445497 0.9566249 -0.2529315 0.05000019 -0.0173775 0.2531224 0.9672781 0 0 0 0 1 0.9949235 0.100127 -0.01009119 0 -0.1003002 0.9784583 -0.1804418 0.05000019 -0.008193225 0.1805379 0.983534 0 0 0 0 1</float_array>
        <technique_common>
          <accessor source="#Armature_Torso_pose_matrix-output-array" count="4" stride="16">
            <param name="TRANSFORM" type="float4x4"/>
          </accessor>
        </technique_common>
      </source>
      <source id="Armature_Torso_pose_matrix-interpolation">
        <Name_array id="Armature_Torso_pose_matrix-interpolation-array" count="4">LINEAR LINEAR LINEAR LINEAR</Name_array>
        <technique_common>
          <accessor source="#Armature_Torso_pose_matrix-interpolation-array" count="4" stride="1">
            <param name="INTERPOLATION" type="name"/>
          </accessor>
        </technique_common>
      </source>
      <sampler id="Armature_Torso_pose_matrix-sampler">
        <input semantic="INPUT" source="#Armature_Torso_pose_matrix-input"/>
        <input semantic="OUTPUT" source="#Armature_Torso_pose_matrix-output"/>
        <input semantic="INTERPOLATION" source="#Armature_Torso_pose_matrix-interpolation"/>
      </sampler>
      <channel source="#Armature_Torso_pose_matrix-sampler" target="Armature_Torso/transform"/>
    </animation>
    <animation id="Armature_Chest_pose_matrix">
      <source id="Armature_Chest_pose_matrix-input">
        <float_array id="Armature_Chest_pose_matrix-input-array" count="4">0 0.1 0.25 0.3333333</float_array>
        <technique_common>
          <accessor source="#Armature_Chest_pose_matrix-input-array" count="4" stride="1">
            <param name="TIME" type="float"/>
          </accessor>
        </technique_common>
      </source>
      <source id="Armature_Chest_pose_matrix-output">
        <float_array id="Armature_Chest_pose_matrix-output-array" count="64">0.9248108 0.3577541 -0.1293709 -7.45058e-9 -0.3616369 0.7211811 -0.590861 0.3 -0.118083 0.5932199 0.7963333 0 0 0 0 1 0.9257559 0.3558747 -0.127786 -7.45058e-9 -0.3597086 0.7246853 -0.5877421 0.3 -0.116558 0.5900715 0.798893 0 0 0 0 1 0.909694 0.3853946 -0.1546862 -7.45058e-9 -0.390058 0.6651241 -0.6367612 0.3 -0.1425188 0.6395944 0.7553857 0 0 0 0 1 0.942958 0.3178894 -0.09887603 -7.45058e-9 -0.320835 0.7884751 -0.5247591 0.3 -0.08885401 0.5265487 0.845489 0 0 0 0 1</float_array>
        <technique_common>
          <accessor source="#Armature_Chest_pose_matrix-output-array" count="4" stride="16">
            <param name="TRANSFORM" type="float4x4"/>
          </accessor>
        </technique_common>
      </source>
      <source id="Armature_Chest_pose_matrix-interpolation">
        <Name_array id="Armature_Chest_pose_matrix-interpolation-array" count="4">LINEAR LINEAR LINEAR LINEAR</Name_array>
        <technique_common>
          <accessor source="#Armature_Chest_pose_matrix-interpolation-array" count="4" stride="1">
            <param name="INTERPOLATION" type="name"/>
          </accessor>
        </technique_common>
      </source>
      <sampler id="Armature_Chest_pose_matrix-sampler">
        <input semantic="INPUT" source="#Armature_Chest_pose_matrix-input"/>
        <input semantic="OUTPUT" source="#Armature_Chest_pose_matrix-output"/>
        <input semantic="INTERPOLATION" source="#Armature_Chest_pose_matrix-interpolation"/>
      </sampler>
      <channel source="#Armature_Chest_pose_matrix-sampler" target="Armature_Chest/transform"/>
    </animation>
    <animation id="Armature_Head_pose_matrix">
      <source id="Armature_Head_pose_matrix-input">
        <float_array id="Armature_Head_pose_matrix-input-array" count="4">0 0.1 0.25 0.3333333</float_array>
        <technique_common>
          <accessor source="#Armature_Head_pose_matrix-input-array" count="4" stride="1">
            <param name="TIME" type="float"/>
          </accessor>
        </technique_common>
      </source>
      <source id="Armature_Head_pose_matrix-output">
        <float_array id="Armature_Head_pose_matrix-output-array" count="64">0.8573326 -0.4454303 0.2580167 2.98023e-8 -0.002572258 0.4975208 0.8674483 0.3999999 -0.5147563 -0.7443554 0.4253951 0 0 0 0 1 0.8575491 -0.4232315 0.2923775 2.98023e-8 -0.00300111 0.5642571 0.8255937 0.3999999 -0.5143934 -0.7088647 0.482608 0 0 0 0 1 0.8570518 -0.4683063 0.2148289 2.98023e-8 -0.002105364 0.4137703 0.910379 0.3999999 -0.515226 -0.7806942 0.3536367 0 0 0 0 1 0.8577968 -0.3913319 0.3332327 2.98023e-8 -0.003590025 0.6437492 0.7652282 0.3999999 -0.5139765 -0.6576064 0.5508011 0 0 0 0 1</float_array>
        <technique_common>
          <accessor source="#Armature_Head_pose_matrix-output-array" count="4" stride="16">
            <param name="TRANSFORM" type="float4x4"/>
          </accessor>
        </technique_common>
      </source>
      <source id="Armature_Head_pose_matrix-interpolation">
        <Name_array id="Armature_Head_pose_matrix-interpolation-array" count="4">LINEAR LINEAR LINEAR LINEAR</Name_array>
        <technique_common>
          <accessor source="#Armature_Head_pose_matrix-interpolation-array" count="4" stride="1">
            <param name="INTERPOLATION" type="name"/>
          </accessor>
        </technique_common>
      </source>
      <sampler id="Armature_Head_pose_matrix-sampler">
        <input semantic="INPUT" source="#Armature_Head_pose_matrix-input"/>
        <input semantic="OUTPUT" source="#Armature_Head_pose_matrix-output"/>
        <input semantic="INTERPOLATION" source="#Armature_Head_pose_matrix-interpolation"/>
      </sampler>
      <channel source="#Armature_Head_pose_matrix-sampler" target="Armature_Head/transform"/>
    </animation>
    <animation id="Armature_Shoulder_R_pose_matrix">
      <source id="Armature_Shoulder_R_pose_matrix-input">
        <float_array id="Armature_Shoulder_R_pose_matrix-input-array" count="4">0 0.1 0.25 0.3333333</float_array>
        <technique_common>
          <accessor source="#Armature_Shoulder_R_pose_matrix-input-array" count="4" stride="1">
            <param name="TIME" type="float"/>
          </accessor>
        </technique_common>
      </source>
      <source id="Armature_Shoulder_R_pose_matrix-output">
        <float_array id="Armature_Shoulder_R_pose_matrix-output-array" count="64">0.1210372 0.9897791 0.07541119 2.98023e-8 -0.05396831 -0.06929569 0.9961352 0.3999999 0.9911796 -0.1246392 0.04502934 0 0 0 0 1 0.1210372 0.9897791 0.07541119 2.98023e-8 -0.05396831 -0.06929569 0.9961352 0.3999999 0.9911796 -0.1246392 0.04502934 0 0 0 0 1 0.1210372 0.9897791 0.07541119 2.98023e-8 -0.05396831 -0.06929569 0.9961352 0.3999999 0.9911796 -0.1246392 0.04502934 0 0 0 0 1 0.1210372 0.9897791 0.07541119 2.98023e-8 -0.05396831 -0.06929569 0.9961352 0.3999999 0.9911796 -0.1246392 0.04502934 0 0 0 0 1</float_array>
        <technique_common>
          <accessor source="#Armature_Shoulder_R_pose_matrix-output-array" count="4" stride="16">
            <param name="TRANSFORM" type="float4x4"/>
          </accessor>
        </technique_common>
      </source>
      <source id="Armature_Shoulder_R_pose_matrix-interpolation">
        <Name_array id="Armature_Shoulder_R_pose_matrix-interpolation-array" count="4">LINEAR LINEAR LINEAR LINEAR</Name_array>
        <technique_common>
          <accessor source="#Armature_Shoulder_R_pose_matrix-interpolation-array" count="4" stride="1">
            <param name="INTERPOLATION" type="name"/>
          </accessor>
        </technique_common>
      </source>
      <sampler id="Armature_Shoulder_R_pose_matrix-sampler">
        <input semantic="INPUT" source="#Armature_Shoulder_R_pose_matrix-input"/>
        <input semantic="OUTPUT" source="#Armature_Shoulder_R_pose_matrix-output"/>
        <input semantic="INTERPOLATION" source="#Armature_Shoulder_R_pose_matrix-interpolation"/>
      </sampler>
      <channel source="#Armature_Shoulder_R_pose_matrix-sampler" target="Armature_Shoulder_R/transform"/>
    </animation>
    <animation id="Armature_Arm_R_pose_matrix">
      <source id="Armature_Arm_R_pose_matrix-input">
        <float_array id="Armature_Arm_R_pose_matrix-input-array" count="4">0 0.1 0.25 0.3333333</float_array>
        <technique_common>
          <accessor source="#Armature_Arm_R_pose_matrix-input-array" count="4" stride="1">
            <param name="TIME" type="float"/>
          </accessor>
        </technique_common>
      </source>
      <source id="Armature_Arm_R_pose_matrix-output">
        <float_array id="Armature_Arm_R_pose_matrix-output-array" count="64">0.4118323 -0.887628 0.2061823 5.96046e-8 -0.0499557 -0.247912 -0.9674937 0.3938605 0.9098896 0.3881451 -0.1464403 0 0 0 0 1 0.4118323 -0.887628 0.2061823 5.96046e-8 -0.0499557 -0.247912 -0.9674937 0.3938605 0.9098896 0.3881451 -0.1464403 0 0 0 0 1 0.4118323 -0.887628 0.2061823 5.96046e-8 -0.0499557 -0.247912 -0.9674937 0.3938605 0.9098896 0.3881451 -0.1464403 0 0 0 0 1 0.4118323 -0.887628 0.2061823 5.96046e-8 -0.0499557 -0.247912 -0.9674937 0.3938605 0.9098896 0.3881451 -0.1464403 0 0 0 0 1</float_array>
        <technique_common>
          <accessor source="#Armature_Arm_R_pose_matrix-output-array" count="4" stride="16">
            <param name="TRANSFORM" type="float4x4"/>
          </accessor>
        </technique_common>
      </source>
      <source id="Armature_Arm_R_pose_matrix-interpolation">
        <Name_array id="Armature_Arm_R_pose_matrix-interpolation-array" count="4">LINEAR LINEAR LINEAR LINEAR</Name_array>
        <technique_common>
          <accessor source="#Armature_Arm_R_pose_matrix-interpolation-array" count="4" stride="1">
            <param name="INTERPOLATION" type="name"/>
          </accessor>
        </technique_common>
      </source>
      <sampler id="Armature_Arm_R_pose_matrix-sampler">
        <input semantic="INPUT" source="#Armature_Arm_R_pose_matrix-input"/>
        <input semantic="OUTPUT" source="#Armature_Arm_R_pose_matrix-output"/>
        <input semantic="INTERPOLATION" source="#Armature_Arm_R_pose_matrix-interpolation"/>
      </sampler>
      <channel source="#Armature_Arm_R_pose_matrix-sampler" target="Armature_Arm_R/transform"/>
    </animation>
    <animation id="Armature_Hand_R_pose_matrix">
      <source id="Armature_Hand_R_pose_matrix-input">
        <float_array id="Armature_Hand_R_pose_matrix-input-array" count="4">0 0.1 0.25 0.3333333</float_array>
        <technique_common>
          <accessor source="#Armature_Hand_R_pose_matrix-input-array" count="4" stride="1">
            <param name="TIME" type="float"/>
          </accessor>
        </technique_common>
      </source>
      <source id="Armature_Hand_R_pose_matrix-output">
        <float_array id="Armature_Hand_R_pose_matrix-output-array" count="64">0.9999999 -2.94298e-7 3.42727e-7 0 4.02331e-7 0.1099472 -0.9939376 0.3000002 2.32831e-7 0.9939376 0.1099471 0 0 0 0 1 0.9999999 -2.94298e-7 3.42727e-7 0 4.02331e-7 0.1099472 -0.9939376 0.3000002 2.32831e-7 0.9939376 0.1099471 0 0 0 0 1 0.9999999 -2.94298e-7 3.42727e-7 0 4.02331e-7 0.1099472 -0.9939376 0.3000002 2.32831e-7 0.9939376 0.1099471 0 0 0 0 1 0.9999999 -2.94298e-7 3.42727e-7 0 4.02331e-7 0.1099472 -0.9939376 0.3000002 2.32831e-7 0.9939376 0.1099471 0 0 0 0 1</float_array>
        <technique_common>
          <accessor source="#Armature_Hand_R_pose_matrix-output-array" count="4" stride="16">
            <param name="TRANSFORM" type="float4x4"/>
          </accessor>
        </technique_common>
      </source>
      <source id="Armature_Hand_R_pose_matrix-interpolation">
        <Name_array id="Armature_Hand_R_pose_matrix-interpolation-array" count="4">LINEAR LINEAR LINEAR LINEAR</Name_array>
        <technique_common>
          <accessor source="#Armature_Hand_R_pose_matrix-interpolation-array" count="4" stride="1">
            <param name="INTERPOLATION" type="name"/>
          </accessor>
        </technique_common>
      </source>
      <sampler id="Armature_Hand_R_pose_matrix-sampler">
        <input semantic="INPUT" source="#Armature_Hand_R_pose_matrix-input"/>
        <input semantic="OUTPUT" source="#Armature_Hand_R_pose_matrix-output"/>
        <input semantic="INTERPOLATION" source="#Armature_Hand_R_pose_matrix-interpolation"/>
      </sampler>
      <channel source="#Armature_Hand_R_pose_matrix-sampler" target="Armature_Hand_R/transform"/>
    </animation>
    <animation id="Armature_Tool_R_pose_matrix">
      <source id="Armature_Tool_R_pose_matrix-input">
        <float_array id="Armature_Tool_R_pose_matrix-input-array" count="4">0 0.1 0.25 0.3333333</float_array>
        <technique_common>
          <accessor source="#Armature_Tool_R_pose_matrix-input-array" count="4" stride="1">
            <param name="TIME" type="float"/>
          </accessor>
        </technique_common>
      </source>
      <source id="Armature_Tool_R_pose_matrix-output">
        <float_array id="Armature_Tool_R_pose_matrix-output-array" count="64">1 3.35276e-8 2.5332e-7 0 2.23517e-8 -0.9998358 0.01812229 0.272858 2.38419e-7 -0.01812224 -0.9992439 1.19209e-7 0 0 0 1 1 3.35276e-8 2.5332e-7 0 2.23517e-8 -0.9998358 0.01812229 0.272858 2.38419e-7 -0.01812224 -0.9992439 1.19209e-7 0 0 0 1 1 3.35276e-8 2.5332e-7 0 2.23517e-8 -0.9998358 0.01812229 0.272858 2.38419e-7 -0.01812224 -0.9992439 1.19209e-7 0 0 0 1 1 3.35276e-8 2.5332e-7 0 2.23517e-8 -0.9998358 0.01812229 0.272858 2.38419e-7 -0.01812224 -0.9992439 1.19209e-7 0 0 0 1</float_array>
        <technique_common>
          <accessor source="#Armature_Tool_R_pose_matrix-output-array" count="4" stride="16">
            <param name="TRANSFORM" type="float4x4"/>
          </accessor>
        </technique_common>
      </source>
      <source id="Armature_Tool_R_pose_matrix-interpolation">
        <Name_array id="Armature_Tool_R_pose_matrix-interpolation-array" count="4">LINEAR LINEAR LINEAR LINEAR</Name_array>
        <technique_common>
          <accessor source="#Armature_Tool_R_pose_matrix-interpolation-array" count="4" stride="1">
            <param name="INTERPOLATION" type="name"/>
          </accessor>
        </technique_common>
      </source>
      <sampler id="Armature_Tool_R_pose_matrix-sampler">
        <input semantic="INPUT" source="#Armature_Tool_R_pose_matrix-input"/>
        <input semantic="OUTPUT" source="#Armature_Tool_R_pose_matrix-output"/>
        <input semantic="INTERPOLATION" source="#Armature_Tool_R_pose_matrix-interpolation"/>
      </sampler>
      <channel source="#Armature_Tool_R_pose_matrix-sampler" target="Armature_Tool_R/transform"/>
    </animation>
    <animation id="Armature_Elbow_R_pose_matrix">
      <source id="Armature_Elbow_R_pose_matrix-input">
        <float_array id="Armature_Elbow_R_pose_matrix-input-array" count="4">0 0.1 0.25 0.3333333</float_array>
        <technique_common>
          <accessor source="#Armature_Elbow_R_pose_matrix-input-array" count="4" stride="1">
            <param name="TIME" type="float"/>
          </accessor>
        </technique_common>
      </source>
      <source id="Armature_Elbow_R_pose_matrix-output">
        <float_array id="Armature_Elbow_R_pose_matrix-output-array" count="64">-0.9999999 1.80677e-7 -5.96046e-8 7.0858e-4 1.49012e-8 -4.47035e-8 -1 0.4465635 -1.73226e-7 -0.9999999 2.23517e-8 -7.17282e-4 0 0 0 1 -0.9999999 1.80677e-7 -5.96046e-8 7.0858e-4 1.49012e-8 -4.47035e-8 -1 0.4465635 -1.73226e-7 -0.9999999 2.23517e-8 -7.17282e-4 0 0 0 1 -0.9999999 1.80677e-7 -5.96046e-8 7.0858e-4 1.49012e-8 -4.47035e-8 -1 0.4465635 -1.73226e-7 -0.9999999 2.23517e-8 -7.17282e-4 0 0 0 1 -0.9999999 1.80677e-7 -5.96046e-8 7.0858e-4 1.49012e-8 -4.47035e-8 -1 0.4465635 -1.73226e-7 -0.9999999 2.23517e-8 -7.17282e-4 0 0 0 1</float_array>
        <technique_common>
          <accessor source="#Armature_Elbow_R_pose_matrix-output-array" count="4" stride="16">
            <param name="TRANSFORM" type="float4x4"/>
          </accessor>
        </technique_common>
      </source>
      <source id="Armature_Elbow_R_pose_matrix-interpolation">
        <Name_array id="Armature_Elbow_R_pose_matrix-interpolation-array" count="4">LINEAR LINEAR LINEAR LINEAR</Name_array>
        <technique_common>
          <accessor source="#Armature_Elbow_R_pose_matrix-interpolation-array" count="4" stride="1">
            <param name="INTERPOLATION" type="name"/>
          </accessor>
        </technique_common>
      </source>
      <sampler id="Armature_Elbow_R_pose_matrix-sampler">
        <input semantic="INPUT" source="#Armature_Elbow_R_pose_matrix-input"/>
        <input semantic="OUTPUT" source="#Armature_Elbow_R_pose_matrix-output"/>
        <input semantic="INTERPOLATION" source="#Armature_Elbow_R_pose_matrix-interpolation"/>
      </sampler>
      <channel source="#Armature_Elbow_R_pose_matrix-sampler" target="Armature_Elbow_R/transform"/>
    </animation>
    <animation id="Armature_Shoulder_L_pose_matrix">
      <source id="Armature_Shoulder_L_pose_matrix-input">
        <float_array id="Armature_Shoulder_L_pose_matrix-input-array" count="4">0 0.1 0.25 0.3333333</float_array>
        <technique_common>
          <accessor source="#Armature_Shoulder_L_pose_matrix-input-array" count="4" stride="1">
            <param name="TIME" type="float"/>
          </accessor>
        </technique_common>
      </source>
      <source id="Armature_Shoulder_L_pose_matrix-output">
        <float_array id="Armature_Shoulder_L_pose_matrix-output-array" count="64">-0.07384217 -0.9295521 -0.3612203 2.98023e-8 0.02736482 -0.3639614 0.9310119 0.3999999 -0.9968942 0.05886324 0.0523127 0 0 0 0 1 -0.1641093 -0.8921655 -0.420843 2.98023e-8 0.05403373 -0.4341168 0.8992347 0.3999999 -0.9849612 0.124833 0.1194496 0 0 0 0 1 -0.0445856 -0.9393755 -0.3399791 2.98023e-8 0.01713443 -0.3409866 0.939912 0.3999999 -0.9988585 0.03608117 0.0312987 0 0 0 0 1 -5.96046e-8 -0.9521139 -0.3057434 2.98023e-8 1.19209e-7 -0.3057434 0.9521139 0.3999999 -0.9999999 -1.49012e-8 1.19209e-7 0 0 0 0 1</float_array>
        <technique_common>
          <accessor source="#Armature_Shoulder_L_pose_matrix-output-array" count="4" stride="16">
            <param name="TRANSFORM" type="float4x4"/>
          </accessor>
        </technique_common>
      </source>
      <source id="Armature_Shoulder_L_pose_matrix-interpolation">
        <Name_array id="Armature_Shoulder_L_pose_matrix-interpolation-array" count="4">LINEAR LINEAR LINEAR LINEAR</Name_array>
        <technique_common>
          <accessor source="#Armature_Shoulder_L_pose_matrix-interpolation-array" count="4" stride="1">
            <param name="INTERPOLATION" type="name"/>
          </accessor>
        </technique_common>
      </source>
      <sampler id="Armature_Shoulder_L_pose_matrix-sampler">
        <input semantic="INPUT" source="#Armature_Shoulder_L_pose_matrix-input"/>
        <input semantic="OUTPUT" source="#Armature_Shoulder_L_pose_matrix-output"/>
        <input semantic="INTERPOLATION" source="#Armature_Shoulder_L_pose_matrix-interpolation"/>
      </sampler>
      <channel source="#Armature_Shoulder_L_pose_matrix-sampler" target="Armature_Shoulder_L/transform"/>
    </animation>
    <animation id="Armature_Arm_L_pose_matrix">
      <source id="Armature_Arm_L_pose_matrix-input">
        <float_array id="Armature_Arm_L_pose_matrix-input-array" count="4">0 0.1 0.25 0.3333333</float_array>
        <technique_common>
          <accessor source="#Armature_Arm_L_pose_matrix-input-array" count="4" stride="1">
            <param name="TIME" type="float"/>
          </accessor>
        </technique_common>
      </source>
      <source id="Armature_Arm_L_pose_matrix-output">
        <float_array id="Armature_Arm_L_pose_matrix-output-array" count="64">-0.01973039 0.8811122 -0.4724957 5.96046e-8 -0.821537 -0.2836269 -0.4946035 0.3938604 -0.5698137 0.378414 0.7294626 1.19209e-7 0 0 0 1 -0.1542389 0.8736578 -0.4614456 5.96046e-8 -0.7842876 -0.3923086 -0.480611 0.3938604 -0.6009188 0.2877772 0.7457084 1.19209e-7 0 0 0 1 0.06236646 0.8401476 -0.5387598 5.96046e-8 -0.8085108 -0.2739666 -0.5208191 0.3938604 -0.5851673 0.4680747 0.6621822 1.19209e-7 0 0 0 1 0.1434875 0.8145045 -0.562133 5.96046e-8 -0.8104729 -0.2292514 -0.5390525 0.3938604 -0.5679306 0.5329407 0.6272392 1.19209e-7 0 0 0 1</float_array>
        <technique_common>
          <accessor source="#Armature_Arm_L_pose_matrix-output-array" count="4" stride="16">
            <param name="TRANSFORM" type="float4x4"/>
          </accessor>
        </technique_common>
      </source>
      <source id="Armature_Arm_L_pose_matrix-interpolation">
        <Name_array id="Armature_Arm_L_pose_matrix-interpolation-array" count="4">LINEAR LINEAR LINEAR LINEAR</Name_array>
        <technique_common>
          <accessor source="#Armature_Arm_L_pose_matrix-interpolation-array" count="4" stride="1">
            <param name="INTERPOLATION" type="name"/>
          </accessor>
        </technique_common>
      </source>
      <sampler id="Armature_Arm_L_pose_matrix-sampler">
        <input semantic="INPUT" source="#Armature_Arm_L_pose_matrix-input"/>
        <input semantic="OUTPUT" source="#Armature_Arm_L_pose_matrix-output"/>
        <input semantic="INTERPOLATION" source="#Armature_Arm_L_pose_matrix-interpolation"/>
      </sampler>
      <channel source="#Armature_Arm_L_pose_matrix-sampler" target="Armature_Arm_L/transform"/>
    </animation>
    <animation id="Armature_Hand_L_pose_matrix">
      <source id="Armature_Hand_L_pose_matrix-input">
        <float_array id="Armature_Hand_L_pose_matrix-input-array" count="4">0 0.1 0.25 0.3333333</float_array>
        <technique_common>
          <accessor source="#Armature_Hand_L_pose_matrix-input-array" count="4" stride="1">
            <param name="TIME" type="float"/>
          </accessor>
        </technique_common>
      </source>
      <source id="Armature_Hand_L_pose_matrix-output">
        <float_array id="Armature_Hand_L_pose_matrix-output-array" count="64">0.9999999 2.98023e-8 4.09782e-8 -5.96046e-8 -2.98023e-8 0.9939374 0.1099473 0.3000001 -4.08618e-8 -0.1099473 0.9939371 -1.49012e-8 0 0 0 1 0.9999999 2.98023e-8 4.09782e-8 -5.96046e-8 -2.98023e-8 0.9939374 0.1099473 0.3000001 -4.08618e-8 -0.1099473 0.9939371 -1.49012e-8 0 0 0 1 0.9999999 2.98023e-8 4.09782e-8 -5.96046e-8 -2.98023e-8 0.9939374 0.1099473 0.3000001 -4.08618e-8 -0.1099473 0.9939371 -1.49012e-8 0 0 0 1 0.9999999 2.98023e-8 4.09782e-8 -5.96046e-8 -2.98023e-8 0.9939374 0.1099473 0.3000001 -4.08618e-8 -0.1099473 0.9939371 -1.49012e-8 0 0 0 1</float_array>
        <technique_common>
          <accessor source="#Armature_Hand_L_pose_matrix-output-array" count="4" stride="16">
            <param name="TRANSFORM" type="float4x4"/>
          </accessor>
        </technique_common>
      </source>
      <source id="Armature_Hand_L_pose_matrix-interpolation">
        <Name_array id="Armature_Hand_L_pose_matrix-interpolation-array" count="4">LINEAR LINEAR LINEAR LINEAR</Name_array>
        <technique_common>
          <accessor source="#Armature_Hand_L_pose_matrix-interpolation-array" count="4" stride="1">
            <param name="INTERPOLATION" type="name"/>
          </accessor>
        </technique_common>
      </source>
      <sampler id="Armature_Hand_L_pose_matrix-sampler">
        <input semantic="INPUT" source="#Armature_Hand_L_pose_matrix-input"/>
        <input semantic="OUTPUT" source="#Armature_Hand_L_pose_matrix-output"/>
        <input semantic="INTERPOLATION" source="#Armature_Hand_L_pose_matrix-interpolation"/>
      </sampler>
      <channel source="#Armature_Hand_L_pose_matrix-sampler" target="Armature_Hand_L/transform"/>
    </animation>
    <animation id="Armature_Tool_L_pose_matrix">
      <source id="Armature_Tool_L_pose_matrix-input">
        <float_array id="Armature_Tool_L_pose_matrix-input-array" count="4">0 0.1 0.25 0.3333333</float_array>
        <technique_common>
          <accessor source="#Armature_Tool_L_pose_matrix-input-array" count="4" stride="1">
            <param name="TIME" type="float"/>
          </accessor>
        </technique_common>
      </source>
      <source id="Armature_Tool_L_pose_matrix-output">
        <float_array id="Armature_Tool_L_pose_matrix-output-array" count="64">0.790136 -0.03043126 0.6121757 0.2134984 0.6079085 -0.08869664 -0.7890376 -0.07213032 0.07826976 0.995007 -0.05156107 0.1207508 0 0 0 1 0.790136 -0.03043126 0.6121757 0.2134984 0.6079085 -0.08869664 -0.7890376 -0.07213032 0.07826976 0.995007 -0.05156107 0.1207508 0 0 0 1 0.790136 -0.03043126 0.6121757 0.2134984 0.6079085 -0.08869664 -0.7890376 -0.07213032 0.07826976 0.995007 -0.05156107 0.1207508 0 0 0 1 0.790136 -0.03043126 0.6121757 0.2134984 0.6079085 -0.08869664 -0.7890376 -0.07213032 0.07826976 0.995007 -0.05156107 0.1207508 0 0 0 1</float_array>
        <technique_common>
          <accessor source="#Armature_Tool_L_pose_matrix-output-array" count="4" stride="16">
            <param name="TRANSFORM" type="float4x4"/>
          </accessor>
        </technique_common>
      </source>
      <source id="Armature_Tool_L_pose_matrix-interpolation">
        <Name_array id="Armature_Tool_L_pose_matrix-interpolation-array" count="4">LINEAR LINEAR LINEAR LINEAR</Name_array>
        <technique_common>
          <accessor source="#Armature_Tool_L_pose_matrix-interpolation-array" count="4" stride="1">
            <param name="INTERPOLATION" type="name"/>
          </accessor>
        </technique_common>
      </source>
      <sampler id="Armature_Tool_L_pose_matrix-sampler">
        <input semantic="INPUT" source="#Armature_Tool_L_pose_matrix-input"/>
        <input semantic="OUTPUT" source="#Armature_Tool_L_pose_matrix-output"/>
        <input semantic="INTERPOLATION" source="#Armature_Tool_L_pose_matrix-interpolation"/>
      </sampler>
      <channel source="#Armature_Tool_L_pose_matrix-sampler" target="Armature_Tool_L/transform"/>
    </animation>
    <animation id="Armature_Elbow_L_pose_matrix">
      <source id="Armature_Elbow_L_pose_matrix-input">
        <float_array id="Armature_Elbow_L_pose_matrix-input-array" count="4">0 0.1 0.25 0.3333333</float_array>
        <technique_common>
          <accessor source="#Armature_Elbow_L_pose_matrix-input-array" count="4" stride="1">
            <param name="TIME" type="float"/>
          </accessor>
        </technique_common>
      </source>
      <source id="Armature_Elbow_L_pose_matrix-output">
        <float_array id="Armature_Elbow_L_pose_matrix-output-array" count="64">-0.9999999 1.95112e-7 -2.98023e-8 -5.96046e-8 2.98023e-8 -4.51691e-8 -0.9999999 0.3000001 -1.95811e-7 -1 -3.91155e-8 -1.49012e-8 0 0 0 1 -0.9999999 1.95112e-7 -2.98023e-8 -5.96046e-8 2.98023e-8 -4.51691e-8 -0.9999999 0.3000001 -1.95811e-7 -1 -3.91155e-8 -1.49012e-8 0 0 0 1 -0.9999999 1.95112e-7 -2.98023e-8 -5.96046e-8 2.98023e-8 -4.51691e-8 -0.9999999 0.3000001 -1.95811e-7 -1 -3.91155e-8 -1.49012e-8 0 0 0 1 -0.9999999 1.95112e-7 -2.98023e-8 -5.96046e-8 2.98023e-8 -4.51691e-8 -0.9999999 0.3000001 -1.95811e-7 -1 -3.91155e-8 -1.49012e-8 0 0 0 1</float_array>
        <technique_common>
          <accessor source="#Armature_Elbow_L_pose_matrix-output-array" count="4" stride="16">
            <param name="TRANSFORM" type="float4x4"/>
          </accessor>
        </technique_common>
      </source>
      <source id="Armature_Elbow_L_pose_matrix-interpolation">
        <Name_array id="Armature_Elbow_L_pose_matrix-interpolation-array" count="4">LINEAR LINEAR LINEAR LINEAR</Name_array>
        <technique_common>
          <accessor source="#Armature_Elbow_L_pose_matrix-interpolation-array" count="4" stride="1">
            <param name="INTERPOLATION" type="name"/>
          </accessor>
        </technique_common>
      </source>
      <sampler id="Armature_Elbow_L_pose_matrix-sampler">
        <input semantic="INPUT" source="#Armature_Elbow_L_pose_matrix-input"/>
        <input semantic="OUTPUT" source="#Armature_Elbow_L_pose_matrix-output"/>
        <input semantic="INTERPOLATION" source="#Armature_Elbow_L_pose_matrix-interpolation"/>
      </sampler>
      <channel source="#Armature_Elbow_L_pose_matrix-sampler" target="Armature_Elbow_L/transform"/>
    </animation>
  </library_animations>
  <library_controllers/>
  <library_visual_scenes>
    <visual_scene id="Scene" name="Scene">
      <node id="Armature" name="Armature" type="NODE">
        <matrix sid="transform">1 0 0 2.17394e-5 0 1 0 -4.11466e-5 0 0 1 0.01021957 0 0 0 1</matrix>
        <node id="Armature_Root" name="Root" sid="Root" type="JOINT">
          <matrix sid="transform">1 0 0 -4.6045e-6 0 0 -1 9.46418e-4 0 1 0 0.7639716 0 0 0 1</matrix>
          <node id="Armature_Thigh_R" name="Thigh_R" sid="Thigh_R" type="JOINT">
            <matrix sid="transform">1 -4.77193e-7 -1.50996e-7 0.124994 -4.77193e-7 -1 3.97661e-7 -0.002830565 -1.50996e-7 -3.97661e-7 -1 -1.1839e-5 0 0 0 1</matrix>
            <node id="Armature_Leg_R" name="Leg_R" sid="Leg_R" type="JOINT">
              <matrix sid="transform">1 4.77193e-7 8.02679e-7 0 -4.77194e-7 1 3.97661e-7 0.3747202 -8.02679e-7 -3.97661e-7 1 0 0 0 0 1</matrix>
              <extra>
                <technique profile="blender">
                  <connect sid="connect" type="bool">1</connect>
                  <layer sid="layer" type="string">0</layer>
                  <roll sid="roll" type="float">6.51683e-7</roll>
                  <tip_x sid="tip_x" type="float">0</tip_x>
                  <tip_y sid="tip_y" type="float">0</tip_y>
                  <tip_z sid="tip_z" type="float">-0.375</tip_z>
                </technique>
              </extra>
            </node>
            <node id="Armature_Knee_R" name="Knee_R" sid="Knee_R" type="JOINT">
              <matrix sid="transform">1 1.50996e-7 -6.48983e-7 0 -6.48983e-7 3.97661e-7 -1 0.3747202 -1.50996e-7 1 3.57628e-7 -5.82077e-11 0 0 0 1</matrix>
              <extra>
                <technique profile="blender">
                  <layer sid="layer" type="string">0</layer>
                  <roll sid="roll" type="float">-1.71789e-7</roll>
                  <tip_x sid="tip_x" type="float">0</tip_x>
                  <tip_y sid="tip_y" type="float">0.09999996</tip_y>
                  <tip_z sid="tip_z" type="float">0</tip_z>
                </technique>
              </extra>
            </node>
            <extra>
              <technique profile="blender">
                <layer sid="layer" type="string">0</layer>
                <roll sid="roll" type="float">1.48862e-7</roll>
              </technique>
            </extra>
          </node>
          <node id="Armature_Thigh_L" name="Thigh_L" sid="Thigh_L" type="JOINT">
            <matrix sid="transform">1 -4.77193e-7 -1.50996e-7 -0.125006 -4.77193e-7 -1 3.17197e-7 -0.002830565 -1.50996e-7 -3.17197e-7 -1 -1.1854e-5 0 0 0 1</matrix>
            <node id="Armature_Leg_L" name="Leg_L" sid="Leg_L" type="JOINT">
              <matrix sid="transform">1 4.77193e-7 8.02679e-7 0 -4.77193e-7 1 3.17196e-7 0.3747203 -8.02679e-7 -3.17197e-7 1 0 0 0 0 1</matrix>
              <extra>
                <technique profile="blender">
                  <connect sid="connect" type="bool">1</connect>
                  <layer sid="layer" type="string">0</layer>
                  <roll sid="roll" type="float">6.51683e-7</roll>
                  <tip_x sid="tip_x" type="float">0</tip_x>
                  <tip_y sid="tip_y" type="float">0</tip_y>
                  <tip_z sid="tip_z" type="float">-0.375</tip_z>
                </technique>
              </extra>
            </node>
            <node id="Armature_Knee_L" name="Knee_L" sid="Knee_L" type="JOINT">
              <matrix sid="transform">1 1.50996e-7 -6.48983e-7 0 -6.48983e-7 3.17197e-7 -1 0.3747203 -1.50996e-7 1 3.57628e-7 0 0 0 0 1</matrix>
              <extra>
                <technique profile="blender">
                  <layer sid="layer" type="string">0</layer>
                  <roll sid="roll" type="float">-1.71789e-7</roll>
                  <tip_x sid="tip_x" type="float">0</tip_x>
                  <tip_y sid="tip_y" type="float">0.09999996</tip_y>
                  <tip_z sid="tip_z" type="float">0</tip_z>
                </technique>
              </extra>
            </node>
            <extra>
              <technique profile="blender">
                <layer sid="layer" type="string">0</layer>
                <roll sid="roll" type="float">1.71787e-7</roll>
              </technique>
            </extra>
          </node>
          <node id="Armature_Torso" name="Torso" sid="Torso" type="JOINT">
            <matrix sid="transform">1 0 0 0 0 1 0 0.05000013 0 0 1 0 0 0 0 1</matrix>
            <node id="Armature_Chest" name="Chest" sid="Chest" type="JOINT">
              <matrix sid="transform">1 1.52595e-7 -1.52595e-7 0 -1.52595e-7 1 2.72558e-7 0.2999997 1.52595e-7 -2.72558e-7 1 0 0 0 0 1</matrix>
              <node id="Armature_Head" name="Head" sid="Head" type="JOINT">
                <matrix sid="transform">1 -1.52595e-7 1.52595e-7 -6.1038e-8 1.52595e-7 1 -2.72558e-7 0.4 -1.52595e-7 2.72558e-7 1 1.09023e-7 0 0 0 1</matrix>
                <extra>
                  <technique profile="blender">
                    <connect sid="connect" type="bool">1</connect>
                    <layer sid="layer" type="string">0</layer>
                    <tip_x sid="tip_x" type="float">0</tip_x>
                    <tip_y sid="tip_y" type="float">0</tip_y>
                    <tip_z sid="tip_z" type="float">0.4449962</tip_z>
                  </technique>
                </extra>
              </node>
              <node id="Armature_Shoulder_R" name="Shoulder_R" sid="Shoulder_R" type="JOINT">
                <matrix sid="transform">2.05163e-7 0.9521141 0.3057426 -8.94106e-8 -7.76062e-7 -0.3057426 0.9521142 0.4 0.9999999 -3.57628e-7 6.72301e-7 1.72062e-7 0 0 0 1</matrix>
                <node id="Armature_Arm_R" name="Arm_R" sid="Arm_R" type="JOINT">
                  <matrix sid="transform">7.38973e-8 2.98023e-7 -1 0 0.9521143 0.3057428 1.93715e-7 0.3938605 0.3057427 -0.9521143 -3.8743e-7 1.2666e-7 0 0 0 1</matrix>
                  <node id="Armature_Hand_R" name="Hand_R" sid="Hand_R" type="JOINT">
                    <matrix sid="transform">1 6.07185e-8 2.31636e-7 -2.98023e-8 -8.58182e-8 0.9939375 0.1099474 0.3 -2.23556e-7 -0.1099474 0.9939374 -5.82077e-11 0 0 0 1</matrix>
                    <node id="Armature_Tool_R" name="Tool_R" sid="Tool_R" type="JOINT">
                      <matrix sid="transform">1 4.32067e-9 2.38236e-7 5.96046e-8 2.60236e-12 -0.9998358 0.01812222 0.2728585 2.38131e-7 -0.01812222 -0.9992322 1.49012e-8 0 0 0 1</matrix>
                      <extra>
                        <technique profile="blender">
                          <layer sid="layer" type="string">0</layer>
                          <tip_x sid="tip_x" type="float">0</tip_x>
                          <tip_y sid="tip_y" type="float">0.02999997</tip_y>
                          <tip_z sid="tip_z" type="float">0.3250002</tip_z>
                        </technique>
                      </extra>
                    </node>
                    <extra>
                      <technique profile="blender">
                        <connect sid="connect" type="bool">1</connect>
                        <layer sid="layer" type="string">0</layer>
                        <roll sid="roll" type="float">2.38419e-7</roll>
                        <tip_x sid="tip_x" type="float">0</tip_x>
                        <tip_y sid="tip_y" type="float">-0.02999997</tip_y>
                        <tip_z sid="tip_z" type="float">-0.2712038</tip_z>
                      </technique>
                    </extra>
                  </node>
                  <node id="Armature_Elbow_R" name="Elbow_R" sid="Elbow_R" type="JOINT">
                    <matrix sid="transform">-1 1.34175e-8 -1.64413e-7 1.19209e-7 1.64413e-7 -7.54001e-8 -1 0.3000001 -1.34175e-8 -1 3.1591e-8 -6.63567e-8 0 0 0 1</matrix>
                    <extra>
                      <technique profile="blender">
                        <layer sid="layer" type="string">0</layer>
                        <tip_x sid="tip_x" type="float">0</tip_x>
                        <tip_y sid="tip_y" type="float">-0.09999996</tip_y>
                        <tip_z sid="tip_z" type="float">0</tip_z>
                      </technique>
                    </extra>
                  </node>
                  <extra>
                    <technique profile="blender">
                      <connect sid="connect" type="bool">1</connect>
                      <layer sid="layer" type="string">0</layer>
                      <roll sid="roll" type="float">2.38419e-7</roll>
                    </technique>
                  </extra>
                </node>
                <extra>
                  <technique profile="blender">
                    <connect sid="connect" type="bool">1</connect>
                    <layer sid="layer" type="string">0</layer>
                    <roll sid="roll" type="float">0.310719</roll>
                  </technique>
                </extra>
              </node>
              <node id="Armature_Shoulder_L" name="Shoulder_L" sid="Shoulder_L" type="JOINT">
                <matrix sid="transform">-6.74758e-7 -0.9521142 -0.3057421 4.54747e-13 1.8917e-6 -0.3057421 0.9521143 0.3999996 -0.9999998 1.78814e-7 2.00187e-6 0 0 0 0 1</matrix>
                <node id="Armature_Arm_L" name="Arm_L" sid="Arm_L" type="JOINT">
                  <matrix sid="transform">-9.19767e-7 -1.54972e-6 1 0 -0.9521145 0.305742 -3.94881e-7 0.3938603 -0.3057419 -0.9521144 -1.78814e-6 -3.72529e-8 0 0 0 1</matrix>
                  <node id="Armature_Hand_L" name="Hand_L" sid="Hand_L" type="JOINT">
                    <matrix sid="transform">1 -4.48291e-8 -1.69501e-7 0 6.31935e-8 0.9939375 0.1099472 0.3000001 1.63544e-7 -0.1099472 0.9939374 -5.82077e-11 0 0 0 1</matrix>
                    <node id="Armature_Tool_L" name="Tool_L" sid="Tool_L" type="JOINT">
                      <matrix sid="transform">0.9999999 4.32068e-9 2.38581e-7 -2.98023e-8 -3.63798e-12 -0.9998359 0.0181222 0.2728584 2.38821e-7 -0.01812219 -1.00068 -8.9407e-8 0 0 0 1</matrix>
                      <extra>
                        <technique profile="blender">
                          <layer sid="layer" type="string">0</layer>
                          <tip_x sid="tip_x" type="float">0</tip_x>
                          <tip_y sid="tip_y" type="float">0.02999997</tip_y>
                          <tip_z sid="tip_z" type="float">0.3250001</tip_z>
                        </technique>
                      </extra>
                    </node>
                    <extra>
                      <technique profile="blender">
                        <connect sid="connect" type="bool">1</connect>
                        <layer sid="layer" type="string">0</layer>
                        <roll sid="roll" type="float">2.38419e-7</roll>
                        <tip_x sid="tip_x" type="float">0</tip_x>
                        <tip_y sid="tip_y" type="float">-0.02999997</tip_y>
                        <tip_z sid="tip_z" type="float">-0.2712038</tip_z>
                      </technique>
                    </extra>
                  </node>
                  <node id="Armature_Elbow_L" name="Elbow_L" sid="Elbow_L" type="JOINT">
                    <matrix sid="transform">-1 4.00518e-7 -1.11035e-8 -2.98023e-8 1.11035e-8 -3.73568e-8 -1 0.3000002 -4.00518e-7 -1 -4.44959e-8 2.61352e-8 0 0 0 1</matrix>
                    <extra>
                      <technique profile="blender">
                        <layer sid="layer" type="string">0</layer>
                        <tip_x sid="tip_x" type="float">0</tip_x>
                        <tip_y sid="tip_y" type="float">-0.09999996</tip_y>
                        <tip_z sid="tip_z" type="float">0</tip_z>
                      </technique>
                    </extra>
                  </node>
                  <extra>
                    <technique profile="blender">
                      <connect sid="connect" type="bool">1</connect>
                      <layer sid="layer" type="string">0</layer>
                      <roll sid="roll" type="float">2.38419e-7</roll>
                    </technique>
                  </extra>
                </node>
                <extra>
                  <technique profile="blender">
                    <connect sid="connect" type="bool">1</connect>
                    <layer sid="layer" type="string">0</layer>
                    <roll sid="roll" type="float">-0.3107193</roll>
                  </technique>
                </extra>
              </node>
              <extra>
                <technique profile="blender">
                  <connect sid="connect" type="bool">1</connect>
                  <layer sid="layer" type="string">0</layer>
                  <roll sid="roll" type="float">0</roll>
                </technique>
              </extra>
            </node>
            <extra>
              <technique profile="blender">
                <connect sid="connect" type="bool">1</connect>
                <layer sid="layer" type="string">0</layer>
              </technique>
            </extra>
          </node>
          <extra>
            <technique profile="blender">
              <layer sid="layer" type="string">0</layer>
            </technique>
          </extra>
        </node>
      </node>
    </visual_scene>
  </library_visual_scenes>
  <scene>
    <instance_visual_scene url="#Scene"/>
  </scene>
</COLLADA>