<?xml version="1.0" encoding="utf-8"?>
<COLLADA xmlns="http://www.collada.org/2005/11/COLLADASchema" version="1.4.1" xmlns:xsi="http://www.w3.org/2001/XMLSchema-instance">
  <asset>
    <contributor>
      <author>Blender User</author>
      <authoring_tool>Blender 2.79.0 commit date:2018-03-22, commit time:14:10, hash:f4dc9f9d68b</authoring_tool>
    </contributor>
    <created>2021-01-30T23:48:44</created>
    <modified>2021-01-30T23:48:44</modified>
    <unit name="meter" meter="1"/>
    <up_axis>Z_UP</up_axis>
  </asset>
  <library_images/>
  <library_animations>
    <animation id="Armature_Root_pose_matrix">
      <source id="Armature_Root_pose_matrix-input">
        <float_array id="Armature_Root_pose_matrix-input-array" count="4">0 0.08333331 0.1833333 0.2833333</float_array>
        <technique_common>
          <accessor source="#Armature_Root_pose_matrix-input-array" count="4" stride="1">
            <param name="TIME" type="float"/>
          </accessor>
        </technique_common>
      </source>
      <source id="Armature_Root_pose_matrix-output">
        <float_array id="Armature_Root_pose_matrix-output-array" count="64">0.8177847 -3.00472e-4 -0.5755242 -4.60446e-6 -0.5752162 0.0322865 -0.817364 0.01057097 0.01882726 0.9994786 0.02623057 0.7499588 0 0 0 1 0.7447892 0.00319367 -0.6672923 -4.60446e-6 -0.6660562 0.06458189 -0.7431005 0.02725767 0.04072177 0.9979073 0.05022706 0.7399623 0 0 0 1 0.6544637 0.004635626 -0.7560793 -4.60446e-6 -0.7560776 -0.002460976 -0.6544774 0.04527095 -0.004894605 0.9999862 0.001894273 0.729171 0 0 0 1 0.6095535 4.38228e-9 -0.7927451 -4.60446e-6 -0.7908614 -0.06889608 -0.6081051 0.05356893 -0.05461702 0.9976239 -0.04199584 0.7242 0 0 0 1</float_array>
        <technique_common>
          <accessor source="#Armature_Root_pose_matrix-output-array" count="4" stride="16">
            <param name="TRANSFORM" type="float4x4"/>
          </accessor>
        </technique_common>
      </source>
      <source id="Armature_Root_pose_matrix-interpolation">
        <Name_array id="Armature_Root_pose_matrix-interpolation-array" count="4">LINEAR LINEAR LINEAR LINEAR</Name_array>
        <technique_common>
          <accessor source="#Armature_Root_pose_matrix-interpolation-array" count="4" stride="1">
            <param name="INTERPOLATION" type="name"/>
          </accessor>
        </technique_common>
      </source>
      <sampler id="Armature_Root_pose_matrix-sampler">
        <input semantic="INPUT" source="#Armature_Root_pose_matrix-input"/>
        <input semantic="OUTPUT" source="#Armature_Root_pose_matrix-output"/>
        <input semantic="INTERPOLATION" source="#Armature_Root_pose_matrix-interpolation"/>
      </sampler>
      <channel source="#Armature_Root_pose_matrix-sampler" target="Armature_Root/transform"/>
    </animation>
    <animation id="Armature_Thigh_R_pose_matrix">
      <source id="Armature_Thigh_R_pose_matrix-input">
        <float_array id="Armature_Thigh_R_pose_matrix-input-array" count="4">0 0.08333331 0.1833333 0.2833333</float_array>
        <technique_common>
          <accessor source="#Armature_Thigh_R_pose_matrix-input-array" count="4" stride="1">
            <param name="TIME" type="float"/>
          </accessor>
        </technique_common>
      </source>
      <source id="Armature_Thigh_R_pose_matrix-output">
        <float_array id="Armature_Thigh_R_pose_matrix-output-array" count="64">0.9939392 0.07937977 -0.07604386 0.1249939 0.09013253 -0.9845088 0.1503818 -0.002830744 -0.0629288 -0.1563237 -0.9856994 -1.18464e-5 0 0 0 1 0.9942555 0.07059036 -0.08044904 0.1249939 0.08768894 -0.9682381 0.2341408 -0.002830625 -0.06136591 -0.2398493 -0.9688688 -1.18539e-5 0 0 0 1 0.9594769 0.1758943 -0.2201461 0.1249939 0.2484027 -0.8968154 0.3660806 -0.002830625 -0.1330393 -0.4059295 -0.9041689 -1.18539e-5 0 0 0 1 0.9169807 0.3641233 -0.1629697 0.1249939 0.3446275 -0.9288129 -0.1361423 -0.002830684 -0.2009414 0.06867625 -0.9771932 -1.18539e-5 0 0 0 1</float_array>
        <technique_common>
          <accessor source="#Armature_Thigh_R_pose_matrix-output-array" count="4" stride="16">
            <param name="TRANSFORM" type="float4x4"/>
          </accessor>
        </technique_common>
      </source>
      <source id="Armature_Thigh_R_pose_matrix-interpolation">
        <Name_array id="Armature_Thigh_R_pose_matrix-interpolation-array" count="4">LINEAR LINEAR LINEAR LINEAR</Name_array>
        <technique_common>
          <accessor source="#Armature_Thigh_R_pose_matrix-interpolation-array" count="4" stride="1">
            <param name="INTERPOLATION" type="name"/>
          </accessor>
        </technique_common>
      </source>
      <sampler id="Armature_Thigh_R_pose_matrix-sampler">
        <input semantic="INPUT" source="#Armature_Thigh_R_pose_matrix-input"/>
        <input semantic="OUTPUT" source="#Armature_Thigh_R_pose_matrix-output"/>
        <input semantic="INTERPOLATION" source="#Armature_Thigh_R_pose_matrix-interpolation"/>
      </sampler>
      <channel source="#Armature_Thigh_R_pose_matrix-sampler" target="Armature_Thigh_R/transform"/>
    </animation>
    <animation id="Armature_Leg_R_pose_matrix">
      <source id="Armature_Leg_R_pose_matrix-input">
        <float_array id="Armature_Leg_R_pose_matrix-input-array" count="4">0 0.08333331 0.1833333 0.2833333</float_array>
        <technique_common>
          <accessor source="#Armature_Leg_R_pose_matrix-input-array" count="4" stride="1">
            <param name="TIME" type="float"/>
          </accessor>
        </technique_common>
      </source>
      <source id="Armature_Leg_R_pose_matrix-output">
        <float_array id="Armature_Leg_R_pose_matrix-output-array" count="64">1 -3.8743e-7 7.89762e-7 2.98023e-8 1.19209e-7 0.9532079 0.3023153 0.3747201 -9.35048e-7 -0.3023153 0.953208 0 0 0 0 1 1 -3.27826e-7 6.70552e-7 2.98023e-8 2.98023e-8 0.9216751 0.3879626 0.3747201 -7.00355e-7 -0.3879626 0.9216752 0 0 0 0 1 1 -7.30157e-7 8.9407e-7 2.98023e-8 -3.27826e-7 0.5619124 0.8271967 0.3747201 -1.09151e-6 -0.8271967 0.5619126 0 0 0 0 1 1 -2.38419e-7 7.37607e-7 2.98023e-8 5.96046e-8 0.985961 0.1669762 0.3747201 -7.87899e-7 -0.1669762 0.985961 0 0 0 0 1</float_array>
        <technique_common>
          <accessor source="#Armature_Leg_R_pose_matrix-output-array" count="4" stride="16">
            <param name="TRANSFORM" type="float4x4"/>
          </accessor>
        </technique_common>
      </source>
      <source id="Armature_Leg_R_pose_matrix-interpolation">
        <Name_array id="Armature_Leg_R_pose_matrix-interpolation-array" count="4">LINEAR LINEAR LINEAR LINEAR</Name_array>
        <technique_common>
          <accessor source="#Armature_Leg_R_pose_matrix-interpolation-array" count="4" stride="1">
            <param name="INTERPOLATION" type="name"/>
          </accessor>
        </technique_common>
      </source>
      <sampler id="Armature_Leg_R_pose_matrix-sampler">
        <input semantic="INPUT" source="#Armature_Leg_R_pose_matrix-input"/>
        <input semantic="OUTPUT" source="#Armature_Leg_R_pose_matrix-output"/>
        <input semantic="INTERPOLATION" source="#Armature_Leg_R_pose_matrix-interpolation"/>
      </sampler>
      <channel source="#Armature_Leg_R_pose_matrix-sampler" target="Armature_Leg_R/transform"/>
    </animation>
    <animation id="Armature_Knee_R_pose_matrix">
      <source id="Armature_Knee_R_pose_matrix-input">
        <float_array id="Armature_Knee_R_pose_matrix-input-array" count="4">0 0.08333331 0.1833333 0.2833333</float_array>
        <technique_common>
          <accessor source="#Armature_Knee_R_pose_matrix-input-array" count="4" stride="1">
            <param name="TIME" type="float"/>
          </accessor>
        </technique_common>
      </source>
      <source id="Armature_Knee_R_pose_matrix-output">
        <float_array id="Armature_Knee_R_pose_matrix-output-array" count="64">1 7.45058e-8 -2.68221e-7 2.98023e-8 -2.68221e-7 6.33299e-7 -1 0.3747201 -9.31323e-8 1 5.88596e-7 0 0 0 0 1 1 7.45058e-8 -2.68221e-7 0 -2.68221e-7 6.33299e-7 -1 0.3782521 -9.31323e-8 1 5.88596e-7 0 0 0 0 1 1 7.45058e-8 -2.68221e-7 2.98023e-8 -2.68221e-7 6.33299e-7 -1 0.4178108 -9.31323e-8 1 5.88596e-7 -7.45058e-9 0 0 0 1 1 7.45058e-8 -2.68221e-7 0 -2.68221e-7 6.33299e-7 -1 0.3647127 -9.31323e-8 1 5.88596e-7 1.11759e-8 0 0 0 1</float_array>
        <technique_common>
          <accessor source="#Armature_Knee_R_pose_matrix-output-array" count="4" stride="16">
            <param name="TRANSFORM" type="float4x4"/>
          </accessor>
        </technique_common>
      </source>
      <source id="Armature_Knee_R_pose_matrix-interpolation">
        <Name_array id="Armature_Knee_R_pose_matrix-interpolation-array" count="4">LINEAR LINEAR LINEAR LINEAR</Name_array>
        <technique_common>
          <accessor source="#Armature_Knee_R_pose_matrix-interpolation-array" count="4" stride="1">
            <param name="INTERPOLATION" type="name"/>
          </accessor>
        </technique_common>
      </source>
      <sampler id="Armature_Knee_R_pose_matrix-sampler">
        <input semantic="INPUT" source="#Armature_Knee_R_pose_matrix-input"/>
        <input semantic="OUTPUT" source="#Armature_Knee_R_pose_matrix-output"/>
        <input semantic="INTERPOLATION" source="#Armature_Knee_R_pose_matrix-interpolation"/>
      </sampler>
      <channel source="#Armature_Knee_R_pose_matrix-sampler" target="Armature_Knee_R/transform"/>
    </animation>
    <animation id="Armature_Thigh_L_pose_matrix">
      <source id="Armature_Thigh_L_pose_matrix-input">
        <float_array id="Armature_Thigh_L_pose_matrix-input-array" count="4">0 0.08333331 0.1833333 0.2833333</float_array>
        <technique_common>
          <accessor source="#Armature_Thigh_L_pose_matrix-input-array" count="4" stride="1">
            <param name="TIME" type="float"/>
          </accessor>
        </technique_common>
      </source>
      <source id="Armature_Thigh_L_pose_matrix-output">
        <float_array id="Armature_Thigh_L_pose_matrix-output-array" count="64">0.8293968 -0.3918856 -0.3981537 -0.1250061 -0.04031495 -0.7528215 0.6569889 -0.002830744 -0.5572032 -0.5288527 -0.640187 -1.18539e-5 0 0 0 1 0.7521614 -0.3241007 -0.5737699 -0.1250061 -0.04466923 -0.8937687 0.4462979 -0.002830684 -0.6574632 -0.3100578 -0.6867359 -1.1839e-5 0 0 0 1 0.6571372 -0.3480805 -0.6685885 -0.125006 -0.05681382 -0.9073408 0.4165387 -0.002830744 -0.7516268 -0.2357376 -0.6160235 -1.1839e-5 0 0 0 1 0.6121163 -0.311764 -0.7267164 -0.1250061 -0.0680517 -0.9363602 0.3443813 -0.002830744 -0.787834 -0.1613467 -0.5943775 -1.18539e-5 0 0 0 1</float_array>
        <technique_common>
          <accessor source="#Armature_Thigh_L_pose_matrix-output-array" count="4" stride="16">
            <param name="TRANSFORM" type="float4x4"/>
          </accessor>
        </technique_common>
      </source>
      <source id="Armature_Thigh_L_pose_matrix-interpolation">
        <Name_array id="Armature_Thigh_L_pose_matrix-interpolation-array" count="4">LINEAR LINEAR LINEAR LINEAR</Name_array>
        <technique_common>
          <accessor source="#Armature_Thigh_L_pose_matrix-interpolation-array" count="4" stride="1">
            <param name="INTERPOLATION" type="name"/>
          </accessor>
        </technique_common>
      </source>
      <sampler id="Armature_Thigh_L_pose_matrix-sampler">
        <input semantic="INPUT" source="#Armature_Thigh_L_pose_matrix-input"/>
        <input semantic="OUTPUT" source="#Armature_Thigh_L_pose_matrix-output"/>
        <input semantic="INTERPOLATION" source="#Armature_Thigh_L_pose_matrix-interpolation"/>
      </sampler>
      <channel source="#Armature_Thigh_L_pose_matrix-sampler" target="Armature_Thigh_L/transform"/>
    </animation>
    <animation id="Armature_Leg_L_pose_matrix">
      <source id="Armature_Leg_L_pose_matrix-input">
        <float_array id="Armature_Leg_L_pose_matrix-input-array" count="4">0 0.08333331 0.1833333 0.2833333</float_array>
        <technique_common>
          <accessor source="#Armature_Leg_L_pose_matrix-input-array" count="4" stride="1">
            <param name="TIME" type="float"/>
          </accessor>
        </technique_common>
      </source>
      <source id="Armature_Leg_L_pose_matrix-output">
        <float_array id="Armature_Leg_L_pose_matrix-output-array" count="64">1 -8.71718e-7 9.61125e-7 0 -4.13507e-7 0.4868863 0.8734653 0.3747201 -1.23121e-6 -0.8734653 0.4868863 0 0 0 0 1 1 -5.81145e-7 9.97912e-7 0 7.82311e-8 0.8954068 0.4452489 0.3747201 -1.14925e-6 -0.4452489 0.8954069 0 0 0 0 1 1 -6.70552e-7 1.36055e-6 0 7.45058e-9 0.9007259 0.4343875 0.3747201 -1.51247e-6 -0.4343875 0.9007261 0 0 0 0 1 1 -6.10948e-7 1.06078e-6 0 1.56462e-7 0.9261864 0.3770658 0.3747201 -1.20699e-6 -0.3770658 0.9261865 0 0 0 0 1</float_array>
        <technique_common>
          <accessor source="#Armature_Leg_L_pose_matrix-output-array" count="4" stride="16">
            <param name="TRANSFORM" type="float4x4"/>
          </accessor>
        </technique_common>
      </source>
      <source id="Armature_Leg_L_pose_matrix-interpolation">
        <Name_array id="Armature_Leg_L_pose_matrix-interpolation-array" count="4">LINEAR LINEAR LINEAR LINEAR</Name_array>
        <technique_common>
          <accessor source="#Armature_Leg_L_pose_matrix-interpolation-array" count="4" stride="1">
            <param name="INTERPOLATION" type="name"/>
          </accessor>
        </technique_common>
      </source>
      <sampler id="Armature_Leg_L_pose_matrix-sampler">
        <input semantic="INPUT" source="#Armature_Leg_L_pose_matrix-input"/>
        <input semantic="OUTPUT" source="#Armature_Leg_L_pose_matrix-output"/>
        <input semantic="INTERPOLATION" source="#Armature_Leg_L_pose_matrix-interpolation"/>
      </sampler>
      <channel source="#Armature_Leg_L_pose_matrix-sampler" target="Armature_Leg_L/transform"/>
    </animation>
    <animation id="Armature_Knee_L_pose_matrix">
      <source id="Armature_Knee_L_pose_matrix-input">
        <float_array id="Armature_Knee_L_pose_matrix-input-array" count="4">0 0.08333331 0.1833333 0.2833333</float_array>
        <technique_common>
          <accessor source="#Armature_Knee_L_pose_matrix-input-array" count="4" stride="1">
            <param name="TIME" type="float"/>
          </accessor>
        </technique_common>
      </source>
      <source id="Armature_Knee_L_pose_matrix-output">
        <float_array id="Armature_Knee_L_pose_matrix-output-array" count="64">1 5.96046e-8 -2.42144e-7 1.49012e-8 -2.38419e-7 6.55651e-7 -1 0.4303824 -6.14673e-8 1 5.66244e-7 0 0 0 0 1 1 5.96046e-8 -2.42144e-7 0 -2.38419e-7 6.55651e-7 -1 0.3817841 -6.14673e-8 1 5.66244e-7 0 0 0 0 1 1 5.96046e-8 -2.42144e-7 0 -2.38419e-7 6.55651e-7 -1 0.3747201 -6.14673e-8 1 5.66244e-7 0 0 0 0 1 1 5.96046e-8 -2.42144e-7 0 -2.38419e-7 6.55651e-7 -1 0.3758974 -6.14673e-8 1 5.66244e-7 0 0 0 0 1</float_array>
        <technique_common>
          <accessor source="#Armature_Knee_L_pose_matrix-output-array" count="4" stride="16">
            <param name="TRANSFORM" type="float4x4"/>
          </accessor>
        </technique_common>
      </source>
      <source id="Armature_Knee_L_pose_matrix-interpolation">
        <Name_array id="Armature_Knee_L_pose_matrix-interpolation-array" count="4">LINEAR LINEAR LINEAR LINEAR</Name_array>
        <technique_common>
          <accessor source="#Armature_Knee_L_pose_matrix-interpolation-array" count="4" stride="1">
            <param name="INTERPOLATION" type="name"/>
          </accessor>
        </technique_common>
      </source>
      <sampler id="Armature_Knee_L_pose_matrix-sampler">
        <input semantic="INPUT" source="#Armature_Knee_L_pose_matrix-input"/>
        <input semantic="OUTPUT" source="#Armature_Knee_L_pose_matrix-output"/>
        <input semantic="INTERPOLATION" source="#Armature_Knee_L_pose_matrix-interpolation"/>
      </sampler>
      <channel source="#Armature_Knee_L_pose_matrix-sampler" target="Armature_Knee_L/transform"/>
    </animation>
    <animation id="Armature_Torso_pose_matrix">
      <source id="Armature_Torso_pose_matrix-input">
        <float_array id="Armature_Torso_pose_matrix-input-array" count="4">0 0.08333331 0.1833333 0.2833333</float_array>
        <technique_common>
          <accessor source="#Armature_Torso_pose_matrix-input-array" count="4" stride="1">
            <param name="TIME" type="float"/>
          </accessor>
        </technique_common>
      </source>
      <source id="Armature_Torso_pose_matrix-output">
        <float_array id="Armature_Torso_pose_matrix-output-array" count="64">0.9774165 0.2087337 -0.03297251 0 -0.2088912 0.9307427 -0.3001378 0.05000019 -0.03195999 0.3002473 0.9533257 7.45058e-9 0 0 0 1 0.9740195 0.2232973 -0.03773855 0 -0.2236128 0.9219498 -0.3162373 0.05000019 -0.0358219 0.3164601 0.9479292 7.45058e-9 0 0 0 1 0.9877227 0.1559735 0.008724401 0 -0.1480573 0.952482 -0.2661897 0.05000019 -0.04982831 0.2616299 0.9638812 7.45058e-9 0 0 0 1 0.9936001 0.1106075 0.02290329 0 -0.09762906 0.9429334 -0.3183477 0.05000019 -0.05680794 0.3140743 0.9476972 7.45058e-9 0 0 0 1</float_array>
        <technique_common>
          <accessor source="#Armature_Torso_pose_matrix-output-array" count="4" stride="16">
            <param name="TRANSFORM" type="float4x4"/>
          </accessor>
        </technique_common>
      </source>
      <source id="Armature_Torso_pose_matrix-interpolation">
        <Name_array id="Armature_Torso_pose_matrix-interpolation-array" count="4">LINEAR LINEAR LINEAR LINEAR</Name_array>
        <technique_common>
          <accessor source="#Armature_Torso_pose_matrix-interpolation-array" count="4" stride="1">
            <param name="INTERPOLATION" type="name"/>
          </accessor>
        </technique_common>
      </source>
      <sampler id="Armature_Torso_pose_matrix-sampler">
        <input semantic="INPUT" source="#Armature_Torso_pose_matrix-input"/>
        <input semantic="OUTPUT" source="#Armature_Torso_pose_matrix-output"/>
        <input semantic="INTERPOLATION" source="#Armature_Torso_pose_matrix-interpolation"/>
      </sampler>
      <channel source="#Armature_Torso_pose_matrix-sampler" target="Armature_Torso/transform"/>
    </animation>
    <animation id="Armature_Chest_pose_matrix">
      <source id="Armature_Chest_pose_matrix-input">
        <float_array id="Armature_Chest_pose_matrix-input-array" count="4">0 0.08333331 0.1833333 0.2833333</float_array>
        <technique_common>
          <accessor source="#Armature_Chest_pose_matrix-input-array" count="4" stride="1">
            <param name="TIME" type="float"/>
          </accessor>
        </technique_common>
      </source>
      <source id="Armature_Chest_pose_matrix-output">
        <float_array id="Armature_Chest_pose_matrix-output-array" count="64">0.9601907 0.2730637 -0.05890798 1.49012e-8 -0.2738026 0.8781738 -0.392228 0.3 -0.05537176 0.392743 0.9179798 -2.98023e-8 0 0 0 1 0.9718336 0.234935 -0.01856418 1.49012e-8 -0.2236581 0.8946192 -0.3868249 0.3 -0.07427078 0.3800817 0.9219663 -2.98023e-8 0 0 0 1 0.9230219 0.3652963 -0.1207851 1.49012e-8 -0.3775915 0.9203243 -0.1021167 0.3 0.07385851 0.1398635 0.9874123 -2.98023e-8 0 0 0 1 0.8487818 0.4936978 -0.1892934 1.49012e-8 -0.4865555 0.8694209 0.08585462 0.3 0.2069619 0.01922989 0.9781601 -2.98023e-8 0 0 0 1</float_array>
        <technique_common>
          <accessor source="#Armature_Chest_pose_matrix-output-array" count="4" stride="16">
            <param name="TRANSFORM" type="float4x4"/>
          </accessor>
        </technique_common>
      </source>
      <source id="Armature_Chest_pose_matrix-interpolation">
        <Name_array id="Armature_Chest_pose_matrix-interpolation-array" count="4">LINEAR LINEAR LINEAR LINEAR</Name_array>
        <technique_common>
          <accessor source="#Armature_Chest_pose_matrix-interpolation-array" count="4" stride="1">
            <param name="INTERPOLATION" type="name"/>
          </accessor>
        </technique_common>
      </source>
      <sampler id="Armature_Chest_pose_matrix-sampler">
        <input semantic="INPUT" source="#Armature_Chest_pose_matrix-input"/>
        <input semantic="OUTPUT" source="#Armature_Chest_pose_matrix-output"/>
        <input semantic="INTERPOLATION" source="#Armature_Chest_pose_matrix-interpolation"/>
      </sampler>
      <channel source="#Armature_Chest_pose_matrix-sampler" target="Armature_Chest/transform"/>
    </animation>
    <animation id="Armature_Head_pose_matrix">
      <source id="Armature_Head_pose_matrix-input">
        <float_array id="Armature_Head_pose_matrix-input-array" count="4">0 0.08333331 0.1833333 0.2833333</float_array>
        <technique_common>
          <accessor source="#Armature_Head_pose_matrix-input-array" count="4" stride="1">
            <param name="TIME" type="float"/>
          </accessor>
        </technique_common>
      </source>
      <source id="Armature_Head_pose_matrix-output">
        <float_array id="Armature_Head_pose_matrix-output-array" count="64">0.8165498 -0.4273952 0.3880459 5.96046e-8 -0.007573605 0.6642137 0.7475045 0.3999998 -0.5772252 -0.6133136 0.5391266 2.98023e-8 0 0 0 1 0.7868994 -0.3684684 0.4949952 5.96046e-8 -0.1153589 0.7001756 0.7045895 0.3999998 -0.6062025 -0.6115431 0.5084617 2.98023e-8 0 0 0 1 0.6103836 -0.5155579 0.6013584 5.96046e-8 0.05320387 0.7841591 0.6182749 0.3999998 -0.7903171 -0.3453903 0.5060676 2.98023e-8 0 0 0 1 0.4861082 -0.6475524 0.5868345 5.96046e-8 0.1413815 0.7209415 0.6784208 0.3999998 -0.8623863 -0.2468183 0.4420075 2.98023e-8 0 0 0 1</float_array>
        <technique_common>
          <accessor source="#Armature_Head_pose_matrix-output-array" count="4" stride="16">
            <param name="TRANSFORM" type="float4x4"/>
          </accessor>
        </technique_common>
      </source>
      <source id="Armature_Head_pose_matrix-interpolation">
        <Name_array id="Armature_Head_pose_matrix-interpolation-array" count="4">LINEAR LINEAR LINEAR LINEAR</Name_array>
        <technique_common>
          <accessor source="#Armature_Head_pose_matrix-interpolation-array" count="4" stride="1">
            <param name="INTERPOLATION" type="name"/>
          </accessor>
        </technique_common>
      </source>
      <sampler id="Armature_Head_pose_matrix-sampler">
        <input semantic="INPUT" source="#Armature_Head_pose_matrix-input"/>
        <input semantic="OUTPUT" source="#Armature_Head_pose_matrix-output"/>
        <input semantic="INTERPOLATION" source="#Armature_Head_pose_matrix-interpolation"/>
      </sampler>
      <channel source="#Armature_Head_pose_matrix-sampler" target="Armature_Head/transform"/>
    </animation>
    <animation id="Armature_Shoulder_R_pose_matrix">
      <source id="Armature_Shoulder_R_pose_matrix-input">
        <float_array id="Armature_Shoulder_R_pose_matrix-input-array" count="4">0 0.08333331 0.1833333 0.2833333</float_array>
        <technique_common>
          <accessor source="#Armature_Shoulder_R_pose_matrix-input-array" count="4" stride="1">
            <param name="TIME" type="float"/>
          </accessor>
        </technique_common>
      </source>
      <source id="Armature_Shoulder_R_pose_matrix-output">
        <float_array id="Armature_Shoulder_R_pose_matrix-output-array" count="64">0.08955465 0.9492738 0.3014281 5.96046e-8 -0.00365828 -0.3023285 0.9531967 0.3999998 0.9959749 -0.08646579 -0.02360214 2.98023e-8 0 0 0 1 0.08955547 0.9492738 0.3014278 5.96046e-8 -0.00365597 -0.3023283 0.9531968 0.3999998 0.9959748 -0.08646588 -0.02360459 2.98023e-8 0 0 0 1 0.08955543 0.9492738 0.3014277 5.96046e-8 -0.00365597 -0.3023282 0.9531968 0.3999998 0.9959748 -0.08646587 -0.02360456 2.98023e-8 0 0 0 1 0.08955534 0.9492738 0.3014277 5.96046e-8 -0.003655955 -0.3023282 0.9531968 0.3999998 0.9959749 -0.08646581 -0.02360456 2.98023e-8 0 0 0 1</float_array>
        <technique_common>
          <accessor source="#Armature_Shoulder_R_pose_matrix-output-array" count="4" stride="16">
            <param name="TRANSFORM" type="float4x4"/>
          </accessor>
        </technique_common>
      </source>
      <source id="Armature_Shoulder_R_pose_matrix-interpolation">
        <Name_array id="Armature_Shoulder_R_pose_matrix-interpolation-array" count="4">LINEAR LINEAR LINEAR LINEAR</Name_array>
        <technique_common>
          <accessor source="#Armature_Shoulder_R_pose_matrix-interpolation-array" count="4" stride="1">
            <param name="INTERPOLATION" type="name"/>
          </accessor>
        </technique_common>
      </source>
      <sampler id="Armature_Shoulder_R_pose_matrix-sampler">
        <input semantic="INPUT" source="#Armature_Shoulder_R_pose_matrix-input"/>
        <input semantic="OUTPUT" source="#Armature_Shoulder_R_pose_matrix-output"/>
        <input semantic="INTERPOLATION" source="#Armature_Shoulder_R_pose_matrix-interpolation"/>
      </sampler>
      <channel source="#Armature_Shoulder_R_pose_matrix-sampler" target="Armature_Shoulder_R/transform"/>
    </animation>
    <animation id="Armature_Arm_R_pose_matrix">
      <source id="Armature_Arm_R_pose_matrix-input">
        <float_array id="Armature_Arm_R_pose_matrix-input-array" count="4">0 0.08333331 0.1833333 0.2833333</float_array>
        <technique_common>
          <accessor source="#Armature_Arm_R_pose_matrix-input-array" count="4" stride="1">
            <param name="TIME" type="float"/>
          </accessor>
        </technique_common>
      </source>
      <source id="Armature_Arm_R_pose_matrix-output">
        <float_array id="Armature_Arm_R_pose_matrix-output-array" count="64">-0.1806193 -0.01801509 -0.983388 -2.98023e-8 0.9118377 0.3717212 -0.1742871 0.3938605 0.3686862 -0.9281699 -0.05071326 1.19209e-7 0 0 0 1 -0.3811112 -0.2280609 -0.895959 -2.98023e-8 0.7975961 0.4089761 -0.4433728 0.3938605 0.4675421 -0.8835877 0.02603498 1.19209e-7 0 0 0 1 0.2156147 -0.823835 -0.5242203 -2.98023e-8 0.8724529 0.4036431 -0.2754974 0.3938605 0.4385625 -0.3979562 0.8057879 1.19209e-7 0 0 0 1 0.9277122 -0.3257224 0.1823621 -2.98023e-8 0.2842061 0.9330205 0.2206814 0.3938605 -0.2420282 -0.1529002 0.9581462 1.19209e-7 0 0 0 1</float_array>
        <technique_common>
          <accessor source="#Armature_Arm_R_pose_matrix-output-array" count="4" stride="16">
            <param name="TRANSFORM" type="float4x4"/>
          </accessor>
        </technique_common>
      </source>
      <source id="Armature_Arm_R_pose_matrix-interpolation">
        <Name_array id="Armature_Arm_R_pose_matrix-interpolation-array" count="4">LINEAR LINEAR LINEAR LINEAR</Name_array>
        <technique_common>
          <accessor source="#Armature_Arm_R_pose_matrix-interpolation-array" count="4" stride="1">
            <param name="INTERPOLATION" type="name"/>
          </accessor>
        </technique_common>
      </source>
      <sampler id="Armature_Arm_R_pose_matrix-sampler">
        <input semantic="INPUT" source="#Armature_Arm_R_pose_matrix-input"/>
        <input semantic="OUTPUT" source="#Armature_Arm_R_pose_matrix-output"/>
        <input semantic="INTERPOLATION" source="#Armature_Arm_R_pose_matrix-interpolation"/>
      </sampler>
      <channel source="#Armature_Arm_R_pose_matrix-sampler" target="Armature_Arm_R/transform"/>
    </animation>
    <animation id="Armature_Hand_R_pose_matrix">
      <source id="Armature_Hand_R_pose_matrix-input">
        <float_array id="Armature_Hand_R_pose_matrix-input-array" count="4">0 0.08333331 0.1833333 0.2833333</float_array>
        <technique_common>
          <accessor source="#Armature_Hand_R_pose_matrix-input-array" count="4" stride="1">
            <param name="TIME" type="float"/>
          </accessor>
        </technique_common>
      </source>
      <source id="Armature_Hand_R_pose_matrix-output">
        <float_array id="Armature_Hand_R_pose_matrix-output-array" count="64">0.9999781 8.05616e-4 0.006569266 -5.96046e-8 5.65886e-4 0.9785222 -0.2061415 0.3000002 -0.006594256 0.2061407 0.9785002 5.96046e-8 0 0 0 1 0.9999607 4.74185e-4 0.008863151 -5.96046e-8 0.00428763 0.8485304 -0.5291298 0.3000002 -0.007771626 0.5291469 0.8484946 5.96046e-8 0 0 0 1 0.9999361 0.001004294 0.01126465 -5.96046e-8 0.008423239 0.5984992 -0.8010792 0.3000002 -0.007546455 0.801123 0.5984522 5.96046e-8 0 0 0 1 0.9999235 0.001542181 0.01227483 -5.96046e-8 0.01024908 0.4524269 -0.8917429 0.3000002 -0.006928712 0.8918005 0.4523764 5.96046e-8 0 0 0 1</float_array>
        <technique_common>
          <accessor source="#Armature_Hand_R_pose_matrix-output-array" count="4" stride="16">
            <param name="TRANSFORM" type="float4x4"/>
          </accessor>
        </technique_common>
      </source>
      <source id="Armature_Hand_R_pose_matrix-interpolation">
        <Name_array id="Armature_Hand_R_pose_matrix-interpolation-array" count="4">LINEAR LINEAR LINEAR LINEAR</Name_array>
        <technique_common>
          <accessor source="#Armature_Hand_R_pose_matrix-interpolation-array" count="4" stride="1">
            <param name="INTERPOLATION" type="name"/>
          </accessor>
        </technique_common>
      </source>
      <sampler id="Armature_Hand_R_pose_matrix-sampler">
        <input semantic="INPUT" source="#Armature_Hand_R_pose_matrix-input"/>
        <input semantic="OUTPUT" source="#Armature_Hand_R_pose_matrix-output"/>
        <input semantic="INTERPOLATION" source="#Armature_Hand_R_pose_matrix-interpolation"/>
      </sampler>
      <channel source="#Armature_Hand_R_pose_matrix-sampler" target="Armature_Hand_R/transform"/>
    </animation>
    <animation id="Armature_Tool_R_pose_matrix">
      <source id="Armature_Tool_R_pose_matrix-input">
        <float_array id="Armature_Tool_R_pose_matrix-input-array" count="4">0 0.08333331 0.1833333 0.2833333</float_array>
        <technique_common>
          <accessor source="#Armature_Tool_R_pose_matrix-input-array" count="4" stride="1">
            <param name="TIME" type="float"/>
          </accessor>
        </technique_common>
      </source>
      <source id="Armature_Tool_R_pose_matrix-output">
        <float_array id="Armature_Tool_R_pose_matrix-output-array" count="64">1 2.23517e-8 2.38419e-7 0 7.45058e-9 -0.9998358 0.01812229 0.2728581 2.08616e-7 -0.01812231 -0.9992439 -1.19209e-7 0 0 0 1 1 2.23517e-8 2.38419e-7 1.19209e-7 7.45058e-9 -0.9998358 0.01812229 0.272858 2.08616e-7 -0.01812231 -0.9992439 0 0 0 0 1 0.7213545 0.04711252 -0.690962 0 0.08432433 -0.9962357 0.02010617 0.2728581 -0.6870058 -0.0727362 -0.7221838 -1.19209e-7 0 0 0 1 0.04101241 0.04317689 -0.9982256 5.96046e-8 0.1462599 -0.9885635 -0.03674984 0.272858 -0.9878094 -0.1444182 -0.04683107 -1.78814e-7 0 0 0 1</float_array>
        <technique_common>
          <accessor source="#Armature_Tool_R_pose_matrix-output-array" count="4" stride="16">
            <param name="TRANSFORM" type="float4x4"/>
          </accessor>
        </technique_common>
      </source>
      <source id="Armature_Tool_R_pose_matrix-interpolation">
        <Name_array id="Armature_Tool_R_pose_matrix-interpolation-array" count="4">LINEAR LINEAR LINEAR LINEAR</Name_array>
        <technique_common>
          <accessor source="#Armature_Tool_R_pose_matrix-interpolation-array" count="4" stride="1">
            <param name="INTERPOLATION" type="name"/>
          </accessor>
        </technique_common>
      </source>
      <sampler id="Armature_Tool_R_pose_matrix-sampler">
        <input semantic="INPUT" source="#Armature_Tool_R_pose_matrix-input"/>
        <input semantic="OUTPUT" source="#Armature_Tool_R_pose_matrix-output"/>
        <input semantic="INTERPOLATION" source="#Armature_Tool_R_pose_matrix-interpolation"/>
      </sampler>
      <channel source="#Armature_Tool_R_pose_matrix-sampler" target="Armature_Tool_R/transform"/>
    </animation>
    <animation id="Armature_Elbow_R_pose_matrix">
      <source id="Armature_Elbow_R_pose_matrix-input">
        <float_array id="Armature_Elbow_R_pose_matrix-input-array" count="4">0 0.08333331 0.1833333 0.2833333</float_array>
        <technique_common>
          <accessor source="#Armature_Elbow_R_pose_matrix-input-array" count="4" stride="1">
            <param name="TIME" type="float"/>
          </accessor>
        </technique_common>
      </source>
      <source id="Armature_Elbow_R_pose_matrix-output">
        <float_array id="Armature_Elbow_R_pose_matrix-output-array" count="64">-1 1.78814e-7 5.96046e-8 -5.96046e-8 0 -4.47035e-8 -0.9999999 0.3441504 -1.49012e-7 -1 -1.49012e-8 0 0 0 0 1 -1 1.78814e-7 5.96046e-8 -5.96046e-8 0 -4.47035e-8 -0.9999999 0.3671086 -1.49012e-7 -1 -1.49012e-8 5.96046e-8 0 0 0 1 -1 1.78814e-7 5.96046e-8 -1.19209e-7 0 -4.47035e-8 -0.9999999 0.3952121 -1.49012e-7 -1 -1.49012e-8 5.96046e-8 0 0 0 1 -1 1.78814e-7 5.96046e-8 -5.96046e-8 0 -4.47035e-8 -0.9999999 0.4109056 -1.49012e-7 -1 -1.49012e-8 5.96046e-8 0 0 0 1</float_array>
        <technique_common>
          <accessor source="#Armature_Elbow_R_pose_matrix-output-array" count="4" stride="16">
            <param name="TRANSFORM" type="float4x4"/>
          </accessor>
        </technique_common>
      </source>
      <source id="Armature_Elbow_R_pose_matrix-interpolation">
        <Name_array id="Armature_Elbow_R_pose_matrix-interpolation-array" count="4">LINEAR LINEAR LINEAR LINEAR</Name_array>
        <technique_common>
          <accessor source="#Armature_Elbow_R_pose_matrix-interpolation-array" count="4" stride="1">
            <param name="INTERPOLATION" type="name"/>
          </accessor>
        </technique_common>
      </source>
      <sampler id="Armature_Elbow_R_pose_matrix-sampler">
        <input semantic="INPUT" source="#Armature_Elbow_R_pose_matrix-input"/>
        <input semantic="OUTPUT" source="#Armature_Elbow_R_pose_matrix-output"/>
        <input semantic="INTERPOLATION" source="#Armature_Elbow_R_pose_matrix-interpolation"/>
      </sampler>
      <channel source="#Armature_Elbow_R_pose_matrix-sampler" target="Armature_Elbow_R/transform"/>
    </animation>
    <animation id="Armature_Shoulder_L_pose_matrix">
      <source id="Armature_Shoulder_L_pose_matrix-input">
        <float_array id="Armature_Shoulder_L_pose_matrix-input-array" count="4">0 0.08333331 0.1833333 0.2833333</float_array>
        <technique_common>
          <accessor source="#Armature_Shoulder_L_pose_matrix-input-array" count="4" stride="1">
            <param name="TIME" type="float"/>
          </accessor>
        </technique_common>
      </source>
      <source id="Armature_Shoulder_L_pose_matrix-output">
        <float_array id="Armature_Shoulder_L_pose_matrix-output-array" count="64">0.08849937 -0.9494541 -0.3011721 5.96046e-8 -0.003902435 -0.3026866 0.9530821 0.3999998 -0.9960685 -0.08317187 -0.03049277 2.98023e-8 0 0 0 1 0.08849897 -0.9494539 -0.3011725 5.96046e-8 -0.003900543 -0.302687 0.9530821 0.3999998 -0.9960685 -0.08317211 -0.03049088 2.98023e-8 0 0 0 1 0.08849897 -0.949454 -0.3011725 5.96046e-8 -0.003900543 -0.302687 0.9530821 0.3999998 -0.9960685 -0.08317212 -0.03049088 2.98023e-8 0 0 0 1 0.08850008 -0.9494541 -0.3011719 5.96046e-8 -0.003904223 -0.3026867 0.9530821 0.3999998 -0.9960684 -0.08317203 -0.03049468 2.98023e-8 0 0 0 1</float_array>
        <technique_common>
          <accessor source="#Armature_Shoulder_L_pose_matrix-output-array" count="4" stride="16">
            <param name="TRANSFORM" type="float4x4"/>
          </accessor>
        </technique_common>
      </source>
      <source id="Armature_Shoulder_L_pose_matrix-interpolation">
        <Name_array id="Armature_Shoulder_L_pose_matrix-interpolation-array" count="4">LINEAR LINEAR LINEAR LINEAR</Name_array>
        <technique_common>
          <accessor source="#Armature_Shoulder_L_pose_matrix-interpolation-array" count="4" stride="1">
            <param name="INTERPOLATION" type="name"/>
          </accessor>
        </technique_common>
      </source>
      <sampler id="Armature_Shoulder_L_pose_matrix-sampler">
        <input semantic="INPUT" source="#Armature_Shoulder_L_pose_matrix-input"/>
        <input semantic="OUTPUT" source="#Armature_Shoulder_L_pose_matrix-output"/>
        <input semantic="INTERPOLATION" source="#Armature_Shoulder_L_pose_matrix-interpolation"/>
      </sampler>
      <channel source="#Armature_Shoulder_L_pose_matrix-sampler" target="Armature_Shoulder_L/transform"/>
    </animation>
    <animation id="Armature_Arm_L_pose_matrix">
      <source id="Armature_Arm_L_pose_matrix-input">
        <float_array id="Armature_Arm_L_pose_matrix-input-array" count="4">0 0.08333331 0.1833333 0.2833333</float_array>
        <technique_common>
          <accessor source="#Armature_Arm_L_pose_matrix-input-array" count="4" stride="1">
            <param name="TIME" type="float"/>
          </accessor>
        </technique_common>
      </source>
      <source id="Armature_Arm_L_pose_matrix-output">
        <float_array id="Armature_Arm_L_pose_matrix-output-array" count="64">0.5793006 0.6684099 0.4665178 7.45058e-9 -0.3732525 0.72633 -0.5771717 0.3938605 -0.7246332 0.1602269 0.6702491 0 0 0 0 1 0.6929963 0.6212665 0.3657651 7.45058e-9 -0.05466855 0.5511674 -0.8326019 0.3938605 -0.7188654 0.5569942 0.4159207 0 0 0 0 1 0.6911818 0.3471106 0.6338628 7.45058e-9 0.4448764 0.4868458 -0.7517086 0.3938605 -0.5695195 0.8015577 0.1820776 0 0 0 0 1 0.7245228 0.1931843 0.6616241 7.45058e-9 0.515273 0.4857332 -0.7060854 0.3938605 -0.4577774 0.852492 0.2523821 0 0 0 0 1</float_array>
        <technique_common>
          <accessor source="#Armature_Arm_L_pose_matrix-output-array" count="4" stride="16">
            <param name="TRANSFORM" type="float4x4"/>
          </accessor>
        </technique_common>
      </source>
      <source id="Armature_Arm_L_pose_matrix-interpolation">
        <Name_array id="Armature_Arm_L_pose_matrix-interpolation-array" count="4">LINEAR LINEAR LINEAR LINEAR</Name_array>
        <technique_common>
          <accessor source="#Armature_Arm_L_pose_matrix-interpolation-array" count="4" stride="1">
            <param name="INTERPOLATION" type="name"/>
          </accessor>
        </technique_common>
      </source>
      <sampler id="Armature_Arm_L_pose_matrix-sampler">
        <input semantic="INPUT" source="#Armature_Arm_L_pose_matrix-input"/>
        <input semantic="OUTPUT" source="#Armature_Arm_L_pose_matrix-output"/>
        <input semantic="INTERPOLATION" source="#Armature_Arm_L_pose_matrix-interpolation"/>
      </sampler>
      <channel source="#Armature_Arm_L_pose_matrix-sampler" target="Armature_Arm_L/transform"/>
    </animation>
    <animation id="Armature_Hand_L_pose_matrix">
      <source id="Armature_Hand_L_pose_matrix-input">
        <float_array id="Armature_Hand_L_pose_matrix-input-array" count="4">0 0.08333331 0.1833333 0.2833333</float_array>
        <technique_common>
          <accessor source="#Armature_Hand_L_pose_matrix-input-array" count="4" stride="1">
            <param name="TIME" type="float"/>
          </accessor>
        </technique_common>
      </source>
      <source id="Armature_Hand_L_pose_matrix-output">
        <float_array id="Armature_Hand_L_pose_matrix-output-array" count="64">0.9993197 -0.03687844 4.48175e-4 0 0.03686948 0.999235 0.01303453 0.3000001 -9.28521e-4 -0.01300913 0.9999149 0 0 0 0 1 0.9993197 -0.03687843 4.48175e-4 0 0.03686947 0.999235 0.01303453 0.3000001 -9.28492e-4 -0.01300913 0.9999149 0 0 0 0 1 0.9993197 -0.03687843 4.48175e-4 0 0.03686947 0.999235 0.01303453 0.3000001 -9.28491e-4 -0.01300913 0.9999149 0 0 0 0 1 0.9993197 -0.03687846 4.48167e-4 0 0.03686949 0.999235 0.01303516 0.3000001 -9.28521e-4 -0.01300978 0.9999149 0 0 0 0 1</float_array>
        <technique_common>
          <accessor source="#Armature_Hand_L_pose_matrix-output-array" count="4" stride="16">
            <param name="TRANSFORM" type="float4x4"/>
          </accessor>
        </technique_common>
      </source>
      <source id="Armature_Hand_L_pose_matrix-interpolation">
        <Name_array id="Armature_Hand_L_pose_matrix-interpolation-array" count="4">LINEAR LINEAR LINEAR LINEAR</Name_array>
        <technique_common>
          <accessor source="#Armature_Hand_L_pose_matrix-interpolation-array" count="4" stride="1">
            <param name="INTERPOLATION" type="name"/>
          </accessor>
        </technique_common>
      </source>
      <sampler id="Armature_Hand_L_pose_matrix-sampler">
        <input semantic="INPUT" source="#Armature_Hand_L_pose_matrix-input"/>
        <input semantic="OUTPUT" source="#Armature_Hand_L_pose_matrix-output"/>
        <input semantic="INTERPOLATION" source="#Armature_Hand_L_pose_matrix-interpolation"/>
      </sampler>
      <channel source="#Armature_Hand_L_pose_matrix-sampler" target="Armature_Hand_L/transform"/>
    </animation>
    <animation id="Armature_Tool_L_pose_matrix">
      <source id="Armature_Tool_L_pose_matrix-input">
        <float_array id="Armature_Tool_L_pose_matrix-input-array" count="4">0 0.08333331 0.1833333 0.2833333</float_array>
        <technique_common>
          <accessor source="#Armature_Tool_L_pose_matrix-input-array" count="4" stride="1">
            <param name="TIME" type="float"/>
          </accessor>
        </technique_common>
      </source>
      <source id="Armature_Tool_L_pose_matrix-output">
        <float_array id="Armature_Tool_L_pose_matrix-output-array" count="64">1 3.72529e-8 2.14553e-7 0 3.72529e-8 -0.9998356 0.01812229 0.2728581 2.69152e-7 -0.01812229 -0.9992476 7.45058e-9 0 0 0 1 0.9999999 9.49949e-8 2.14553e-7 1.19209e-7 9.49949e-8 -0.9998356 0.01812229 0.2728581 2.72878e-7 -0.01812229 -0.9992476 -3.72529e-8 0 0 0 1 0.9999999 1.2666e-7 2.14553e-7 1.19209e-7 1.24797e-7 -0.9998356 0.01812229 0.2728581 2.7474e-7 -0.01812228 -0.9992476 -3.72529e-8 0 0 0 1 1 1.86265e-8 2.14553e-7 -1.19209e-7 2.23517e-8 -0.9998356 0.01812229 0.2728581 2.68221e-7 -0.01812228 -0.9992476 7.45058e-9 0 0 0 1</float_array>
        <technique_common>
          <accessor source="#Armature_Tool_L_pose_matrix-output-array" count="4" stride="16">
            <param name="TRANSFORM" type="float4x4"/>
          </accessor>
        </technique_common>
      </source>
      <source id="Armature_Tool_L_pose_matrix-interpolation">
        <Name_array id="Armature_Tool_L_pose_matrix-interpolation-array" count="4">LINEAR LINEAR LINEAR LINEAR</Name_array>
        <technique_common>
          <accessor source="#Armature_Tool_L_pose_matrix-interpolation-array" count="4" stride="1">
            <param name="INTERPOLATION" type="name"/>
          </accessor>
        </technique_common>
      </source>
      <sampler id="Armature_Tool_L_pose_matrix-sampler">
        <input semantic="INPUT" source="#Armature_Tool_L_pose_matrix-input"/>
        <input semantic="OUTPUT" source="#Armature_Tool_L_pose_matrix-output"/>
        <input semantic="INTERPOLATION" source="#Armature_Tool_L_pose_matrix-interpolation"/>
      </sampler>
      <channel source="#Armature_Tool_L_pose_matrix-sampler" target="Armature_Tool_L/transform"/>
    </animation>
    <animation id="Armature_Elbow_L_pose_matrix">
      <source id="Armature_Elbow_L_pose_matrix-input">
        <float_array id="Armature_Elbow_L_pose_matrix-input-array" count="4">0 0.08333331 0.1833333 0.2833333</float_array>
        <technique_common>
          <accessor source="#Armature_Elbow_L_pose_matrix-input-array" count="4" stride="1">
            <param name="TIME" type="float"/>
          </accessor>
        </technique_common>
      </source>
      <source id="Armature_Elbow_L_pose_matrix-output">
        <float_array id="Armature_Elbow_L_pose_matrix-output-array" count="64">-1 2.1141e-7 -2.98023e-8 0 4.47035e-8 -3.72529e-8 -1 0.3000001 -1.81841e-7 -1 -3.72529e-8 0 0 0 0 1 -1 2.1141e-7 -2.98023e-8 0 4.47035e-8 -3.72529e-8 -1 0.3000001 -1.81841e-7 -1 -3.72529e-8 0 0 0 0 1 -1 2.1141e-7 -2.98023e-8 0 4.47035e-8 -3.72529e-8 -1 0.3000001 -1.81841e-7 -1 -3.72529e-8 0 0 0 0 1 -1 2.1141e-7 -2.98023e-8 0 4.47035e-8 -3.72529e-8 -1 0.3000001 -1.81841e-7 -1 -3.72529e-8 0 0 0 0 1</float_array>
        <technique_common>
          <accessor source="#Armature_Elbow_L_pose_matrix-output-array" count="4" stride="16">
            <param name="TRANSFORM" type="float4x4"/>
          </accessor>
        </technique_common>
      </source>
      <source id="Armature_Elbow_L_pose_matrix-interpolation">
        <Name_array id="Armature_Elbow_L_pose_matrix-interpolation-array" count="4">LINEAR LINEAR LINEAR LINEAR</Name_array>
        <technique_common>
          <accessor source="#Armature_Elbow_L_pose_matrix-interpolation-array" count="4" stride="1">
            <param name="INTERPOLATION" type="name"/>
          </accessor>
        </technique_common>
      </source>
      <sampler id="Armature_Elbow_L_pose_matrix-sampler">
        <input semantic="INPUT" source="#Armature_Elbow_L_pose_matrix-input"/>
        <input semantic="OUTPUT" source="#Armature_Elbow_L_pose_matrix-output"/>
        <input semantic="INTERPOLATION" source="#Armature_Elbow_L_pose_matrix-interpolation"/>
      </sampler>
      <channel source="#Armature_Elbow_L_pose_matrix-sampler" target="Armature_Elbow_L/transform"/>
    </animation>
  </library_animations>
  <library_controllers/>
  <library_visual_scenes>
    <visual_scene id="Scene" name="Scene">
      <node id="Armature" name="Armature" type="NODE">
        <matrix sid="transform">1 0 0 2.17394e-5 0 1 0 -4.11466e-5 0 0 1 0.01021957 0 0 0 1</matrix>
        <node id="Armature_Root" name="Root" sid="Root" type="JOINT">
          <matrix sid="transform">1 0 0 -4.6045e-6 0 0 -1 9.46418e-4 0 1 0 0.7639716 0 0 0 1</matrix>
          <node id="Armature_Thigh_R" name="Thigh_R" sid="Thigh_R" type="JOINT">
            <matrix sid="transform">1 -4.77193e-7 -1.50996e-7 0.124994 -4.77193e-7 -1 3.97661e-7 -0.002830565 -1.50996e-7 -3.97661e-7 -1 -1.1839e-5 0 0 0 1</matrix>
            <node id="Armature_Leg_R" name="Leg_R" sid="Leg_R" type="JOINT">
              <matrix sid="transform">1 4.77193e-7 8.02679e-7 0 -4.77194e-7 1 3.97661e-7 0.3747202 -8.02679e-7 -3.97661e-7 1 0 0 0 0 1</matrix>
              <extra>
                <technique profile="blender">
                  <connect sid="connect" type="bool">1</connect>
                  <layer sid="layer" type="string">0</layer>
                  <roll sid="roll" type="float">6.51683e-7</roll>
                  <tip_x sid="tip_x" type="float">0</tip_x>
                  <tip_y sid="tip_y" type="float">0</tip_y>
                  <tip_z sid="tip_z" type="float">-0.375</tip_z>
                </technique>
              </extra>
            </node>
            <node id="Armature_Knee_R" name="Knee_R" sid="Knee_R" type="JOINT">
              <matrix sid="transform">1 1.50996e-7 -6.48983e-7 0 -6.48983e-7 3.97661e-7 -1 0.3747202 -1.50996e-7 1 3.57628e-7 -5.82077e-11 0 0 0 1</matrix>
              <extra>
                <technique profile="blender">
                  <layer sid="layer" type="string">0</layer>
                  <roll sid="roll" type="float">-1.71789e-7</roll>
                  <tip_x sid="tip_x" type="float">0</tip_x>
                  <tip_y sid="tip_y" type="float">0.09999996</tip_y>
                  <tip_z sid="tip_z" type="float">0</tip_z>
                </technique>
              </extra>
            </node>
            <extra>
              <technique profile="blender">
                <layer sid="layer" type="string">0</layer>
                <roll sid="roll" type="float">1.48862e-7</roll>
              </technique>
            </extra>
          </node>
          <node id="Armature_Thigh_L" name="Thigh_L" sid="Thigh_L" type="JOINT">
            <matrix sid="transform">1 -4.77193e-7 -1.50996e-7 -0.125006 -4.77193e-7 -1 3.17197e-7 -0.002830565 -1.50996e-7 -3.17197e-7 -1 -1.1854e-5 0 0 0 1</matrix>
            <node id="Armature_Leg_L" name="Leg_L" sid="Leg_L" type="JOINT">
              <matrix sid="transform">1 4.77193e-7 8.02679e-7 0 -4.77193e-7 1 3.17196e-7 0.3747203 -8.02679e-7 -3.17197e-7 1 0 0 0 0 1</matrix>
              <extra>
                <technique profile="blender">
                  <connect sid="connect" type="bool">1</connect>
                  <layer sid="layer" type="string">0</layer>
                  <roll sid="roll" type="float">6.51683e-7</roll>
                  <tip_x sid="tip_x" type="float">0</tip_x>
                  <tip_y sid="tip_y" type="float">0</tip_y>
                  <tip_z sid="tip_z" type="float">-0.375</tip_z>
                </technique>
              </extra>
            </node>
            <node id="Armature_Knee_L" name="Knee_L" sid="Knee_L" type="JOINT">
              <matrix sid="transform">1 1.50996e-7 -6.48983e-7 0 -6.48983e-7 3.17197e-7 -1 0.3747203 -1.50996e-7 1 3.57628e-7 0 0 0 0 1</matrix>
              <extra>
                <technique profile="blender">
                  <layer sid="layer" type="string">0</layer>
                  <roll sid="roll" type="float">-1.71789e-7</roll>
                  <tip_x sid="tip_x" type="float">0</tip_x>
                  <tip_y sid="tip_y" type="float">0.09999996</tip_y>
                  <tip_z sid="tip_z" type="float">0</tip_z>
                </technique>
              </extra>
            </node>
            <extra>
              <technique profile="blender">
                <layer sid="layer" type="string">0</layer>
                <roll sid="roll" type="float">1.71787e-7</roll>
              </technique>
            </extra>
          </node>
          <node id="Armature_Torso" name="Torso" sid="Torso" type="JOINT">
            <matrix sid="transform">1 0 0 0 0 1 0 0.05000013 0 0 1 0 0 0 0 1</matrix>
            <node id="Armature_Chest" name="Chest" sid="Chest" type="JOINT">
              <matrix sid="transform">1 1.52595e-7 -1.52595e-7 0 -1.52595e-7 1 2.72558e-7 0.2999997 1.52595e-7 -2.72558e-7 1 0 0 0 0 1</matrix>
              <node id="Armature_Head" name="Head" sid="Head" type="JOINT">
                <matrix sid="transform">1 -1.52595e-7 1.52595e-7 -6.1038e-8 1.52595e-7 1 -2.72558e-7 0.4 -1.52595e-7 2.72558e-7 1 1.09023e-7 0 0 0 1</matrix>
                <extra>
                  <technique profile="blender">
                    <connect sid="connect" type="bool">1</connect>
                    <layer sid="layer" type="string">0</layer>
                    <tip_x sid="tip_x" type="float">0</tip_x>
                    <tip_y sid="tip_y" type="float">0</tip_y>
                    <tip_z sid="tip_z" type="float">0.4449962</tip_z>
                  </technique>
                </extra>
              </node>
              <node id="Armature_Shoulder_R" name="Shoulder_R" sid="Shoulder_R" type="JOINT">
                <matrix sid="transform">2.05163e-7 0.9521141 0.3057426 -8.94106e-8 -7.76062e-7 -0.3057426 0.9521142 0.4 0.9999999 -3.57628e-7 6.72301e-7 1.72062e-7 0 0 0 1</matrix>
                <node id="Armature_Arm_R" name="Arm_R" sid="Arm_R" type="JOINT">
                  <matrix sid="transform">7.38973e-8 2.98023e-7 -1 0 0.9521143 0.3057428 1.93715e-7 0.3938605 0.3057427 -0.9521143 -3.8743e-7 1.2666e-7 0 0 0 1</matrix>
                  <node id="Armature_Hand_R" name="Hand_R" sid="Hand_R" type="JOINT">
                    <matrix sid="transform">1 6.07185e-8 2.31636e-7 -2.98023e-8 -8.58182e-8 0.9939375 0.1099474 0.3 -2.23556e-7 -0.1099474 0.9939374 -5.82077e-11 0 0 0 1</matrix>
                    <node id="Armature_Tool_R" name="Tool_R" sid="Tool_R" type="JOINT">
                      <matrix sid="transform">1 4.32067e-9 2.38236e-7 5.96046e-8 2.60236e-12 -0.9998358 0.01812222 0.2728585 2.38131e-7 -0.01812222 -0.9992322 1.49012e-8 0 0 0 1</matrix>
                      <extra>
                        <technique profile="blender">
                          <layer sid="layer" type="string">0</layer>
                          <tip_x sid="tip_x" type="float">0</tip_x>
                          <tip_y sid="tip_y" type="float">0.02999997</tip_y>
                          <tip_z sid="tip_z" type="float">0.3250002</tip_z>
                        </technique>
                      </extra>
                    </node>
                    <extra>
                      <technique profile="blender">
                        <connect sid="connect" type="bool">1</connect>
                        <layer sid="layer" type="string">0</layer>
                        <roll sid="roll" type="float">2.38419e-7</roll>
                        <tip_x sid="tip_x" type="float">0</tip_x>
                        <tip_y sid="tip_y" type="float">-0.02999997</tip_y>
                        <tip_z sid="tip_z" type="float">-0.2712038</tip_z>
                      </technique>
                    </extra>
                  </node>
                  <node id="Armature_Elbow_R" name="Elbow_R" sid="Elbow_R" type="JOINT">
                    <matrix sid="transform">-1 1.34175e-8 -1.64413e-7 1.19209e-7 1.64413e-7 -7.54001e-8 -1 0.3000001 -1.34175e-8 -1 3.1591e-8 -6.63567e-8 0 0 0 1</matrix>
                    <extra>
                      <technique profile="blender">
                        <layer sid="layer" type="string">0</layer>
                        <tip_x sid="tip_x" type="float">0</tip_x>
                        <tip_y sid="tip_y" type="float">-0.09999996</tip_y>
                        <tip_z sid="tip_z" type="float">0</tip_z>
                      </technique>
                    </extra>
                  </node>
                  <extra>
                    <technique profile="blender">
                      <connect sid="connect" type="bool">1</connect>
                      <layer sid="layer" type="string">0</layer>
                      <roll sid="roll" type="float">2.38419e-7</roll>
                    </technique>
                  </extra>
                </node>
                <extra>
                  <technique profile="blender">
                    <connect sid="connect" type="bool">1</connect>
                    <layer sid="layer" type="string">0</layer>
                    <roll sid="roll" type="float">0.310719</roll>
                  </technique>
                </extra>
              </node>
              <node id="Armature_Shoulder_L" name="Shoulder_L" sid="Shoulder_L" type="JOINT">
                <matrix sid="transform">-6.74758e-7 -0.9521142 -0.3057421 4.54747e-13 1.8917e-6 -0.3057421 0.9521143 0.3999996 -0.9999998 1.78814e-7 2.00187e-6 0 0 0 0 1</matrix>
                <node id="Armature_Arm_L" name="Arm_L" sid="Arm_L" type="JOINT">
                  <matrix sid="transform">-9.19767e-7 -1.54972e-6 1 0 -0.9521145 0.305742 -3.94881e-7 0.3938603 -0.3057419 -0.9521144 -1.78814e-6 -3.72529e-8 0 0 0 1</matrix>
                  <node id="Armature_Hand_L" name="Hand_L" sid="Hand_L" type="JOINT">
                    <matrix sid="transform">1 -4.48291e-8 -1.69501e-7 0 6.31935e-8 0.9939375 0.1099472 0.3000001 1.63544e-7 -0.1099472 0.9939374 -5.82077e-11 0 0 0 1</matrix>
                    <node id="Armature_Tool_L" name="Tool_L" sid="Tool_L" type="JOINT">
                      <matrix sid="transform">0.9999999 4.32068e-9 2.38581e-7 -2.98023e-8 -3.63798e-12 -0.9998359 0.0181222 0.2728584 2.38821e-7 -0.01812219 -1.00068 -8.9407e-8 0 0 0 1</matrix>
                      <extra>
                        <technique profile="blender">
                          <layer sid="layer" type="string">0</layer>
                          <tip_x sid="tip_x" type="float">0</tip_x>
                          <tip_y sid="tip_y" type="float">0.02999997</tip_y>
                          <tip_z sid="tip_z" type="float">0.3250001</tip_z>
                        </technique>
                      </extra>
                    </node>
                    <extra>
                      <technique profile="blender">
                        <connect sid="connect" type="bool">1</connect>
                        <layer sid="layer" type="string">0</layer>
                        <roll sid="roll" type="float">2.38419e-7</roll>
                        <tip_x sid="tip_x" type="float">0</tip_x>
                        <tip_y sid="tip_y" type="float">-0.02999997</tip_y>
                        <tip_z sid="tip_z" type="float">-0.2712038</tip_z>
                      </technique>
                    </extra>
                  </node>
                  <node id="Armature_Elbow_L" name="Elbow_L" sid="Elbow_L" type="JOINT">
                    <matrix sid="transform">-1 4.00518e-7 -1.11035e-8 -2.98023e-8 1.11035e-8 -3.73568e-8 -1 0.3000002 -4.00518e-7 -1 -4.44959e-8 2.61352e-8 0 0 0 1</matrix>
                    <extra>
                      <technique profile="blender">
                        <layer sid="layer" type="string">0</layer>
                        <tip_x sid="tip_x" type="float">0</tip_x>
                        <tip_y sid="tip_y" type="float">-0.09999996</tip_y>
                        <tip_z sid="tip_z" type="float">0</tip_z>
                      </technique>
                    </extra>
                  </node>
                  <extra>
                    <technique profile="blender">
                      <connect sid="connect" type="bool">1</connect>
                      <layer sid="layer" type="string">0</layer>
                      <roll sid="roll" type="float">2.38419e-7</roll>
                    </technique>
                  </extra>
                </node>
                <extra>
                  <technique profile="blender">
                    <connect sid="connect" type="bool">1</connect>
                    <layer sid="layer" type="string">0</layer>
                    <roll sid="roll" type="float">-0.3107193</roll>
                  </technique>
                </extra>
              </node>
              <extra>
                <technique profile="blender">
                  <connect sid="connect" type="bool">1</connect>
                  <layer sid="layer" type="string">0</layer>
                  <roll sid="roll" type="float">0</roll>
                </technique>
              </extra>
            </node>
            <extra>
              <technique profile="blender">
                <connect sid="connect" type="bool">1</connect>
                <layer sid="layer" type="string">0</layer>
              </technique>
            </extra>
          </node>
          <extra>
            <technique profile="blender">
              <layer sid="layer" type="string">0</layer>
            </technique>
          </extra>
        </node>
      </node>
    </visual_scene>
  </library_visual_scenes>
  <scene>
    <instance_visual_scene url="#Scene"/>
  </scene>
</COLLADA>